{
.appVersion = "1267";
copyright = "Copyright 2010 Google Inc. All Rights Reserved.";
customParameters = (
{
name = glyphOrder;
value = (
.notdef,
.null,
nonmarkingreturn,
space,
exclam,
quotedbl,
numbersign,
dollar,
percent,
ampersand,
quotesingle,
parenleft,
parenright,
asterisk,
plus,
comma,
hyphen,
period,
slash,
zero,
one,
two,
three,
four,
five,
six,
seven,
eight,
nine,
colon,
semicolon,
less,
equal,
greater,
question,
at,
A,
B,
C,
D,
E,
F,
G,
H,
I,
J,
K,
L,
M,
N,
O,
P,
Q,
R,
S,
T,
U,
V,
W,
X,
Y,
Z,
bracketleft,
backslash,
bracketright,
asciicircum,
underscore,
grave,
a,
b,
c,
d,
e,
f,
g,
h,
i,
j,
k,
l,
m,
n,
o,
p,
q,
r,
s,
t,
u,
v,
w,
x,
y,
z,
braceleft,
bar,
braceright,
asciitilde,
Adieresis,
Aring,
Ccedilla,
Eacute,
Ntilde,
Odieresis,
Udieresis,
aacute,
agrave,
acircumflex,
adieresis,
atilde,
aring,
ccedilla,
eacute,
egrave,
ecircumflex,
edieresis,
iacute,
igrave,
icircumflex,
idieresis,
ntilde,
oacute,
ograve,
ocircumflex,
odieresis,
otilde,
uacute,
ugrave,
ucircumflex,
udieresis,
dagger,
degree,
cent,
sterling,
section,
bullet,
paragraph,
germandbls,
registered,
copyright,
trademark,
acute,
dieresis,
notequal,
AE,
Oslash,
infinity,
plusminus,
lessequal,
greaterequal,
yen,
mu1,
partialdiff,
summation,
product,
integral,
ordfeminine,
ordmasculine,
Ohm,
ae,
oslash,
questiondown,
exclamdown,
logicalnot,
radical,
florin,
approxequal,
uni2206,
guillemotleft,
guillemotright,
ellipsis,
Agrave,
Atilde,
Otilde,
OE,
oe,
endash,
emdash,
quotedblleft,
quotedblright,
quoteleft,
quoteright,
divide,
lozenge,
ydieresis,
Ydieresis,
fraction,
Euro,
guilsinglleft,
guilsinglright,
fi,
fl,
daggerdbl,
periodcentered,
quotesinglbase,
quotedblbase,
perthousand,
Acircumflex,
Ecircumflex,
Aacute,
Edieresis,
Egrave,
Iacute,
Icircumflex,
Idieresis,
Igrave,
Oacute,
Ocircumflex,
Ograve,
Uacute,
Ucircumflex,
Ugrave,
dotlessi,
circumflex,
tilde,
macron,
breve,
dotaccent,
ring,
cedilla,
hungarumlaut,
ogonek,
caron,
Lslash,
lslash,
Scaron,
scaron,
Zcaron,
zcaron,
brokenbar,
Eth,
eth,

glyphs = (
{
glyphname = .notdef;
lastChange = "2020-03-13 21:34:11 +0000";
layers = (
{
layerId = "7129FC8E-08C2-4901-BA92-B1D794EB6D8E";
paths = (
{
closed = 1;
nodes = (
"205 1409 LINE",
"205 0 LINE",
"1330 0 LINE",
"1330 1409 LINE",
"205 1409 LINE"
);
},
{
closed = 1;
nodes = (
"281 1333 LINE",
"1254 1333 LINE",
"1254 76 LINE",
"281 76 LINE",
"281 1333 LINE"
);
}
);
width = 1536;
}
);
note = .notdef;
},
{
glyphname = exclam;
lastChange = "2020-03-13 21:34:11 +0000";
layers = (
{
layerId = "7129FC8E-08C2-4901-BA92-B1D794EB6D8E";
paths = (
{
closed = 1;
nodes = (
"455 426 LINE",
"487 1409 LINE",
"193 1409 LINE",
"225 426 LINE",
"455 426 LINE"
);
},
{
closed = 1;
nodes = (
"193 0 LINE",
"481 0 LINE",
"481 270 LINE",
"193 270 LINE",
"193 0 LINE"
);
}
);
width = 682;
}
);
note = exclam;
unicode = 0021;
},
{
glyphname = quotedbl;
lastChange = "2020-03-13 21:34:11 +0000";
layers = (
{
layerId = "7129FC8E-08C2-4901-BA92-B1D794EB6D8E";
paths = (
{
closed = 1;
nodes = (
"807 898 LINE",
"836 1409 LINE",
"561 1409 LINE",
"588 898 LINE",
"807 898 LINE"
);
},
{
closed = 1;
nodes = (
"381 898 LINE",
"408 1409 LINE",
"135 1409 LINE",
"162 898 LINE",
"381 898 LINE"
);
}
);
width = 971;
}
);
note = quotedbl;
unicode = 0022;
},
{
glyphname = numbersign;
lastChange = "2020-03-13 21:34:11 +0000";
layers = (
{
layerId = "7129FC8E-08C2-4901-BA92-B1D794EB6D8E";
paths = (
{
closed = 1;
nodes = (
"909 862 LINE",
"1106 862 LINE",
"1106 1010 LINE",
"942 1010 LINE",
"1026 1395 LINE",
"870 1395 LINE",
"786 1010 LINE",
"479 1010 LINE",
"561 1395 LINE",
"408 1395 LINE",
"324 1010 LINE",
"86 1010 LINE",
"86 862 LINE",
"293 862 LINE",
"223 530 LINE",
"35 530 LINE",
"35 381 LINE",
"190 381 LINE",
"111 0 LINE",
"264 0 LINE",
"344 381 LINE",
"651 381 LINE",
"571 0 LINE",
"727 0 LINE",
"809 381 LINE",
"1055 381 LINE",
"1055 530 LINE",
"840 530 LINE",
"909 862 LINE"
);
},
{
closed = 1;
nodes = (
"449 862 LINE",
"756 862 LINE",
"686 530 LINE",
"377 530 LINE",
"449 862 LINE"
);
}
);
width = 1139;
}
);
note = numbersign;
unicode = 0023;
},
{
glyphname = dollar;
lastChange = "2020-03-13 21:34:11 +0000";
layers = (
{
layerId = "7129FC8E-08C2-4901-BA92-B1D794EB6D8E";
paths = (
{
closed = 1;
nodes = (
"1110 412 LINE",
"1110 600 OFFCURVE",
"1013.167 724 OFFCURVE",
"816.5 788 CURVE SMOOTH",
"718.167 820 OFFCURVE",
"659.333 836 OFFCURVE",
"640 836 CURVE",
"629 838 LINE",
"629 1190 LINE",
"735.667 1175.333 OFFCURVE",
"791 1113 OFFCURVE",
"811 997 CURVE",
"1075 1036 LINE",
"1031 1210.667 OFFCURVE",
"964.167 1295.833 OFFCURVE",
"847.5 1344.5 CURVE SMOOTH",
"789.167 1368.833 OFFCURVE",
"716.333 1382.667 OFFCURVE",
"629 1386 CURVE",
"629 1520 LINE",
"520 1520 LINE",
"520 1386 LINE",
"228 1375.333 OFFCURVE",
"72 1251.333 OFFCURVE",
"72 1030 CURVE SMOOTH",
"72 880.667 OFFCURVE",
"134.5 779.833 OFFCURVE",
"244.5 712.5 CURVE SMOOTH",
"299.5 678.833 OFFCURVE",
"381 649.667 OFFCURVE",
"489 625 CURVE",
"494.333 625 OFFCURVE",
"516 620.667 OFFCURVE",
"520 618 CURVE",
"520 227 LINE",
"380 240.333 OFFCURVE",
"308.333 304.333 OFFCURVE",
"283 455 CURVE",
"27 408 LINE",
"77.667 150.667 OFFCURVE",
"233.333 30.667 OFFCURVE",
"520 20 CURVE",
"520 -152 LINE",
"629 -152 LINE",
"629 23 LINE",
"946.333 35 OFFCURVE",
"1110 170.667 OFFCURVE",
"1110 412 CURVE"
);
},
{
closed = 1;
nodes = (
"520 1194 LINE",
"520 862 LINE",
"422.437 894.521 OFFCURVE",
"374.952 913.381 OFFCURVE",
"349.5 961 CURVE SMOOTH",
"339.167 980.333 OFFCURVE",
"334 1004.667 OFFCURVE",
"334 1034 CURVE SMOOTH",
"334 1131.333 OFFCURVE",
"396 1184.667 OFFCURVE",
"520 1194 CURVE"
);
},
{
closed = 1;
nodes = (
"850 408 LINE",
"850 297.333 OFFCURVE",
"776.333 237 OFFCURVE",
"629 227 CURVE",
"629 594 LINE",
"706.333 572 OFFCURVE",
"756.5 554.333 OFFCURVE",
"779.5 541 CURVE SMOOTH",
"825.5 514.333 OFFCURVE",
"850 474.667 OFFCURVE",
"850 408 CURVE"
);
}
);
width = 1139;
}
);
note = dollar;
unicode = 0024;
},
{
glyphname = percent;
lastChange = "2020-03-13 21:34:11 +0000";
layers = (
{
layerId = "7129FC8E-08C2-4901-BA92-B1D794EB6D8E";
paths = (
{
closed = 1;
nodes = (
"1767 432 LINE",
"1767 728 OFFCURVE",
"1657 881 OFFCURVE",
"1417 881 CURVE SMOOTH",
"1169 881 OFFCURVE",
"1059 730.667 OFFCURVE",
"1059 432 CURVE SMOOTH",
"1059 138.667 OFFCURVE",
"1178.333 -16 OFFCURVE",
"1413 -16 CURVE SMOOTH",
"1645 -16 OFFCURVE",
"1767 141.333 OFFCURVE",
"1767 432 CURVE"
);
},
{
closed = 1;
nodes = (
"552 0 LINE",
"1475 1409 LINE",
"1266 1409 LINE",
"346 0 LINE",
"552 0 LINE"
);
},
{
closed = 1;
nodes = (
"408 1425 LINE",
"161.333 1425 OFFCURVE",
"51 1279.667 OFFCURVE",
"51 977 CURVE SMOOTH",
"51 683.667 OFFCURVE",
"171 528 OFFCURVE",
"403 528 CURVE SMOOTH",
"637.667 528 OFFCURVE",
"760 686.333 OFFCURVE",
"760 977 CURVE SMOOTH",
"760 1273 OFFCURVE",
"646.667 1425 OFFCURVE",
"408 1425 CURVE"
);
},
{
closed = 1;
nodes = (
"1552 432 LINE",
"1552 328.667 OFFCURVE",
"1541.333 254.333 OFFCURVE",
"1520 209 CURVE SMOOTH",
"1498.667 163.667 OFFCURVE",
"1463.667 141 OFFCURVE",
"1415 141 CURVE SMOOTH",
"1365 141 OFFCURVE",
"1329.333 162.833 OFFCURVE",
"1308 206.5 CURVE SMOOTH",
"1286.667 250.167 OFFCURVE",
"1276 325.333 OFFCURVE",
"1276 432 CURVE SMOOTH",
"1276 536.667 OFFCURVE",
"1286.167 612 OFFCURVE",
"1306.5 658 CURVE SMOOTH",
"1326.833 704 OFFCURVE",
"1363.667 727 OFFCURVE",
"1417 727 CURVE SMOOTH",
"1466.333 727 OFFCURVE",
"1501.167 704.333 OFFCURVE",
"1521.5 659 CURVE SMOOTH",
"1541.833 613.667 OFFCURVE",
"1552 538 OFFCURVE",
"1552 432 CURVE"
);
},
{
closed = 1;
nodes = (
"543 977 LINE",
"543 872.333 OFFCURVE",
"532.5 797.333 OFFCURVE",
"511.5 752 CURVE SMOOTH",
"490.5 706.667 OFFCURVE",
"455.333 684 OFFCURVE",
"406 684 CURVE SMOOTH",
"356 684 OFFCURVE",
"320.167 706.5 OFFCURVE",
"298.5 751.5 CURVE SMOOTH",
"276.833 796.5 OFFCURVE",
"266 871.667 OFFCURVE",
"266 977 CURVE SMOOTH",
"266 1082.333 OFFCURVE",
"276.333 1157.5 OFFCURVE",
"297 1202.5 CURVE SMOOTH",
"317.667 1247.5 OFFCURVE",
"354.667 1270 OFFCURVE",
"408 1270 CURVE SMOOTH",
"457.333 1270 OFFCURVE",
"492.167 1247.333 OFFCURVE",
"512.5 1202 CURVE SMOOTH",
"532.833 1156.667 OFFCURVE",
"543 1081.667 OFFCURVE",
"543 977 CURVE"
);
}
);
width = 1821;
}
);
note = percent;
unicode = 0025;
},
{
glyphname = ampersand;
lastChange = "2020-03-13 21:34:11 +0000";
layers = (
{
layerId = "7129FC8E-08C2-4901-BA92-B1D794EB6D8E";
paths = (
{
closed = 1;
nodes = (
"90 385 LINE",
"90 129 OFFCURVE",
"267 -20 OFFCURVE",
"575 -20 CURVE SMOOTH",
"714.333 -20 OFFCURVE",
"840.667 23 OFFCURVE",
"954 109 CURVE",
"1048.667 30.333 OFFCURVE",
"1169.333 -12 OFFCURVE",
"1284 -12 CURVE SMOOTH",
"1334.667 -12 OFFCURVE",
"1378.333 -4.667 OFFCURVE",
"1415 10 CURVE",
"1415 213 LINE",
"1380.333 202.333 OFFCURVE",
"1341.333 197 OFFCURVE",
"1298 197 CURVE SMOOTH",
"1236.667 197 OFFCURVE",
"1177.333 221.333 OFFCURVE",
"1120 270 CURVE",
"1203.333 394.667 OFFCURVE",
"1267.667 534.667 OFFCURVE",
"1313 690 CURVE",
"1104 760 LINE",
"1068 623.333 OFFCURVE",
"1015.333 502.333 OFFCURVE",
"946 397 CURVE",
"849.333 504.333 OFFCURVE",
"768 616.333 OFFCURVE",
"702 733 CURVE",
"816 786.333 OFFCURVE",
"896.833 830.667 OFFCURVE",
"944.5 866 CURVE SMOOTH",
"1039.833 936.667 OFFCURVE",
"1094 1017.333 OFFCURVE",
"1094 1120 CURVE SMOOTH",
"1094 1302.667 OFFCURVE",
"955 1417 OFFCURVE",
"731 1417 CURVE SMOOTH",
"489.667 1417 OFFCURVE",
"354 1300 OFFCURVE",
"354 1092 CURVE SMOOTH",
"354 1006 OFFCURVE",
"378.667 913 OFFCURVE",
"428 813 CURVE",
"193.333 703.667 OFFCURVE",
"90 565 OFFCURVE",
"90 385 CURVE"
);
},
{
closed = 1;
nodes = (
"870 1118 LINE",
"870 1059.333 OFFCURVE",
"836.167 1014.333 OFFCURVE",
"775.5 973 CURVE SMOOTH",
"745.167 952.333 OFFCURVE",
"695 927 OFFCURVE",
"625 897 CURVE",
"589 967.667 OFFCURVE",
"571 1032 OFFCURVE",
"571 1090 CURVE SMOOTH",
"571 1184.667 OFFCURVE",
"626.333 1247 OFFCURVE",
"729 1247 CURVE SMOOTH",
"815.667 1247 OFFCURVE",
"870 1194 OFFCURVE",
"870 1118 CURVE"
);
},
{
closed = 1;
nodes = (
"788 246 LINE",
"745.333 208.667 OFFCURVE",
"672.667 170 OFFCURVE",
"586 170 CURVE SMOOTH",
"436.667 170 OFFCURVE",
"344 257 OFFCURVE",
"344 389 CURVE SMOOTH",
"344 491 OFFCURVE",
"401.333 569 OFFCURVE",
"516 623 CURVE",
"586.667 495 OFFCURVE",
"677.333 369.333 OFFCURVE",
"788 246 CURVE"
);
}
);
width = 1479;
}
);
note = ampersand;
unicode = 0026;
},
{
glyphname = quotesingle;
lastChange = "2020-03-13 21:34:11 +0000";
layers = (
{
layerId = "7129FC8E-08C2-4901-BA92-B1D794EB6D8E";
paths = (
{
closed = 1;
nodes = (
"354 898 LINE",
"381 1409 LINE",
"109 1409 LINE",
"135 898 LINE",
"354 898 LINE"
);
}
);
width = 487;
}
);
note = quotesingle;
unicode = 0027;
},
{
glyphname = parenleft;
lastChange = "2020-03-13 21:34:11 +0000";
layers = (
{
layerId = "7129FC8E-08C2-4901-BA92-B1D794EB6D8E";
paths = (
{
closed = 1;
nodes = (
"399 -425 LINE",
"680 -425 LINE",
"468 -114.333 OFFCURVE",
"379 166 OFFCURVE",
"379 530 CURVE SMOOTH",
"379 895.333 OFFCURVE",
"469.333 1180 OFFCURVE",
"680 1484 CURVE",
"399 1484 LINE",
"189.667 1184 OFFCURVE",
"102 903 OFFCURVE",
"102 531 CURVE SMOOTH",
"102 157.667 OFFCURVE",
"189.667 -123.667 OFFCURVE",
"399 -425 CURVE"
);
}
);
width = 682;
}
);
note = parenleft;
unicode = 0028;
},
{
glyphname = parenright;
lastChange = "2020-03-13 21:34:11 +0000";
layers = (
{
layerId = "7129FC8E-08C2-4901-BA92-B1D794EB6D8E";
paths = (
{
closed = 1;
nodes = (
"2 -425 LINE",
"283 -425 LINE",
"493.667 -121 OFFCURVE",
"580 160.333 OFFCURVE",
"580 531 CURVE SMOOTH",
"580 899 OFFCURVE",
"493.667 1181.333 OFFCURVE",
"283 1484 CURVE",
"2 1484 LINE",
"211.333 1182.667 OFFCURVE",
"303 896.667 OFFCURVE",
"303 530 CURVE SMOOTH",
"303 164.667 OFFCURVE",
"215.333 -113 OFFCURVE",
"2 -425 CURVE"
);
}
);
width = 682;
}
);
note = parenright;
unicode = 0029;
},
{
glyphname = asterisk;
lastChange = "2020-03-13 21:34:11 +0000";
layers = (
{
layerId = "7129FC8E-08C2-4901-BA92-B1D794EB6D8E";
paths = (
{
closed = 1;
nodes = (
"492 1135 LINE",
"510 1409 LINE",
"295 1409 LINE",
"313 1135 LINE",
"74 1239 LINE",
"6 1042 LINE",
"256 981 LINE",
"66 770 LINE",
"252 647 LINE",
"401 899 LINE",
"547 647 LINE",
"731 768 LINE",
"545 981 LINE",
"795 1042 LINE",
"727 1239 LINE",
"492 1135 LINE"
);
}
);
width = 797;
}
);
note = asterisk;
unicode = 002A;
},
{
glyphname = plus;
lastChange = "2020-03-13 21:34:11 +0000";
layers = (
{
layerId = "7129FC8E-08C2-4901-BA92-B1D794EB6D8E";
paths = (
{
closed = 1;
nodes = (
"711 569 LINE",
"1113 569 LINE",
"1113 793 LINE",
"711 793 LINE",
"711 1201 LINE",
"485 1201 LINE",
"485 793 LINE",
"86 793 LINE",
"86 569 LINE",
"485 569 LINE",
"485 161 LINE",
"711 161 LINE",
"711 569 LINE"
);
}
);
width = 1196;
}
);
note = plus;
unicode = 002B;
},
{
glyphname = comma;
lastChange = "2020-03-13 21:34:11 +0000";
layers = (
{
layerId = "7129FC8E-08C2-4901-BA92-B1D794EB6D8E";
paths = (
{
closed = 1;
nodes = (
"432 66 LINE",
"432 305 LINE",
"143 305 LINE",
"143 0 LINE",
"272 0 LINE",
"272 -101.333 OFFCURVE",
"217.667 -222.333 OFFCURVE",
"139 -317 CURVE",
"324 -317 LINE",
"400 -211.667 OFFCURVE",
"432 -94 OFFCURVE",
"432 66 CURVE"
);
}
);
width = 569;
}
);
note = comma;
unicode = 002C;
},
{
glyphname = hyphen;
lastChange = "2020-03-13 21:34:11 +0000";
layers = (
{
layerId = "7129FC8E-08C2-4901-BA92-B1D794EB6D8E";
paths = (
{
closed = 1;
nodes = (
"80 409 LINE",
"600 409 LINE",
"600 653 LINE",
"80 653 LINE",
"80 409 LINE"
);
}
);
width = 682;
}
);
note = hyphen;
unicode = "002D,00AD";
},
{
glyphname = period;
lastChange = "2020-03-13 21:34:11 +0000";
layers = (
{
layerId = "7129FC8E-08C2-4901-BA92-B1D794EB6D8E";
paths = (
{
closed = 1;
nodes = (
"139 0 LINE",
"428 0 LINE",
"428 305 LINE",
"139 305 LINE",
"139 0 LINE"
);
}
);
width = 569;
}
);
note = period;
unicode = 002E;
},
{
glyphname = slash;
lastChange = "2020-03-13 21:34:11 +0000";
layers = (
{
layerId = "7129FC8E-08C2-4901-BA92-B1D794EB6D8E";
paths = (
{
closed = 1;
nodes = (
"20 -41 LINE",
"263 -41 LINE",
"549 1484 LINE",
"311 1484 LINE",
"20 -41 LINE"
);
}
);
width = 569;
}
);
note = slash;
unicode = 002F;
},
{
glyphname = zero;
lastChange = "2020-03-13 21:34:11 +0000";
layers = (
{
layerId = "7129FC8E-08C2-4901-BA92-B1D794EB6D8E";
paths = (
{
closed = 1;
nodes = (
"1055 705 LINE",
"1055 1189 OFFCURVE",
"906.333 1430 OFFCURVE",
"573 1430 CURVE SMOOTH",
"341 1430 OFFCURVE",
"204.667 1331.333 OFFCURVE",
"134 1118 CURVE SMOOTH",
"98.667 1011.333 OFFCURVE",
"81 873.667 OFFCURVE",
"81 705 CURVE SMOOTH",
"81 221.667 OFFCURVE",
"242.333 -20 OFFCURVE",
"565 -20 CURVE SMOOTH",
"891.667 -20 OFFCURVE",
"1055 229 OFFCURVE",
"1055 705 CURVE"
);
},
{
closed = 1;
nodes = (
"773 705 LINE",
"773 580.333 OFFCURVE",
"766.5 481.667 OFFCURVE",
"753.5 409 CURVE SMOOTH",
"727.5 263.667 OFFCURVE",
"673.667 201 OFFCURVE",
"567 201 CURVE SMOOTH",
"459 201 OFFCURVE",
"407.5 258.833 OFFCURVE",
"381.5 403.5 CURVE SMOOTH",
"368.5 475.833 OFFCURVE",
"362 576.333 OFFCURVE",
"362 705 CURVE SMOOTH",
"362 835 OFFCURVE",
"368.167 935.833 OFFCURVE",
"380.5 1007.5 CURVE SMOOTH",
"405.167 1150.833 OFFCURVE",
"457.667 1210 OFFCURVE",
"571 1210 CURVE SMOOTH",
"677.667 1210 OFFCURVE",
"728.667 1152 OFFCURVE",
"754 1008 CURVE SMOOTH",
"766.667 936 OFFCURVE",
"773 835 OFFCURVE",
"773 705 CURVE"
);
}
);
width = 1139;
}
);
note = zero;
unicode = 0030;
},
{
glyphname = one;
lastChange = "2020-03-13 21:34:11 +0000";
layers = (
{
layerId = "7129FC8E-08C2-4901-BA92-B1D794EB6D8E";
paths = (
{
closed = 1;
nodes = (
"129 0 LINE",
"1082 0 LINE",
"1082 209 LINE",
"759 209 LINE",
"759 1409 LINE",
"493 1409 LINE",
"140 1180 LINE",
"140 959 LINE",
"478 1170 LINE",
"478 209 LINE",
"129 209 LINE",
"129 0 LINE"
);
}
);
width = 1139;
}
);
note = one;
unicode = 0031;
},
{
glyphname = two;
lastChange = "2020-03-13 21:34:11 +0000";
layers = (
{
layerId = "7129FC8E-08C2-4901-BA92-B1D794EB6D8E";
paths = (
{
closed = 1;
nodes = (
"71 0 LINE",
"1057 0 LINE",
"1057 231 LINE",
"403 231 LINE",
"440.333 317.667 OFFCURVE",
"522.667 391.333 OFFCURVE",
"616 466 CURVE SMOOTH",
"662.667 503.333 OFFCURVE",
"710.833 541.667 OFFCURVE",
"760.5 581 CURVE SMOOTH",
"859.833 659.667 OFFCURVE",
"944 748.333 OFFCURVE",
"996 855 CURVE SMOOTH",
"1022 908.333 OFFCURVE",
"1035 968 OFFCURVE",
"1035 1034 CURVE SMOOTH",
"1035 1284.667 OFFCURVE",
"867 1430 OFFCURVE",
"563 1430 CURVE SMOOTH",
"281.667 1430 OFFCURVE",
"115 1289.333 OFFCURVE",
"83 1028 CURVE",
"366 1012 LINE",
"384.667 1141.333 OFFCURVE",
"445 1206 OFFCURVE",
"565 1206 CURVE SMOOTH",
"688.333 1206 OFFCURVE",
"750 1144.667 OFFCURVE",
"750 1022 CURVE SMOOTH",
"750 972 OFFCURVE",
"730.167 921 OFFCURVE",
"690.5 869 CURVE SMOOTH",
"650.833 817 OFFCURVE",
"581.667 751 OFFCURVE",
"483 671 CURVE SMOOTH",
"277.667 504.333 OFFCURVE",
"144.333 356.333 OFFCURVE",
"71 195 CURVE",
"71 0 LINE"
);
}
);
width = 1139;
}
);
note = two;
unicode = 0032;
},
{
glyphname = three;
lastChange = "2020-03-13 21:34:11 +0000";
layers = (
{
layerId = "7129FC8E-08C2-4901-BA92-B1D794EB6D8E";
paths = (
{
closed = 1;
nodes = (
"1065 391 LINE",
"1065 572.333 OFFCURVE",
"944 695.667 OFFCURVE",
"728 721 CURVE",
"728 725 LINE",
"922.667 762.333 OFFCURVE",
"1029 879 OFFCURVE",
"1029 1055 CURVE SMOOTH",
"1029 1289.667 OFFCURVE",
"853.667 1430 OFFCURVE",
"559 1430 CURVE SMOOTH",
"281.667 1430 OFFCURVE",
"100.333 1284.667 OFFCURVE",
"71 1042 CURVE",
"352 1022 LINE",
"362.667 1139.333 OFFCURVE",
"438 1206 OFFCURVE",
"554 1206 CURVE SMOOTH",
"678 1206 OFFCURVE",
"744 1136 OFFCURVE",
"744 1020 CURVE SMOOTH",
"744 897.333 OFFCURVE",
"662.333 829 OFFCURVE",
"501 829 CURVE SMOOTH",
"409 829 LINE",
"409 602 LINE",
"507 602 LINE SMOOTH",
"685.667 602 OFFCURVE",
"777 533.333 OFFCURVE",
"777 408 CURVE SMOOTH",
"777 270.667 OFFCURVE",
"698.667 205 OFFCURVE",
"564 205 CURVE SMOOTH",
"428 205 OFFCURVE",
"351 272.667 OFFCURVE",
"333 408 CURVE",
"47 383 LINE",
"77.667 120.333 OFFCURVE",
"262.333 -23 OFFCURVE",
"565 -23 CURVE SMOOTH",
"885 -23 OFFCURVE",
"1065 127 OFFCURVE",
"1065 391 CURVE"
);
}
);
width = 1139;
}
);
note = three;
unicode = 0033;
},
{
glyphname = four;
lastChange = "2020-03-13 21:34:11 +0000";
layers = (
{
layerId = "7129FC8E-08C2-4901-BA92-B1D794EB6D8E";
paths = (
{
closed = 1;
nodes = (
"940 287 LINE",
"1128 287 LINE",
"1128 496 LINE",
"940 496 LINE",
"940 1409 LINE",
"626 1409 LINE",
"31 498 LINE",
"31 287 LINE",
"672 287 LINE",
"672 0 LINE",
"940 0 LINE",
"940 287 LINE"
);
},
{
closed = 1;
nodes = (
"672 957 LINE",
"672 496 LINE",
"260 496 LINE",
"587 993 LINE SMOOTH",
"632.333 1063.667 OFFCURVE",
"663.667 1117.667 OFFCURVE",
"681 1155 CURVE",
"678.333 1131 OFFCURVE",
"672 1029 OFFCURVE",
"672 957 CURVE"
);
}
);
width = 1139;
}
);
note = four;
unicode = 0034;
},
{
glyphname = five;
lastChange = "2020-03-13 21:34:11 +0000";
layers = (
{
layerId = "7129FC8E-08C2-4901-BA92-B1D794EB6D8E";
paths = (
{
closed = 1;
nodes = (
"1082 469 LINE",
"1082 755.667 OFFCURVE",
"908 934 OFFCURVE",
"640 934 CURVE SMOOTH",
"538 934 OFFCURVE",
"453 904 OFFCURVE",
"385 844 CURVE",
"408 1200 LINE",
"1000 1200 LINE",
"1000 1409 LINE",
"153 1409 LINE",
"104 616 LINE",
"378 616 LINE",
"427.333 676.667 OFFCURVE",
"491 707 OFFCURVE",
"569 707 CURVE SMOOTH",
"710.333 707 OFFCURVE",
"793 611 OFFCURVE",
"793 463 CURVE SMOOTH",
"793 295 OFFCURVE",
"703 203 OFFCURVE",
"563 203 CURVE SMOOTH",
"449.667 203 OFFCURVE",
"373.333 255 OFFCURVE",
"344 375 CURVE",
"63 352 LINE",
"103 110.667 OFFCURVE",
"277.333 -20 OFFCURVE",
"560 -20 CURVE SMOOTH",
"884 -20 OFFCURVE",
"1082 170.333 OFFCURVE",
"1082 469 CURVE"
);
}
);
width = 1139;
}
);
note = five;
unicode = 0035;
},
{
glyphname = six;
lastChange = "2020-03-13 21:34:11 +0000";
layers = (
{
layerId = "7129FC8E-08C2-4901-BA92-B1D794EB6D8E";
paths = (
{
closed = 1;
nodes = (
"1065 461 LINE",
"1065 735.667 OFFCURVE",
"908 907 OFFCURVE",
"656 907 CURVE SMOOTH",
"521.333 907 OFFCURVE",
"410 852 OFFCURVE",
"350 752 CURVE",
"350 1058.667 OFFCURVE",
"441.333 1208 OFFCURVE",
"592 1208 CURVE SMOOTH",
"680 1208 OFFCURVE",
"736.667 1161.667 OFFCURVE",
"762 1069 CURVE",
"1027 1106 LINE",
"969.667 1327.333 OFFCURVE",
"836.667 1430 OFFCURVE",
"598 1430 CURVE SMOOTH",
"262 1430 OFFCURVE",
"75 1174.667 OFFCURVE",
"75 672 CURVE SMOOTH",
"75 214.667 OFFCURVE",
"259 -20 OFFCURVE",
"591 -20 CURVE SMOOTH",
"887 -20 OFFCURVE",
"1065 161 OFFCURVE",
"1065 461 CURVE"
);
},
{
closed = 1;
nodes = (
"783 453 LINE",
"783 294.333 OFFCURVE",
"708.667 199 OFFCURVE",
"582 199 CURVE SMOOTH",
"455.333 199 OFFCURVE",
"370 319 OFFCURVE",
"370 483 CURVE SMOOTH",
"370 613.667 OFFCURVE",
"451 700 OFFCURVE",
"575 700 CURVE SMOOTH",
"704.333 700 OFFCURVE",
"783 613 OFFCURVE",
"783 453 CURVE"
);
}
);
width = 1139;
}
);
note = six;
unicode = 0036;
},
{
glyphname = seven;
lastChange = "2020-03-13 21:34:11 +0000";
layers = (
{
layerId = "7129FC8E-08C2-4901-BA92-B1D794EB6D8E";
paths = (
{
closed = 1;
nodes = (
"1049 1186 LINE",
"1049 1409 LINE",
"88 1409 LINE",
"88 1178 LINE",
"788 1178 LINE",
"482.667 735.333 OFFCURVE",
"400.333 559.833 OFFCURVE",
"339 340.5 CURVE SMOOTH",
"308.333 230.833 OFFCURVE",
"293 117.333 OFFCURVE",
"293 0 CURVE",
"586 0 LINE",
"586 224 OFFCURVE",
"638 421.5 OFFCURVE",
"722 611.5 CURVE SMOOTH",
"806 801.5 OFFCURVE",
"922.333 986 OFFCURVE",
"1049 1186 CURVE"
);
}
);
width = 1139;
}
);
note = seven;
unicode = 0037;
},
{
glyphname = eight;
lastChange = "2020-03-13 21:34:11 +0000";
layers = (
{
layerId = "7129FC8E-08C2-4901-BA92-B1D794EB6D8E";
paths = (
{
closed = 1;
nodes = (
"1076 397 LINE",
"1076 585 OFFCURVE",
"966.333 709.667 OFFCURVE",
"785 739 CURVE",
"785 743 LINE",
"941 773.667 OFFCURVE",
"1041 901.667 OFFCURVE",
"1041 1055 CURVE SMOOTH",
"1041 1295 OFFCURVE",
"872.333 1430 OFFCURVE",
"567 1430 CURVE SMOOTH",
"268.333 1430 OFFCURVE",
"98 1287.667 OFFCURVE",
"98 1057 CURVE SMOOTH",
"98 903.667 OFFCURVE",
"200 774.333 OFFCURVE",
"352 741 CURVE",
"352 737 LINE",
"177.333 707.667 OFFCURVE",
"65 575 OFFCURVE",
"65 395 CURVE SMOOTH",
"65 132.333 OFFCURVE",
"249.667 -20 OFFCURVE",
"571 -20 CURVE SMOOTH",
"895 -20 OFFCURVE",
"1076 133 OFFCURVE",
"1076 397 CURVE"
);
},
{
closed = 1;
nodes = (
"752 1040 LINE",
"752 896 OFFCURVE",
"691.667 838 OFFCURVE",
"569 838 CURVE SMOOTH",
"446.333 838 OFFCURVE",
"385 905.333 OFFCURVE",
"385 1040 CURVE SMOOTH",
"385 1168.667 OFFCURVE",
"445.667 1233 OFFCURVE",
"567 1233 CURVE SMOOTH",
"691 1233 OFFCURVE",
"752 1173.333 OFFCURVE",
"752 1040 CURVE"
);
},
{
closed = 1;
nodes = (
"785 420 LINE",
"785 249.333 OFFCURVE",
"718.333 178 OFFCURVE",
"573 178 CURVE SMOOTH",
"425 178 OFFCURVE",
"354 250.667 OFFCURVE",
"354 416 CURVE SMOOTH",
"354 561.333 OFFCURVE",
"429 641 OFFCURVE",
"565 641 CURVE SMOOTH",
"711.667 641 OFFCURVE",
"785 567.333 OFFCURVE",
"785 420 CURVE"
);
}
);
width = 1139;
}
);
note = eight;
unicode = 0038;
},
{
glyphname = nine;
lastChange = "2020-03-13 21:34:11 +0000";
layers = (
{
layerId = "7129FC8E-08C2-4901-BA92-B1D794EB6D8E";
paths = (
{
closed = 1;
nodes = (
"1063 727 LINE",
"1063 1196.333 OFFCURVE",
"900.333 1430 OFFCURVE",
"563 1430 CURVE SMOOTH",
"249.667 1430 OFFCURVE",
"71 1254 OFFCURVE",
"71 958 CURVE SMOOTH",
"71 670 OFFCURVE",
"228 489 OFFCURVE",
"476 489 CURVE SMOOTH",
"609.333 489 OFFCURVE",
"736.333 549 OFFCURVE",
"787 649 CURVE",
"784.333 353 OFFCURVE",
"697.333 201 OFFCURVE",
"540 201 CURVE SMOOTH",
"446 201 OFFCURVE",
"386 250 OFFCURVE",
"360 348 CURVE",
"96 311 LINE",
"154.667 81.667 OFFCURVE",
"289 -20 OFFCURVE",
"537 -20 CURVE SMOOTH",
"873 -20 OFFCURVE",
"1063 227 OFFCURVE",
"1063 727 CURVE"
);
},
{
closed = 1;
nodes = (
"766 924 LINE",
"766 786.667 OFFCURVE",
"677 698 OFFCURVE",
"557 698 CURVE SMOOTH",
"430.333 698 OFFCURVE",
"356 800 OFFCURVE",
"356 956 CURVE SMOOTH",
"356 1114.667 OFFCURVE",
"432 1210 OFFCURVE",
"556 1210 CURVE SMOOTH",
"682.667 1210 OFFCURVE",
"766 1098.667 OFFCURVE",
"766 924 CURVE"
);
}
);
width = 1139;
}
);
note = nine;
unicode = 0039;
},
{
glyphname = colon;
lastChange = "2020-03-13 21:34:11 +0000";
layers = (
{
layerId = "7129FC8E-08C2-4901-BA92-B1D794EB6D8E";
paths = (
{
closed = 1;
nodes = (
"197 752 LINE",
"485 752 LINE",
"485 1034 LINE",
"197 1034 LINE",
"197 752 LINE"
);
},
{
closed = 1;
nodes = (
"197 0 LINE",
"485 0 LINE",
"485 281 LINE",
"197 281 LINE",
"197 0 LINE"
);
}
);
width = 682;
}
);
note = colon;
unicode = 003A;
},
{
glyphname = semicolon;
lastChange = "2020-03-13 21:34:11 +0000";
layers = (
{
layerId = "7129FC8E-08C2-4901-BA92-B1D794EB6D8E";
paths = (
{
closed = 1;
nodes = (
"199 752 LINE",
"487 752 LINE",
"487 1034 LINE",
"199 1034 LINE",
"199 752 LINE"
);
},
{
closed = 1;
nodes = (
"487 66 LINE",
"487 281 LINE",
"199 281 LINE",
"199 0 LINE",
"328 0 LINE",
"328 -94.667 OFFCURVE",
"280.333 -209 OFFCURVE",
"195 -317 CURVE",
"379 -317 LINE",
"455 -211.667 OFFCURVE",
"487 -94 OFFCURVE",
"487 66 CURVE"
);
}
);
width = 682;
}
);
note = semicolon;
unicode = "003B,037E";
},
{
glyphname = less;
lastChange = "2020-03-13 21:34:11 +0000";
layers = (
{
layerId = "7129FC8E-08C2-4901-BA92-B1D794EB6D8E";
paths = (
{
closed = 1;
nodes = (
"86 516 LINE",
"1113 125 LINE",
"1113 352 LINE",
"280 676 LINE",
"1113 1001 LINE",
"1113 1229 LINE",
"86 838 LINE",
"86 516 LINE"
);
}
);
width = 1196;
}
);
note = less;
unicode = 003C;
},
{
glyphname = equal;
lastChange = "2020-03-13 21:34:11 +0000";
layers = (
{
layerId = "7129FC8E-08C2-4901-BA92-B1D794EB6D8E";
paths = (
{
closed = 1;
nodes = (
"85 842 LINE",
"1112 842 LINE",
"1112 1065 LINE",
"85 1065 LINE",
"85 842 LINE"
);
},
{
closed = 1;
nodes = (
"85 291 LINE",
"1112 291 LINE",
"1112 512 LINE",
"85 512 LINE",
"85 291 LINE"
);
}
);
width = 1196;
}
);
note = equal;
unicode = 003D;
},
{
glyphname = greater;
lastChange = "2020-03-13 21:34:11 +0000";
layers = (
{
layerId = "7129FC8E-08C2-4901-BA92-B1D794EB6D8E";
paths = (
{
closed = 1;
nodes = (
"86 125 LINE",
"1113 516 LINE",
"1113 838 LINE",
"86 1229 LINE",
"86 1001 LINE",
"918 676 LINE",
"86 352 LINE",
"86 125 LINE"
);
}
);
width = 1196;
}
);
note = greater;
unicode = 003E;
},
{
glyphname = question;
lastChange = "2020-03-13 21:34:11 +0000";
layers = (
{
layerId = "7129FC8E-08C2-4901-BA92-B1D794EB6D8E";
paths = (
{
closed = 1;
nodes = (
"1133 1026 LINE",
"1133 1278 OFFCURVE",
"941 1430 OFFCURVE",
"625 1430 CURVE SMOOTH",
"326.333 1430 OFFCURVE",
"130 1271.667 OFFCURVE",
"94 1001 CURVE",
"379 989 LINE",
"395 1118.333 OFFCURVE",
"494.333 1204 OFFCURVE",
"629 1204 CURVE SMOOTH",
"770.333 1204 OFFCURVE",
"850 1131.333 OFFCURVE",
"850 1014 CURVE SMOOTH",
"850 922 OFFCURVE",
"797.667 856.667 OFFCURVE",
"655 758 CURVE SMOOTH",
"521.667 664.667 OFFCURVE",
"454 562 OFFCURVE",
"446 426 CURVE",
"713 426 LINE",
"717 506 OFFCURVE",
"760.333 569.667 OFFCURVE",
"851 635 CURVE SMOOTH",
"927 690 LINE SMOOTH",
"1085.667 803.333 OFFCURVE",
"1133 896.667 OFFCURVE",
"1133 1026 CURVE"
);
},
{
closed = 1;
nodes = (
"438 0 LINE",
"727 0 LINE",
"727 270 LINE",
"438 270 LINE",
"438 0 LINE"
);
}
);
width = 1251;
}
);
note = question;
unicode = 003F;
},
{
glyphname = at;
lastChange = "2020-03-13 21:34:11 +0000";
layers = (
{
layerId = "7129FC8E-08C2-4901-BA92-B1D794EB6D8E";
paths = (
{
closed = 1;
nodes = (
"1878 725 LINE",
"1878 1015.667 OFFCURVE",
"1750.333 1242.833 OFFCURVE",
"1513 1363.5 CURVE SMOOTH",
"1394.333 1423.833 OFFCURVE",
"1254 1454 OFFCURVE",
"1092 1454 CURVE SMOOTH",
"724 1454 OFFCURVE",
"412.167 1278.333 OFFCURVE",
"243.5 973 CURVE SMOOTH",
"159.167 820.333 OFFCURVE",
"117 649.667 OFFCURVE",
"117 461 CURVE SMOOTH",
"117 150.333 OFFCURVE",
"258.167 -101.167 OFFCURVE",
"497.5 -228.5 CURVE SMOOTH",
"617.167 -292.167 OFFCURVE",
"755.667 -324 OFFCURVE",
"913 -324 CURVE SMOOTH",
"1138.333 -324 OFFCURVE",
"1347 -273.667 OFFCURVE",
"1571 -147 CURVE",
"1509 -25 LINE",
"1312.333 -128.333 OFFCURVE",
"1116 -180 OFFCURVE",
"920 -180 CURVE SMOOTH",
"661.333 -180 OFFCURVE",
"464.5 -78.167 OFFCURVE",
"358.5 118.5 CURVE SMOOTH",
"305.5 216.833 OFFCURVE",
"279 331 OFFCURVE",
"279 461 CURVE SMOOTH",
"279 789 OFFCURVE",
"427 1068 OFFCURVE",
"671 1208 CURVE SMOOTH",
"793 1278 OFFCURVE",
"934 1313 OFFCURVE",
"1094 1313 CURVE SMOOTH",
"1348.667 1313 OFFCURVE",
"1547.5 1211.833 OFFCURVE",
"1649.5 1032.5 CURVE SMOOTH",
"1700.5 942.833 OFFCURVE",
"1726 839.667 OFFCURVE",
"1726 723 CURVE SMOOTH",
"1726 536.333 OFFCURVE",
"1665.333 373.167 OFFCURVE",
"1568 280.5 CURVE SMOOTH",
"1519.333 234.167 OFFCURVE",
"1468.333 211 OFFCURVE",
"1415 211 CURVE SMOOTH",
"1373.667 211 OFFCURVE",
"1337 236.333 OFFCURVE",
"1337 303 CURVE SMOOTH",
"1337 348.333 OFFCURVE",
"1349.333 428.333 OFFCURVE",
"1374 543 CURVE SMOOTH",
"1491 1049 LINE",
"1335 1049 LINE",
"1296 897 LINE",
"1290 897 LINE",
"1244 1013 OFFCURVE",
"1156 1071 OFFCURVE",
"1026 1071 CURVE SMOOTH",
"836.667 1071 OFFCURVE",
"676.5 955.667 OFFCURVE",
"590.5 765 CURVE SMOOTH",
"547.5 669.667 OFFCURVE",
"526 567.667 OFFCURVE",
"526 459 CURVE SMOOTH",
"526 216.333 OFFCURVE",
"646.667 74 OFFCURVE",
"856 74 CURVE SMOOTH",
"993.333 74 OFFCURVE",
"1139.333 173 OFFCURVE",
"1206 313 CURVE",
"1212 313 LINE",
"1208 293 OFFCURVE",
"1206 270.667 OFFCURVE",
"1206 246 CURVE SMOOTH",
"1206 138 OFFCURVE",
"1274.333 74 OFFCURVE",
"1397 74 CURVE SMOOTH",
"1570.333 74 OFFCURVE",
"1729.833 193 OFFCURVE",
"1814.5 393 CURVE SMOOTH",
"1856.833 493 OFFCURVE",
"1878 603.667 OFFCURVE",
"1878 725 CURVE"
);
},
{
closed = 1;
nodes = (
"1231 721 LINE",
"1231 641 OFFCURVE",
"1194.333 484.5 OFFCURVE",
"1129 378.5 CURVE SMOOTH",
"1063.667 272.5 OFFCURVE",
"977 215 OFFCURVE",
"889 215 CURVE SMOOTH",
"755.667 215 OFFCURVE",
"692 309 OFFCURVE",
"692 461 CURVE SMOOTH",
"692 622.333 OFFCURVE",
"750.167 790.167 OFFCURVE",
"849.5 873.5 CURVE SMOOTH",
"899.167 915.167 OFFCURVE",
"955.333 936 OFFCURVE",
"1018 936 CURVE SMOOTH",
"1143.333 936 OFFCURVE",
"1231 847.667 OFFCURVE",
"1231 721 CURVE"
);
}
);
width = 1997;
}
);
note = at;
unicode = 0040;
},
{
glyphname = A;
lastChange = "2020-03-13 21:34:11 +0000";
layers = (
{
layerId = "7129FC8E-08C2-4901-BA92-B1D794EB6D8E";
paths = (
{
closed = 1;
nodes = (
"1133 0 LINE",
"1425 0 LINE",
"913 1409 LINE",
"565 1409 LINE",
"51 0 LINE",
"346 0 LINE",
"471 360 LINE",
"1008 360 LINE",
"1133 0 LINE"
);
},
{
closed = 1;
nodes = (
"942 582 LINE",
"537 582 LINE",
"642.333 888.667 OFFCURVE",
"699.667 1057.333 OFFCURVE",
"709 1088 CURVE SMOOTH",
"718.333 1118.667 OFFCURVE",
"728.333 1153.333 OFFCURVE",
"739 1192 CURVE",
"803 987 LINE",
"942 582 LINE"
);
}
);
width = 1479;
}
);
note = A;
unicode = 0041;
},
{
glyphname = B;
lastChange = "2020-03-13 21:34:11 +0000";
layers = (
{
layerId = "7129FC8E-08C2-4901-BA92-B1D794EB6D8E";
paths = (
{
closed = 1;
nodes = (
"1386 402 LINE",
"1386 594 OFFCURVE",
"1264 714.333 OFFCURVE",
"1036 741 CURVE",
"1217.333 779.667 OFFCURVE",
"1305 895 OFFCURVE",
"1305 1055 CURVE SMOOTH",
"1305 1288.333 OFFCURVE",
"1126 1409 OFFCURVE",
"782 1409 CURVE SMOOTH",
"137 1409 LINE",
"137 0 LINE",
"842 0 LINE SMOOTH",
"1183.333 0 OFFCURVE",
"1386 146 OFFCURVE",
"1386 402 CURVE"
);
},
{
closed = 1;
nodes = (
"1008 1015 LINE",
"1008 899 OFFCURVE",
"936.667 841 OFFCURVE",
"770 841 CURVE SMOOTH",
"432 841 LINE",
"432 1190 LINE",
"768 1190 LINE SMOOTH",
"926.667 1190 OFFCURVE",
"1008 1141.667 OFFCURVE",
"1008 1015 CURVE"
);
},
{
closed = 1;
nodes = (
"1090 425 LINE",
"1090 287.667 OFFCURVE",
"1006.333 219 OFFCURVE",
"817 219 CURVE SMOOTH",
"432 219 LINE",
"432 623 LINE",
"806 623 LINE SMOOTH",
"995.333 623 OFFCURVE",
"1090 557 OFFCURVE",
"1090 425 CURVE"
);
}
);
width = 1479;
}
);
note = B;
unicode = 0042;
},
{
glyphname = C;
lastChange = "2020-03-13 21:34:11 +0000";
layers = (
{
layerId = "7129FC8E-08C2-4901-BA92-B1D794EB6D8E";
paths = (
{
closed = 1;
nodes = (
"795 212 LINE",
"527 212 OFFCURVE",
"381 387 OFFCURVE",
"381 711 CURVE SMOOTH",
"381 1029.667 OFFCURVE",
"521.333 1198 OFFCURVE",
"788 1198 CURVE SMOOTH",
"962.667 1198 OFFCURVE",
"1101 1108.333 OFFCURVE",
"1145 967 CURVE",
"1405 1038 LINE",
"1321 1295.333 OFFCURVE",
"1112.667 1430 OFFCURVE",
"782 1430 CURVE SMOOTH",
"328.667 1430 OFFCURVE",
"84 1173.667 OFFCURVE",
"84 711 CURVE SMOOTH",
"84 249.667 OFFCURVE",
"341.667 -20 OFFCURVE",
"795 -20 CURVE SMOOTH",
"1093.667 -20 OFFCURVE",
"1312.333 111 OFFCURVE",
"1423 383 CURVE",
"1166 480 LINE",
"1096.667 301.333 OFFCURVE",
"973 212 OFFCURVE",
"795 212 CURVE"
);
}
);
width = 1479;
}
);
note = C;
unicode = 0043;
},
{
glyphname = D;
lastChange = "2020-03-13 21:34:11 +0000";
layers = (
{
layerId = "7129FC8E-08C2-4901-BA92-B1D794EB6D8E";
paths = (
{
closed = 1;
nodes = (
"1393 715 LINE",
"1393 1161.667 OFFCURVE",
"1121.667 1409 OFFCURVE",
"647 1409 CURVE SMOOTH",
"137 1409 LINE",
"137 0 LINE",
"707 0 LINE SMOOTH",
"976.333 0 OFFCURVE",
"1193.5 117.833 OFFCURVE",
"1307.5 334.5 CURVE SMOOTH",
"1364.5 442.833 OFFCURVE",
"1393 569.667 OFFCURVE",
"1393 715 CURVE"
);
},
{
closed = 1;
nodes = (
"1096 715 LINE",
"1096 415 OFFCURVE",
"935.333 228 OFFCURVE",
"682 228 CURVE SMOOTH",
"432 228 LINE",
"432 1181 LINE",
"641 1181 LINE SMOOTH",
"933 1181 OFFCURVE",
"1096 1017.667 OFFCURVE",
"1096 715 CURVE"
);
}
);
width = 1479;
}
);
note = D;
unicode = 0044;
},
{
glyphname = E;
lastChange = "2020-03-13 21:34:11 +0000";
layers = (
{
layerId = "7129FC8E-08C2-4901-BA92-B1D794EB6D8E";
paths = (
{
closed = 1;
nodes = (
"137 0 LINE",
"1286 0 LINE",
"1286 228 LINE",
"432 228 LINE",
"432 599 LINE",
"1184 599 LINE",
"1184 827 LINE",
"432 827 LINE",
"432 1181 LINE",
"1245 1181 LINE",
"1245 1409 LINE",
"137 1409 LINE",
"137 0 LINE"
);
}
);
width = 1366;
}
);
note = E;
unicode = 0045;
},
{
glyphname = F;
lastChange = "2020-03-13 21:34:11 +0000";
layers = (
{
layerId = "7129FC8E-08C2-4901-BA92-B1D794EB6D8E";
paths = (
{
closed = 1;
nodes = (
"432 1181 LINE",
"1176 1181 LINE",
"1176 1409 LINE",
"137 1409 LINE",
"137 0 LINE",
"432 0 LINE",
"432 517 LINE",
"1153 517 LINE",
"1153 745 LINE",
"432 745 LINE",
"432 1181 LINE"
);
}
);
width = 1251;
}
);
note = F;
unicode = 0046;
},
{
glyphname = G;
lastChange = "2020-03-13 21:34:11 +0000";
layers = (
{
layerId = "7129FC8E-08C2-4901-BA92-B1D794EB6D8E";
paths = (
{
closed = 1;
nodes = (
"806 211 LINE",
"536.667 211 OFFCURVE",
"381 392.333 OFFCURVE",
"381 711 CURVE SMOOTH",
"381 1024.333 OFFCURVE",
"527.667 1198 OFFCURVE",
"805 1198 CURVE SMOOTH",
"974.333 1198 OFFCURVE",
"1105.333 1123.667 OFFCURVE",
"1164 981 CURVE",
"1436 1063 LINE",
"1346 1307.667 OFFCURVE",
"1135.667 1430 OFFCURVE",
"805 1430 CURVE SMOOTH",
"339.667 1430 OFFCURVE",
"84 1175 OFFCURVE",
"84 711 CURVE SMOOTH",
"84 244.333 OFFCURVE",
"339.333 -20 OFFCURVE",
"798 -20 CURVE SMOOTH",
"1060.667 -20 OFFCURVE",
"1316.667 71.667 OFFCURVE",
"1466 225 CURVE",
"1466 743 LINE",
"852 743 LINE",
"852 525 LINE",
"1196 525 LINE",
"1196 330 LINE",
"1117.333 260.667 OFFCURVE",
"959.333 211 OFFCURVE",
"806 211 CURVE"
);
}
);
width = 1593;
}
);
note = G;
unicode = 0047;
},
{
glyphname = H;
lastChange = "2020-03-13 21:34:11 +0000";
layers = (
{
layerId = "7129FC8E-08C2-4901-BA92-B1D794EB6D8E";
paths = (
{
closed = 1;
nodes = (
"1046 0 LINE",
"1341 0 LINE",
"1341 1409 LINE",
"1046 1409 LINE",
"1046 848 LINE",
"432 848 LINE",
"432 1409 LINE",
"137 1409 LINE",
"137 0 LINE",
"432 0 LINE",
"432 604 LINE",
"1046 604 LINE",
"1046 0 LINE"
);
}
);
width = 1479;
}
);
note = H;
unicode = 0048;
},
{
glyphname = I;
lastChange = "2020-03-13 21:34:11 +0000";
layers = (
{
layerId = "7129FC8E-08C2-4901-BA92-B1D794EB6D8E";
paths = (
{
closed = 1;
nodes = (
"137 0 LINE",
"432 0 LINE",
"432 1409 LINE",
"137 1409 LINE",
"137 0 LINE"
);
}
);
width = 569;
}
);
note = I;
unicode = 0049;
},
{
glyphname = J;
lastChange = "2020-03-13 21:34:11 +0000";
layers = (
{
layerId = "7129FC8E-08C2-4901-BA92-B1D794EB6D8E";
paths = (
{
closed = 1;
nodes = (
"524 -20 LINE",
"824 -20 OFFCURVE",
"999 152.667 OFFCURVE",
"999 446 CURVE SMOOTH",
"999 1409 LINE",
"424 1409 LINE",
"424 1178 LINE",
"705 1178 LINE",
"705 439 LINE SMOOTH",
"705 292.333 OFFCURVE",
"643.333 211 OFFCURVE",
"526 211 CURVE SMOOTH",
"411.333 211 OFFCURVE",
"348 279.667 OFFCURVE",
"324 425 CURVE",
"31 382 LINE",
"83 99.333 OFFCURVE",
"232 -20 OFFCURVE",
"524 -20 CURVE"
);
}
);
width = 1139;
}
);
note = J;
unicode = 004A;
},
{
glyphname = K;
lastChange = "2020-03-13 21:34:11 +0000";
layers = (
{
layerId = "7129FC8E-08C2-4901-BA92-B1D794EB6D8E";
paths = (
{
closed = 1;
nodes = (
"1112 0 LINE",
"1460 0 LINE",
"809 813 LINE",
"1411 1409 LINE",
"1067 1409 LINE",
"432 770 LINE",
"432 1409 LINE",
"137 1409 LINE",
"137 0 LINE",
"432 0 LINE",
"432 514 LINE",
"606 647 LINE",
"1112 0 LINE"
);
}
);
width = 1479;
}
);
note = K;
unicode = 004B;
},
{
glyphname = L;
lastChange = "2020-03-13 21:34:11 +0000";
layers = (
{
layerId = "7129FC8E-08C2-4901-BA92-B1D794EB6D8E";
paths = (
{
closed = 1;
nodes = (
"137 0 LINE",
"1188 0 LINE",
"1188 228 LINE",
"432 228 LINE",
"432 1409 LINE",
"137 1409 LINE",
"137 0 LINE"
);
}
);
width = 1251;
}
);
note = L;
unicode = 004C;
},
{
glyphname = M;
lastChange = "2020-03-13 21:34:11 +0000";
layers = (
{
layerId = "7129FC8E-08C2-4901-BA92-B1D794EB6D8E";
paths = (
{
closed = 1;
nodes = (
"1307 0 LINE",
"1569 0 LINE",
"1569 1409 LINE",
"1176 1409 LINE",
"917 582 LINE",
"854 356 LINE",
"784 621 LINE",
"532 1409 LINE",
"137 1409 LINE",
"137 0 LINE",
"399 0 LINE",
"399 854 LINE SMOOTH",
"399 904 OFFCURVE",
"395 1006.333 OFFCURVE",
"387 1161 CURVE",
"494 786 LINE",
"748 0 LINE",
"958 0 LINE",
"1212 786 LINE SMOOTH",
"1234.667 856.667 OFFCURVE",
"1269.667 981.667 OFFCURVE",
"1317 1161 CURVE",
"1311 1014.333 OFFCURVE",
"1307.833 931.333 OFFCURVE",
"1307.5 912 CURVE SMOOTH",
"1307.167 892.667 OFFCURVE",
"1307 873.333 OFFCURVE",
"1307 854 CURVE SMOOTH",
"1307 0 LINE"
);
}
);
width = 1706;
}
);
note = M;
unicode = 004D;
},
{
glyphname = N;
lastChange = "2020-03-13 21:34:11 +0000";
layers = (
{
layerId = "7129FC8E-08C2-4901-BA92-B1D794EB6D8E";
paths = (
{
closed = 1;
nodes = (
"995 0 LINE",
"1341 0 LINE",
"1341 1409 LINE",
"1079 1409 LINE",
"1079 590 LINE SMOOTH",
"1079 507.333 OFFCURVE",
"1085 415.667 OFFCURVE",
"1097 315 CURVE",
"474 1409 LINE",
"137 1409 LINE",
"137 0 LINE",
"399 0 LINE",
"399 831 LINE SMOOTH",
"399 895 OFFCURVE",
"393 979.667 OFFCURVE",
"381 1085 CURVE",
"995 0 LINE"
);
}
);
width = 1479;
}
);
note = N;
unicode = 004E;
},
{
glyphname = O;
lastChange = "2020-03-13 21:34:11 +0000";
layers = (
{
layerId = "7129FC8E-08C2-4901-BA92-B1D794EB6D8E";
paths = (
{
closed = 1;
nodes = (
"1507 711 LINE",
"1507 1157.667 OFFCURVE",
"1241.667 1430 OFFCURVE",
"795 1430 CURVE SMOOTH",
"348.333 1430 OFFCURVE",
"84 1163 OFFCURVE",
"84 711 CURVE SMOOTH",
"84 257.667 OFFCURVE",
"350.333 -20 OFFCURVE",
"793 -20 CURVE SMOOTH",
"1081 -20 OFFCURVE",
"1304 101.333 OFFCURVE",
"1420 324 CURVE SMOOTH",
"1478 435.333 OFFCURVE",
"1507 564.333 OFFCURVE",
"1507 711 CURVE"
);
},
{
closed = 1;
nodes = (
"1206 711 LINE",
"1206 392.333 OFFCURVE",
"1057 212 OFFCURVE",
"793 212 CURVE SMOOTH",
"538.333 212 OFFCURVE",
"381 401.667 OFFCURVE",
"381 711 CURVE SMOOTH",
"381 1017.667 OFFCURVE",
"531 1198 OFFCURVE",
"795 1198 CURVE SMOOTH",
"1055 1198 OFFCURVE",
"1206 1015 OFFCURVE",
"1206 711 CURVE"
);
}
);
width = 1593;
}
);
note = O;
unicode = 004F;
},
{
glyphname = P;
lastChange = "2020-03-13 21:34:11 +0000";
layers = (
{
layerId = "7129FC8E-08C2-4901-BA92-B1D794EB6D8E";
paths = (
{
closed = 1;
nodes = (
"1296 963 LINE",
"1296 1247 OFFCURVE",
"1107.333 1409 OFFCURVE",
"770 1409 CURVE SMOOTH",
"137 1409 LINE",
"137 0 LINE",
"432 0 LINE",
"432 496 LINE",
"782 496 LINE SMOOTH",
"994 496 OFFCURVE",
"1151.333 577.333 OFFCURVE",
"1234 720 CURVE SMOOTH",
"1275.333 791.333 OFFCURVE",
"1296 872.333 OFFCURVE",
"1296 963 CURVE"
);
},
{
closed = 1;
nodes = (
"999 958 LINE",
"999 806 OFFCURVE",
"907.667 723 OFFCURVE",
"745 723 CURVE SMOOTH",
"432 723 LINE",
"432 1180 LINE",
"737 1180 LINE SMOOTH",
"911.667 1180 OFFCURVE",
"999 1106 OFFCURVE",
"999 958 CURVE"
);
}
);
width = 1366;
}
);
note = P;
unicode = 0050;
},
{
glyphname = Q;
lastChange = "2020-03-13 21:34:11 +0000";
layers = (
{
layerId = "7129FC8E-08C2-4901-BA92-B1D794EB6D8E";
paths = (
{
closed = 1;
nodes = (
"1507 711 LINE",
"1507 1157.667 OFFCURVE",
"1241.667 1430 OFFCURVE",
"795 1430 CURVE SMOOTH",
"348.333 1430 OFFCURVE",
"84 1163 OFFCURVE",
"84 711 CURVE SMOOTH",
"84 293.667 OFFCURVE",
"304 26 OFFCURVE",
"684 -10 CURVE",
"770.667 -291.333 OFFCURVE",
"908.667 -403 OFFCURVE",
"1126 -403 CURVE SMOOTH",
"1203.333 -403 OFFCURVE",
"1284 -393.667 OFFCURVE",
"1368 -375 CURVE",
"1370 -173 LINE",
"1330 -179.667 OFFCURVE",
"1290.333 -183 OFFCURVE",
"1251 -183 CURVE SMOOTH",
"1103 -183 OFFCURVE",
"1028.333 -128 OFFCURVE",
"983 4 CURVE",
"1312.333 70.667 OFFCURVE",
"1507 335 OFFCURVE",
"1507 711 CURVE"
);
},
{
closed = 1;
nodes = (
"1206 711 LINE",
"1206 391 OFFCURVE",
"1057 211 OFFCURVE",
"793 211 CURVE SMOOTH",
"537 211 OFFCURVE",
"381 401.667 OFFCURVE",
"381 711 CURVE SMOOTH",
"381 1017.667 OFFCURVE",
"531 1198 OFFCURVE",
"795 1198 CURVE SMOOTH",
"1055 1198 OFFCURVE",
"1206 1015 OFFCURVE",
"1206 711 CURVE"
);
}
);
width = 1593;
}
);
note = Q;
unicode = 0051;
},
{
glyphname = R;
lastChange = "2020-03-13 21:34:11 +0000";
layers = (
{
layerId = "7129FC8E-08C2-4901-BA92-B1D794EB6D8E";
paths = (
{
closed = 1;
nodes = (
"1105 0 LINE",
"1437 0 LINE",
"1056 592 LINE",
"1246.667 637.333 OFFCURVE",
"1367 791.667 OFFCURVE",
"1367 989 CURVE SMOOTH",
"1367 1259.667 OFFCURVE",
"1177 1409 OFFCURVE",
"841 1409 CURVE SMOOTH",
"137 1409 LINE",
"137 0 LINE",
"432 0 LINE",
"432 535 LINE",
"778 535 LINE",
"1105 0 LINE"
);
},
{
closed = 1;
nodes = (
"1070 977 LINE",
"1070 842.333 OFFCURVE",
"983.333 764 OFFCURVE",
"818 764 CURVE SMOOTH",
"432 764 LINE",
"432 1180 LINE",
"810 1180 LINE SMOOTH",
"983.333 1180 OFFCURVE",
"1070 1112.333 OFFCURVE",
"1070 977 CURVE"
);
}
);
width = 1479;
}
);
note = R;
unicode = 0052;
},
{
glyphname = S;
lastChange = "2020-03-13 21:34:11 +0000";
layers = (
{
layerId = "7129FC8E-08C2-4901-BA92-B1D794EB6D8E";
paths = (
{
closed = 1;
nodes = (
"1286 406 LINE",
"1286 523.333 OFFCURVE",
"1249 612.833 OFFCURVE",
"1181 677.5 CURVE SMOOTH",
"1147 709.833 OFFCURVE",
"1100.833 738.167 OFFCURVE",
"1042.5 762.5 CURVE SMOOTH",
"984.167 786.833 OFFCURVE",
"887.333 813.333 OFFCURVE",
"752 842 CURVE SMOOTH",
"638 866 OFFCURVE",
"562.333 886.333 OFFCURVE",
"525 903 CURVE SMOOTH",
"450.333 936.333 OFFCURVE",
"412 979.667 OFFCURVE",
"412 1053 CURVE SMOOTH",
"412 1165 OFFCURVE",
"501.333 1221 OFFCURVE",
"680 1221 CURVE SMOOTH",
"848 1221 OFFCURVE",
"933.667 1159.333 OFFCURVE",
"963 1038 CURVE",
"1249 1077 LINE",
"1198.333 1329 OFFCURVE",
"1035.333 1430 OFFCURVE",
"686 1430 CURVE SMOOTH",
"320.667 1430 OFFCURVE",
"125 1290.667 OFFCURVE",
"125 1036 CURVE SMOOTH",
"125 936 OFFCURVE",
"152.333 859.333 OFFCURVE",
"199 802 CURVE SMOOTH",
"222.333 773.333 OFFCURVE",
"250.667 748.833 OFFCURVE",
"284 728.5 CURVE SMOOTH",
"317.333 708.167 OFFCURVE",
"354.667 690.5 OFFCURVE",
"396 675.5 CURVE SMOOTH",
"437.333 660.5 OFFCURVE",
"510.667 640.667 OFFCURVE",
"616 616 CURVE SMOOTH",
"738 591.333 OFFCURVE",
"820.5 570.333 OFFCURVE",
"863.5 553 CURVE SMOOTH",
"949.5 518.333 OFFCURVE",
"999 469 OFFCURVE",
"999 389 CURVE SMOOTH",
"999 263.667 OFFCURVE",
"896 201 OFFCURVE",
"690 201 CURVE SMOOTH",
"491.333 201 OFFCURVE",
"382.667 264.667 OFFCURVE",
"344 414 CURVE",
"59 367 LINE",
"117.667 107 OFFCURVE",
"320.667 -20 OFFCURVE",
"682 -20 CURVE SMOOTH",
"1078 -20 OFFCURVE",
"1286 130 OFFCURVE",
"1286 406 CURVE"
);
}
);
width = 1366;
}
);
note = S;
unicode = 0053;
},
{
glyphname = T;
lastChange = "2020-03-13 21:34:11 +0000";
layers = (
{
layerId = "7129FC8E-08C2-4901-BA92-B1D794EB6D8E";
paths = (
{
closed = 1;
nodes = (
"773 1181 LINE",
"1229 1181 LINE",
"1229 1409 LINE",
"23 1409 LINE",
"23 1181 LINE",
"478 1181 LINE",
"478 0 LINE",
"773 0 LINE",
"773 1181 LINE"
);
}
);
width = 1251;
}
);
note = T;
unicode = 0054;
},
{
glyphname = U;
lastChange = "2020-03-13 21:34:11 +0000";
layers = (
{
layerId = "7129FC8E-08C2-4901-BA92-B1D794EB6D8E";
paths = (
{
closed = 1;
nodes = (
"723 -20 LINE",
"1123 -20 OFFCURVE",
"1354 185.667 OFFCURVE",
"1354 543 CURVE SMOOTH",
"1354 1409 LINE",
"1059 1409 LINE",
"1059 561 LINE SMOOTH",
"1059 335.667 OFFCURVE",
"941.667 211 OFFCURVE",
"731 211 CURVE SMOOTH",
"525.667 211 OFFCURVE",
"418 328.333 OFFCURVE",
"418 551 CURVE SMOOTH",
"418 1409 LINE",
"123 1409 LINE",
"123 528 LINE SMOOTH",
"123 176 OFFCURVE",
"335 -20 OFFCURVE",
"723 -20 CURVE"
);
}
);
width = 1479;
}
);
note = U;
unicode = 0055;
},
{
glyphname = V;
lastChange = "2020-03-13 21:34:11 +0000";
layers = (
{
layerId = "7129FC8E-08C2-4901-BA92-B1D794EB6D8E";
paths = (
{
closed = 1;
nodes = (
"834 0 LINE",
"1352 1409 LINE",
"1047 1409 LINE",
"758 504 LINE SMOOTH",
"745.333 464.667 OFFCURVE",
"729 405 OFFCURVE",
"709 325 CURVE SMOOTH",
"686 238 LINE",
"655.333 356 OFFCURVE",
"630.667 444.667 OFFCURVE",
"612 504 CURVE SMOOTH",
"322 1409 LINE",
"14 1409 LINE",
"535 0 LINE",
"834 0 LINE"
);
}
);
width = 1366;
}
);
note = V;
unicode = 0056;
},
{
glyphname = W;
lastChange = "2020-03-13 21:34:11 +0000";
layers = (
{
layerId = "7129FC8E-08C2-4901-BA92-B1D794EB6D8E";
paths = (
{
closed = 1;
nodes = (
"1567 0 LINE",
"1931 1409 LINE",
"1632 1409 LINE",
"1462 625 LINE",
"1409 395 LINE",
"1384 279 LINE",
"1350.667 476.333 OFFCURVE",
"1327 603 OFFCURVE",
"1313 659 CURVE SMOOTH",
"1135 1409 LINE",
"805 1409 LINE",
"689.667 917 OFFCURVE",
"623.167 628.833 OFFCURVE",
"605.5 544.5 CURVE SMOOTH",
"587.833 460.167 OFFCURVE",
"569.667 371.667 OFFCURVE",
"551 279 CURVE",
"505 499 LINE",
"301 1409 LINE",
"2 1409 LINE",
"365 0 LINE",
"715 0 LINE",
"847 565.333 OFFCURVE",
"918 870.833 OFFCURVE",
"928 916.5 CURVE SMOOTH",
"938 962.167 OFFCURVE",
"951 1028.667 OFFCURVE",
"967 1116 CURVE",
"983 1011.333 OFFCURVE",
"1002.667 911 OFFCURVE",
"1026 815 CURVE SMOOTH",
"1217 0 LINE",
"1567 0 LINE"
);
}
);
width = 1933;
}
);
note = W;
unicode = 0057;
},
{
glyphname = X;
lastChange = "2020-03-13 21:34:11 +0000";
layers = (
{
layerId = "7129FC8E-08C2-4901-BA92-B1D794EB6D8E";
paths = (
{
closed = 1;
nodes = (
"1038 0 LINE",
"1348 0 LINE",
"879 741 LINE",
"1307 1409 LINE",
"997 1409 LINE",
"684 911 LINE",
"371 1409 LINE",
"59 1409 LINE",
"506 741 LINE",
"18 0 LINE",
"330 0 LINE",
"684 561 LINE",
"1038 0 LINE"
);
}
);
width = 1366;
}
);
note = X;
unicode = 0058;
},
{
glyphname = Y;
lastChange = "2020-03-13 21:34:11 +0000";
layers = (
{
layerId = "7129FC8E-08C2-4901-BA92-B1D794EB6D8E";
paths = (
{
closed = 1;
nodes = (
"831 578 LINE",
"1333 1409 LINE",
"1024 1409 LINE",
"682 813 LINE",
"344 1409 LINE",
"35 1409 LINE",
"537 578 LINE",
"537 0 LINE",
"831 0 LINE",
"831 578 LINE"
);
}
);
width = 1366;
}
);
note = Y;
unicode = 0059;
},
{
glyphname = Z;
lastChange = "2020-03-13 21:34:11 +0000";
layers = (
{
layerId = "7129FC8E-08C2-4901-BA92-B1D794EB6D8E";
paths = (
{
closed = 1;
nodes = (
"1192 0 LINE",
"1192 231 LINE",
"389 231 LINE",
"1151 1204 LINE",
"1151 1409 LINE",
"137 1409 LINE",
"137 1178 LINE",
"823 1178 LINE",
"61 209 LINE",
"61 0 LINE",
"1192 0 LINE"
);
}
);
width = 1251;
}
);
note = Z;
unicode = 005A;
},
{
glyphname = bracketleft;
lastChange = "2020-03-13 21:34:11 +0000";
layers = (
{
layerId = "7129FC8E-08C2-4901-BA92-B1D794EB6D8E";
paths = (
{
closed = 1;
nodes = (
"115 -425 LINE",
"657 -425 LINE",
"657 -234 LINE",
"381 -234 LINE",
"381 1294 LINE",
"657 1294 LINE",
"657 1484 LINE",
"115 1484 LINE",
"115 -425 LINE"
);
}
);
width = 682;
}
);
note = bracketleft;
unicode = 005B;
},
{
glyphname = backslash;
lastChange = "2020-03-13 21:34:11 +0000";
layers = (
{
layerId = "7129FC8E-08C2-4901-BA92-B1D794EB6D8E";
paths = (
{
closed = 1;
nodes = (
"307 -41 LINE",
"550 -41 LINE",
"259 1485 LINE",
"21 1485 LINE",
"307 -41 LINE"
);
}
);
width = 569;
}
);
note = backslash;
unicode = 005C;
},
{
glyphname = bracketright;
lastChange = "2020-03-13 21:34:11 +0000";
layers = (
{
layerId = "7129FC8E-08C2-4901-BA92-B1D794EB6D8E";
paths = (
{
closed = 1;
nodes = (
"25 -425 LINE",
"567 -425 LINE",
"567 1484 LINE",
"25 1484 LINE",
"25 1294 LINE",
"303 1294 LINE",
"303 -234 LINE",
"25 -234 LINE",
"25 -425 LINE"
);
}
);
width = 682;
}
);
note = bracketright;
unicode = 005D;
},
{
glyphname = asciicircum;
lastChange = "2020-03-13 21:34:11 +0000";
layers = (
{
layerId = "7129FC8E-08C2-4901-BA92-B1D794EB6D8E";
paths = (
{
closed = 1;
nodes = (
"922 514 LINE",
"1151 514 LINE",
"758 1409 LINE",
"436 1409 LINE",
"45 514 LINE",
"272 514 LINE",
"596 1266 LINE",
"922 514 LINE"
);
}
);
width = 1196;
}
);
note = asciicircum;
unicode = 005E;
},
{
glyphname = underscore;
lastChange = "2020-03-13 21:34:11 +0000";
layers = (
{
layerId = "7129FC8E-08C2-4901-BA92-B1D794EB6D8E";
paths = (
{
closed = 1;
nodes = (
"-20 -250 LINE",
"1157 -250 LINE",
"1157 -172 LINE",
"-20 -172 LINE",
"-20 -250 LINE"
);
}
);
width = 1139;
}
);
note = underscore;
unicode = 005F;
},
{
glyphname = grave;
lastChange = "2020-03-13 21:34:11 +0000";
layers = (
{
layerId = "7129FC8E-08C2-4901-BA92-B1D794EB6D8E";
paths = (
{
closed = 1;
nodes = (
"406 1183 LINE",
"575 1183 LINE",
"575 1214 LINE",
"324 1502 LINE",
"66 1502 LINE",
"66 1459 LINE",
"406 1183 LINE"
);
}
);
width = 682;
}
);
note = grave;
unicode = 0060;
},
{
glyphname = a;
lastChange = "2020-03-13 21:34:11 +0000";
layers = (
{
layerId = "7129FC8E-08C2-4901-BA92-B1D794EB6D8E";
paths = (
{
closed = 1;
nodes = (
"393 -20 LINE",
"551.667 -20 OFFCURVE",
"670.333 51 OFFCURVE",
"749 193 CURVE",
"755 193 LINE",
"768.333 58.333 OFFCURVE",
"830.667 -12 OFFCURVE",
"972 -12 CURVE SMOOTH",
"1043.625 -12 OFFCURVE",
"1082.614 -2.653 OFFCURVE",
"1152 14 CURVE",
"1152 166 LINE",
"1132 162 OFFCURVE",
"1111.333 160 OFFCURVE",
"1090 160 CURVE SMOOTH",
"1026 160 OFFCURVE",
"1001 198.667 OFFCURVE",
"1001 320 CURVE SMOOTH",
"1001 714 LINE SMOOTH",
"1001 962 OFFCURVE",
"847.333 1102 OFFCURVE",
"574 1102 CURVE SMOOTH",
"303.333 1102 OFFCURVE",
"145 991.667 OFFCURVE",
"109 781 CURVE",
"402 767 LINE",
"414 876.333 OFFCURVE",
"458 920 OFFCURVE",
"562 920 CURVE SMOOTH",
"674 920 OFFCURVE",
"720 852.333 OFFCURVE",
"720 711 CURVE SMOOTH",
"720 656 LINE",
"487 652 LINE SMOOTH",
"209.667 646.667 OFFCURVE",
"60 530 OFFCURVE",
"60 306 CURVE SMOOTH",
"60 99.333 OFFCURVE",
"183.667 -20 OFFCURVE",
"393 -20 CURVE"
);
},
{
closed = 1;
nodes = (
"720 501 LINE",
"720 446 LINE SMOOTH",
"720 351.333 OFFCURVE",
"676.167 260 OFFCURVE",
"603.5 212 CURVE SMOOTH",
"567.167 188 OFFCURVE",
"527 176 OFFCURVE",
"483 176 CURVE SMOOTH",
"404.333 176 OFFCURVE",
"353 225.333 OFFCURVE",
"353 328 CURVE SMOOTH",
"353 408 OFFCURVE",
"382.333 454.167 OFFCURVE",
"437 477.5 CURVE SMOOTH",
"464.333 489.167 OFFCURVE",
"510.667 496.333 OFFCURVE",
"576 499 CURVE SMOOTH",
"720 501 LINE"
);
}
);
width = 1139;
}
);
note = a;
unicode = 0061;
},
{
glyphname = b;
lastChange = "2020-03-13 21:34:11 +0000";
layers = (
{
layerId = "7129FC8E-08C2-4901-BA92-B1D794EB6D8E";
paths = (
{
closed = 1;
nodes = (
"1167 545 LINE",
"1167 899.667 OFFCURVE",
"1026 1102 OFFCURVE",
"770 1102 CURVE SMOOTH",
"602.667 1102 OFFCURVE",
"487.333 1032.667 OFFCURVE",
"424 894 CURVE",
"420 894 LINE",
"424 1070 LINE",
"424 1484 LINE",
"143 1484 LINE",
"143 247 LINE SMOOTH",
"143 144.333 OFFCURVE",
"140.333 62 OFFCURVE",
"135 0 CURVE",
"408 0 LINE",
"414.667 22.667 OFFCURVE",
"422 127.333 OFFCURVE",
"422 174 CURVE",
"424 174 LINE",
"484 48.667 OFFCURVE",
"598.667 -20 OFFCURVE",
"752 -20 CURVE SMOOTH",
"1018.667 -20 OFFCURVE",
"1167 187.667 OFFCURVE",
"1167 545 CURVE"
);
},
{
closed = 1;
nodes = (
"874 545 LINE",
"874 296.333 OFFCURVE",
"799.667 172 OFFCURVE",
"651 172 CURVE SMOOTH",
"499 172 OFFCURVE",
"420 306.667 OFFCURVE",
"420 536 CURVE SMOOTH",
"420 776 OFFCURVE",
"501 907 OFFCURVE",
"653 907 CURVE SMOOTH",
"803.667 907 OFFCURVE",
"874 790.333 OFFCURVE",
"874 545 CURVE"
);
}
);
width = 1251;
}
);
note = b;
unicode = 0062;
},
{
glyphname = c;
lastChange = "2020-03-13 21:34:11 +0000";
layers = (
{
layerId = "7129FC8E-08C2-4901-BA92-B1D794EB6D8E";
paths = (
{
closed = 1;
nodes = (
"594 -20 LINE",
"768.667 -20 OFFCURVE",
"913.5 46 OFFCURVE",
"999.5 162 CURVE SMOOTH",
"1042.5 220 OFFCURVE",
"1069 286 OFFCURVE",
"1079 360 CURVE",
"797 373 LINE",
"779.667 239.667 OFFCURVE",
"702.667 172 OFFCURVE",
"596 172 CURVE SMOOTH",
"448.667 172 OFFCURVE",
"375 296.667 OFFCURVE",
"375 546 CURVE SMOOTH",
"375 788 OFFCURVE",
"447.333 909 OFFCURVE",
"592 909 CURVE SMOOTH",
"709.333 909 OFFCURVE",
"772 837.667 OFFCURVE",
"788 727 CURVE",
"1071 741 LINE",
"1028.333 966.333 OFFCURVE",
"852.667 1102 OFFCURVE",
"598 1102 CURVE SMOOTH",
"267.333 1102 OFFCURVE",
"80 892.333 OFFCURVE",
"80 535 CURVE SMOOTH",
"80 185.667 OFFCURVE",
"266 -20 OFFCURVE",
"594 -20 CURVE"
);
}
);
width = 1139;
}
);
note = c;
unicode = 0063;
},
{
glyphname = d;
lastChange = "2020-03-13 21:34:11 +0000";
layers = (
{
layerId = "7129FC8E-08C2-4901-BA92-B1D794EB6D8E";
paths = (
{
closed = 1;
nodes = (
"844 0 LINE",
"1116 0 LINE",
"1110.667 90.667 OFFCURVE",
"1108 169.333 OFFCURVE",
"1108 236 CURVE SMOOTH",
"1108 1484 LINE",
"827 1484 LINE",
"827 1089 LINE",
"829 911 LINE",
"827 911 LINE",
"767 1037.667 OFFCURVE",
"653.333 1102 OFFCURVE",
"500 1102 CURVE SMOOTH",
"234.667 1102 OFFCURVE",
"84 898.667 OFFCURVE",
"84 540 CURVE SMOOTH",
"84 186.667 OFFCURVE",
"227 -20 OFFCURVE",
"479 -20 CURVE SMOOTH",
"649 -20 OFFCURVE",
"764.333 45.333 OFFCURVE",
"825 176 CURVE",
"829 176 LINE",
"829 122.667 OFFCURVE",
"838.667 20 OFFCURVE",
"844 0 CURVE"
);
},
{
closed = 1;
nodes = (
"831 547 LINE",
"831 307 OFFCURVE",
"746 172 OFFCURVE",
"598 172 CURVE SMOOTH",
"450.667 172 OFFCURVE",
"377 294.667 OFFCURVE",
"377 540 CURVE SMOOTH",
"377 790.667 OFFCURVE",
"449.333 911 OFFCURVE",
"600 911 CURVE SMOOTH",
"752 911 OFFCURVE",
"831 780.333 OFFCURVE",
"831 547 CURVE"
);
}
);
width = 1251;
}
);
note = d;
unicode = 0064;
},
{
glyphname = e;
lastChange = "2020-03-13 21:34:11 +0000";
layers = (
{
layerId = "7129FC8E-08C2-4901-BA92-B1D794EB6D8E";
paths = (
{
closed = 1;
nodes = (
"586 -20 LINE",
"820.667 -20 OFFCURVE",
"976.333 78 OFFCURVE",
"1053 274 CURVE",
"788 297 LINE",
"762 211 OFFCURVE",
"699.333 168 OFFCURVE",
"600 168 CURVE SMOOTH",
"456 168 OFFCURVE",
"375 276.333 OFFCURVE",
"375 487 CURVE",
"1069 487 LINE",
"1069 495 LINE SMOOTH",
"1069 892.333 OFFCURVE",
"900.667 1102 OFFCURVE",
"590 1102 CURVE SMOOTH",
"264.667 1102 OFFCURVE",
"80 903.333 OFFCURVE",
"80 546 CURVE SMOOTH",
"80 176.667 OFFCURVE",
"260.667 -20 OFFCURVE",
"586 -20 CURVE"
);
},
{
closed = 1;
nodes = (
"586 925 LINE",
"710 925 OFFCURVE",
"786.333 837.667 OFFCURVE",
"797 663 CURVE",
"377 663 LINE",
"381 828.333 OFFCURVE",
"454 925 OFFCURVE",
"586 925 CURVE"
);
}
);
width = 1139;
}
);
note = e;
unicode = 0065;
},
{
glyphname = f;
lastChange = "2020-03-13 21:34:11 +0000";
layers = (
{
layerId = "7129FC8E-08C2-4901-BA92-B1D794EB6D8E";
paths = (
{
closed = 1;
nodes = (
"473 892 LINE",
"686 892 LINE",
"686 1082 LINE",
"473 1082 LINE",
"473 1167 LINE SMOOTH",
"473 1263 OFFCURVE",
"508 1296 OFFCURVE",
"604 1296 CURVE SMOOTH",
"631.333 1296 OFFCURVE",
"658.667 1293 OFFCURVE",
"686 1287 CURVE",
"686 1468 LINE",
"620 1478.667 OFFCURVE",
"560.667 1484 OFFCURVE",
"508 1484 CURVE SMOOTH",
"296 1484 OFFCURVE",
"193 1391 OFFCURVE",
"193 1195 CURVE SMOOTH",
"193 1082 LINE",
"35 1082 LINE",
"35 892 LINE",
"193 892 LINE",
"193 0 LINE",
"473 0 LINE",
"473 892 LINE"
);
}
);
width = 682;
}
);
note = f;
unicode = 0066;
},
{
glyphname = g;
lastChange = "2020-03-13 21:34:11 +0000";
layers = (
{
layerId = "7129FC8E-08C2-4901-BA92-B1D794EB6D8E";
paths = (
{
closed = 1;
nodes = (
"596 -434 LINE",
"929.333 -434 OFFCURVE",
"1108 -275 OFFCURVE",
"1108 33 CURVE SMOOTH",
"1108 832 LINE SMOOTH",
"1108 926.667 OFFCURVE",
"1110 1010 OFFCURVE",
"1114 1082 CURVE",
"848 1082 LINE",
"841.333 1056.667 OFFCURVE",
"834 954.667 OFFCURVE",
"834 908 CURVE",
"829 908 LINE",
"768.333 1038 OFFCURVE",
"659.333 1103 OFFCURVE",
"502 1103 CURVE SMOOTH",
"230 1103 OFFCURVE",
"84 903.333 OFFCURVE",
"84 550 CURVE SMOOTH",
"84 198 OFFCURVE",
"229 2 OFFCURVE",
"481 2 CURVE SMOOTH",
"651 2 OFFCURVE",
"767 68.333 OFFCURVE",
"829 201 CURVE",
"831 201 LINE",
"829 94 LINE",
"829 37 LINE SMOOTH",
"829 -152.333 OFFCURVE",
"760 -249 OFFCURVE",
"604 -249 CURVE SMOOTH",
"497.333 -249 OFFCURVE",
"430 -196.667 OFFCURVE",
"410 -110 CURVE",
"129 -143 LINE",
"166.333 -329.667 OFFCURVE",
"332 -434 OFFCURVE",
"596 -434 CURVE"
);
},
{
closed = 1;
nodes = (
"831 556 LINE",
"831 326.667 OFFCURVE",
"749.333 197 OFFCURVE",
"600 197 CURVE SMOOTH",
"451.333 197 OFFCURVE",
"377 314.667 OFFCURVE",
"377 550 CURVE SMOOTH",
"377 790 OFFCURVE",
"452 910 OFFCURVE",
"602 910 CURVE SMOOTH",
"748.667 910 OFFCURVE",
"831 778.667 OFFCURVE",
"831 556 CURVE"
);
}
);
width = 1251;
}
);
note = g;
unicode = 0067;
},
{
glyphname = h;
lastChange = "2020-03-13 21:34:11 +0000";
layers = (
{
layerId = "7129FC8E-08C2-4901-BA92-B1D794EB6D8E";
paths = (
{
closed = 1;
nodes = (
"420 866 LINE",
"416 866 LINE",
"421.333 935.333 OFFCURVE",
"424 1006.333 OFFCURVE",
"424 1079 CURVE SMOOTH",
"424 1484 LINE",
"143 1484 LINE",
"143 0 LINE",
"424 0 LINE",
"424 579 LINE SMOOTH",
"424 761.667 OFFCURVE",
"515 891 OFFCURVE",
"651 891 CURVE SMOOTH",
"779.667 891 OFFCURVE",
"844 796 OFFCURVE",
"844 606 CURVE SMOOTH",
"844 0 LINE",
"1124 0 LINE",
"1124 686 LINE SMOOTH",
"1124 958 OFFCURVE",
"997.333 1102 OFFCURVE",
"768 1102 CURVE SMOOTH",
"609.333 1102 OFFCURVE",
"496 1031.333 OFFCURVE",
"420 866 CURVE"
);
}
);
width = 1251;
}
);
note = h;
unicode = 0068;
},
{
glyphname = i;
lastChange = "2020-03-13 21:34:11 +0000";
layers = (
{
layerId = "7129FC8E-08C2-4901-BA92-B1D794EB6D8E";
paths = (
{
closed = 1;
nodes = (
"143 1277 LINE",
"424 1277 LINE",
"424 1484 LINE",
"143 1484 LINE",
"143 1277 LINE"
);
},
{
closed = 1;
nodes = (
"143 0 LINE",
"424 0 LINE",
"424 1082 LINE",
"143 1082 LINE",
"143 0 LINE"
);
}
);
width = 569;
}
);
note = i;
unicode = 0069;
},
{
glyphname = j;
lastChange = "2020-03-13 21:34:11 +0000";
layers = (
{
layerId = "7129FC8E-08C2-4901-BA92-B1D794EB6D8E";
paths = (
{
closed = 1;
nodes = (
"144 1277 LINE",
"425 1277 LINE",
"425 1484 LINE",
"144 1484 LINE",
"144 1277 LINE"
);
},
{
closed = 1;
nodes = (
"138 -425 LINE",
"327.333 -425 OFFCURVE",
"425 -318.667 OFFCURVE",
"425 -128 CURVE SMOOTH",
"425 1082 LINE",
"144 1082 LINE",
"144 -60 LINE SMOOTH",
"144 -192 OFFCURVE",
"115 -222 OFFCURVE",
"19 -222 CURVE",
"-32 -218 LINE",
"-32 -416 LINE",
"14.667 -422 OFFCURVE",
"71.333 -425 OFFCURVE",
"138 -425 CURVE"
);
}
);
width = 569;
}
);
note = j;
unicode = 006A;
},
{
glyphname = k;
lastChange = "2020-03-13 21:34:11 +0000";
layers = (
{
layerId = "7129FC8E-08C2-4901-BA92-B1D794EB6D8E";
paths = (
{
closed = 1;
nodes = (
"834 0 LINE",
"1141 0 LINE",
"732 660 LINE",
"1112 1082 LINE",
"810 1082 LINE",
"424 634 LINE",
"424 1484 LINE",
"143 1484 LINE",
"143 0 LINE",
"424 0 LINE",
"424 406 LINE",
"545 490 LINE",
"834 0 LINE"
);
}
);
width = 1139;
}
);
note = k;
unicode = 006B;
},
{
glyphname = l;
lastChange = "2020-03-13 21:34:11 +0000";
layers = (
{
layerId = "7129FC8E-08C2-4901-BA92-B1D794EB6D8E";
paths = (
{
closed = 1;
nodes = (
"143 0 LINE",
"424 0 LINE",
"424 1484 LINE",
"143 1484 LINE",
"143 0 LINE"
);
}
);
width = 569;
}
);
note = l;
unicode = 006C;
},
{
glyphname = m;
lastChange = "2020-03-13 21:34:11 +0000";
layers = (
{
layerId = "7129FC8E-08C2-4901-BA92-B1D794EB6D8E";
paths = (
{
closed = 1;
nodes = (
"780 0 LINE",
"1059 0 LINE",
"1059 593 LINE",
"1065.667 779.667 OFFCURVE",
"1141.667 892 OFFCURVE",
"1251 892 CURVE SMOOTH",
"1360.333 892 OFFCURVE",
"1415 797 OFFCURVE",
"1415 607 CURVE SMOOTH",
"1415 0 LINE",
"1694 0 LINE",
"1694 687 LINE SMOOTH",
"1694 955 OFFCURVE",
"1580.667 1103 OFFCURVE",
"1370 1103 CURVE SMOOTH",
"1211.333 1103 OFFCURVE",
"1115.333 1035 OFFCURVE",
"1042 867 CURVE",
"1036 867 LINE",
"1000.667 1024.333 OFFCURVE",
"900.333 1103 OFFCURVE",
"735 1103 CURVE SMOOTH",
"591 1103 OFFCURVE",
"489.333 1032.333 OFFCURVE",
"420 867 CURVE",
"416 867 LINE",
"416 908.333 OFFCURVE",
"407 1056.667 OFFCURVE",
"403 1082 CURVE",
"135 1082 LINE",
"139 1023.333 OFFCURVE",
"143 956 OFFCURVE",
"143 840 CURVE SMOOTH",
"143 0 LINE",
"424 0 LINE",
"424 580 LINE SMOOTH",
"424 764 OFFCURVE",
"502.667 892 OFFCURVE",
"616 892 CURVE SMOOTH",
"725.333 892 OFFCURVE",
"780 797 OFFCURVE",
"780 607 CURVE SMOOTH",
"780 0 LINE"
);
}
);
width = 1821;
}
);
note = m;
unicode = 006D;
},
{
glyphname = n;
lastChange = "2020-03-13 21:34:11 +0000";
layers = (
{
layerId = "7129FC8E-08C2-4901-BA92-B1D794EB6D8E";
paths = (
{
closed = 1;
nodes = (
"844 0 LINE",
"1124 0 LINE",
"1124 687 LINE SMOOTH",
"1124 959 OFFCURVE",
"997.333 1103 OFFCURVE",
"768 1103 CURVE SMOOTH",
"609.333 1103 OFFCURVE",
"496 1032.333 OFFCURVE",
"420 867 CURVE",
"416 867 LINE",
"416 908.333 OFFCURVE",
"407 1056.667 OFFCURVE",
"403 1082 CURVE",
"135 1082 LINE",
"139 1023.333 OFFCURVE",
"143 956 OFFCURVE",
"143 840 CURVE SMOOTH",
"143 0 LINE",
"424 0 LINE",
"424 580 LINE SMOOTH",
"424 762.667 OFFCURVE",
"515 892 OFFCURVE",
"651 892 CURVE SMOOTH",
"779.667 892 OFFCURVE",
"844 797 OFFCURVE",
"844 607 CURVE SMOOTH",
"844 0 LINE"
);
}
);
width = 1251;
}
);
note = n;
unicode = 006E;
},
{
glyphname = o;
lastChange = "2020-03-13 21:34:11 +0000";
layers = (
{
layerId = "7129FC8E-08C2-4901-BA92-B1D794EB6D8E";
paths = (
{
closed = 1;
nodes = (
"1171 542 LINE",
"1171 903.333 OFFCURVE",
"980.333 1102 OFFCURVE",
"627 1102 CURVE SMOOTH",
"281.667 1102 OFFCURVE",
"80 890 OFFCURVE",
"80 542 CURVE SMOOTH",
"80 192.667 OFFCURVE",
"283.667 -20 OFFCURVE",
"621 -20 CURVE SMOOTH",
"965 -20 OFFCURVE",
"1171 191.333 OFFCURVE",
"1171 542 CURVE"
);
},
{
closed = 1;
nodes = (
"877 542 LINE",
"877 295.333 OFFCURVE",
"790.667 172 OFFCURVE",
"618 172 CURVE SMOOTH",
"460.667 172 OFFCURVE",
"375 300.667 OFFCURVE",
"375 542 CURVE SMOOTH",
"375 786.667 OFFCURVE",
"460.333 909 OFFCURVE",
"631 909 CURVE SMOOTH",
"791 909 OFFCURVE",
"877 799.333 OFFCURVE",
"877 542 CURVE"
);
}
);
width = 1251;
}
);
note = o;
unicode = 006F;
},
{
glyphname = p;
lastChange = "2020-03-13 21:34:11 +0000";
layers = (
{
layerId = "7129FC8E-08C2-4901-BA92-B1D794EB6D8E";
paths = (
{
closed = 1;
nodes = (
"1167 546 LINE",
"1167 903.333 OFFCURVE",
"1022 1105 OFFCURVE",
"770 1105 CURVE SMOOTH",
"602.667 1105 OFFCURVE",
"487.333 1038.667 OFFCURVE",
"424 906 CURVE",
"420 906 LINE",
"420 975.333 OFFCURVE",
"414.667 1058 OFFCURVE",
"408 1082 CURVE",
"135 1082 LINE",
"140.333 1018 OFFCURVE",
"143 935 OFFCURVE",
"143 833 CURVE SMOOTH",
"143 -425 LINE",
"424 -425 LINE",
"424 -10 LINE SMOOTH",
"424 91.333 OFFCURVE",
"422 152 OFFCURVE",
"418 172 CURVE",
"424 172 LINE",
"484 48 OFFCURVE",
"600 -20 OFFCURVE",
"752 -20 CURVE SMOOTH",
"1016 -20 OFFCURVE",
"1167 184.667 OFFCURVE",
"1167 546 CURVE"
);
},
{
closed = 1;
nodes = (
"874 546 LINE",
"874 296.667 OFFCURVE",
"799 172 OFFCURVE",
"649 172 CURVE SMOOTH",
"502.333 172 OFFCURVE",
"420 304.667 OFFCURVE",
"420 538 CURVE SMOOTH",
"420 772.667 OFFCURVE",
"501.667 910 OFFCURVE",
"651 910 CURVE SMOOTH",
"799.667 910 OFFCURVE",
"874 788.667 OFFCURVE",
"874 546 CURVE"
);
}
);
width = 1251;
}
);
note = p;
unicode = 0070;
},
{
glyphname = q;
lastChange = "2020-03-13 21:34:11 +0000";
layers = (
{
layerId = "7129FC8E-08C2-4901-BA92-B1D794EB6D8E";
paths = (
{
closed = 1;
nodes = (
"84 540 LINE",
"84 186.667 OFFCURVE",
"227 -20 OFFCURVE",
"479 -20 CURVE SMOOTH",
"652.333 -20 OFFCURVE",
"770 46.667 OFFCURVE",
"832 180 CURVE",
"834 180 LINE",
"829 25 LINE",
"829 -425 LINE",
"1108 -425 LINE",
"1108 833 LINE SMOOTH",
"1108 927 OFFCURVE",
"1110 1010 OFFCURVE",
"1114 1082 CURVE",
"844 1082 LINE",
"838.667 1062 OFFCURVE",
"829 969.333 OFFCURVE",
"829 908 CURVE",
"768.333 1038 OFFCURVE",
"659.333 1103 OFFCURVE",
"502 1103 CURVE SMOOTH",
"236.667 1103 OFFCURVE",
"84 897.333 OFFCURVE",
"84 540 CURVE"
);
},
{
closed = 1;
nodes = (
"831 546 LINE",
"831 307.333 OFFCURVE",
"746.667 172 OFFCURVE",
"600 172 CURVE SMOOTH",
"451.333 172 OFFCURVE",
"377 294.667 OFFCURVE",
"377 540 CURVE SMOOTH",
"377 786.667 OFFCURVE",
"452 910 OFFCURVE",
"602 910 CURVE SMOOTH",
"752.667 910 OFFCURVE",
"831 776.667 OFFCURVE",
"831 546 CURVE"
);
}
);
width = 1251;
}
);
note = q;
unicode = 0071;
},
{
glyphname = r;
lastChange = "2020-03-13 21:34:11 +0000";
layers = (
{
layerId = "7129FC8E-08C2-4901-BA92-B1D794EB6D8E";
paths = (
{
closed = 1;
nodes = (
"143 0 LINE",
"424 0 LINE",
"424 531 LINE SMOOTH",
"424 753.667 OFFCURVE",
"506 868 OFFCURVE",
"646 868 CURVE SMOOTH",
"680.667 868 OFFCURVE",
"720.667 863 OFFCURVE",
"766 853 CURVE",
"766 1088 LINE",
"744 1098 OFFCURVE",
"715 1103 OFFCURVE",
"679 1103 CURVE SMOOTH",
"591 1103 OFFCURVE",
"535.667 1073.5 OFFCURVE",
"493 1011.5 CURVE SMOOTH",
"471.667 980.5 OFFCURVE",
"447.333 927 OFFCURVE",
"420 851 CURVE",
"416 851 LINE",
"416 891 OFFCURVE",
"407 1058 OFFCURVE",
"403 1082 CURVE",
"135 1082 LINE",
"139 1020.667 OFFCURVE",
"143 946.667 OFFCURVE",
"143 828 CURVE SMOOTH",
"143 0 LINE"
);
}
);
width = 797;
}
);
note = r;
unicode = 0072;
},
{
glyphname = s;
lastChange = "2020-03-13 21:34:11 +0000";
layers = (
{
layerId = "7129FC8E-08C2-4901-BA92-B1D794EB6D8E";
paths = (
{
closed = 1;
nodes = (
"1055 316 LINE",
"1055 440 OFFCURVE",
"1003.833 515.333 OFFCURVE",
"924.5 566 CURVE SMOOTH",
"845.167 616.667 OFFCURVE",
"710.333 650.333 OFFCURVE",
"541 685 CURVE SMOOTH",
"419.667 709 OFFCURVE",
"373 742.333 OFFCURVE",
"373 805 CURVE SMOOTH",
"373 885 OFFCURVE",
"439.667 916 OFFCURVE",
"573 916 CURVE SMOOTH",
"709 916 OFFCURVE",
"765 873 OFFCURVE",
"781 785 CURVE",
"1030 811 LINE",
"991.333 1000.333 OFFCURVE",
"830.333 1103 OFFCURVE",
"573 1103 CURVE SMOOTH",
"281 1103 OFFCURVE",
"115 981.667 OFFCURVE",
"115 775 CURVE SMOOTH",
"115 649.667 OFFCURVE",
"174.333 565.5 OFFCURVE",
"285 511.5 CURVE SMOOTH",
"340.333 484.5 OFFCURVE",
"447.333 455.333 OFFCURVE",
"606 424 CURVE SMOOTH",
"744.667 396 OFFCURVE",
"797 359.333 OFFCURVE",
"797 290 CURVE SMOOTH",
"797 204.667 OFFCURVE",
"728.333 166 OFFCURVE",
"571 166 CURVE SMOOTH",
"400.333 166 OFFCURVE",
"347 204.333 OFFCURVE",
"319 307 CURVE",
"72 270 LINE",
"124 71.333 OFFCURVE",
"273.667 -20 OFFCURVE",
"571 -20 CURVE SMOOTH",
"873.667 -20 OFFCURVE",
"1055 106.667 OFFCURVE",
"1055 316 CURVE"
);
}
);
width = 1139;
}
);
note = s;
unicode = 0073;
},
{
glyphname = t;
lastChange = "2020-03-13 21:34:11 +0000";
layers = (
{
layerId = "7129FC8E-08C2-4901-BA92-B1D794EB6D8E";
paths = (
{
closed = 1;
nodes = (
"420 -18 LINE",
"508.667 -18 OFFCURVE",
"587.667 -6.667 OFFCURVE",
"657 16 CURVE",
"657 190 LINE",
"616.333 180.667 OFFCURVE",
"585 176 OFFCURVE",
"563 176 CURVE SMOOTH",
"479 176 OFFCURVE",
"440 224.667 OFFCURVE",
"440 330 CURVE SMOOTH",
"440 892 LINE",
"645 892 LINE",
"645 1082 LINE",
"440 1082 LINE",
"440 1336 LINE",
"264 1336 LINE",
"176 1082 LINE",
"25 1082 LINE",
"25 892 LINE",
"162 892 LINE",
"162 254 LINE SMOOTH",
"162 71.333 OFFCURVE",
"254.667 -18 OFFCURVE",
"420 -18 CURVE"
);
}
);
width = 682;
}
);
note = t;
unicode = 0074;
},
{
glyphname = u;
lastChange = "2020-03-13 21:34:11 +0000";
layers = (
{
layerId = "7129FC8E-08C2-4901-BA92-B1D794EB6D8E";
paths = (
{
closed = 1;
nodes = (
"408 1082 LINE",
"127 1082 LINE",
"127 395 LINE SMOOTH",
"127 123 OFFCURVE",
"253.667 -20 OFFCURVE",
"483 -20 CURVE SMOOTH",
"641.667 -20 OFFCURVE",
"756.333 51 OFFCURVE",
"831 215 CURVE",
"836 215 LINE",
"836 167.667 OFFCURVE",
"840 96 OFFCURVE",
"848 0 CURVE",
"1116 0 LINE",
"1110.667 69.333 OFFCURVE",
"1108 150 OFFCURVE",
"1108 242 CURVE SMOOTH",
"1108 1082 LINE",
"827 1082 LINE",
"827 502 LINE SMOOTH",
"827 319.333 OFFCURVE",
"736 190 OFFCURVE",
"600 190 CURVE SMOOTH",
"472 190 OFFCURVE",
"408 285 OFFCURVE",
"408 475 CURVE SMOOTH",
"408 1082 LINE"
);
}
);
width = 1251;
}
);
note = u;
unicode = 0075;
},
{
glyphname = v;
lastChange = "2020-03-13 21:34:11 +0000";
layers = (
{
layerId = "7129FC8E-08C2-4901-BA92-B1D794EB6D8E";
paths = (
{
closed = 1;
nodes = (
"731 0 LINE",
"1130 1082 LINE",
"836 1082 LINE",
"703.333 676.667 OFFCURVE",
"626.667 439.667 OFFCURVE",
"606 371 CURVE SMOOTH",
"585.333 302.333 OFFCURVE",
"571.667 254.333 OFFCURVE",
"565 227 CURVE",
"527.667 360.333 OFFCURVE",
"504 443.667 OFFCURVE",
"494 477 CURVE SMOOTH",
"305 1082 LINE",
"8 1082 LINE",
"395 0 LINE",
"731 0 LINE"
);
}
);
width = 1139;
}
);
note = v;
unicode = 0076;
},
{
glyphname = w;
lastChange = "2020-03-13 21:34:11 +0000";
layers = (
{
layerId = "7129FC8E-08C2-4901-BA92-B1D794EB6D8E";
paths = (
{
closed = 1;
nodes = (
"1313 0 LINE",
"1597 1082 LINE",
"1337 1082 LINE",
"1181 387 LINE",
"1153 255 LINE",
"1135 347.667 OFFCURVE",
"1121.333 411.333 OFFCURVE",
"1112 446 CURVE SMOOTH",
"946 1082 LINE",
"645 1082 LINE",
"475 446 LINE",
"450 329 LINE",
"436 255 LINE",
"258 1082 LINE",
"-6 1082 LINE",
"274 0 LINE",
"571 0 LINE",
"745 658 LINE",
"797 882 LINE",
"820.333 764 OFFCURVE",
"836 690 OFFCURVE",
"844 660 CURVE SMOOTH",
"1016 0 LINE",
"1313 0 LINE"
);
}
);
width = 1593;
}
);
note = w;
unicode = 0077;
},
{
glyphname = x;
lastChange = "2020-03-13 21:34:11 +0000";
layers = (
{
layerId = "7129FC8E-08C2-4901-BA92-B1D794EB6D8E";
paths = (
{
closed = 1;
nodes = (
"819 0 LINE",
"1124 0 LINE",
"725 562 LINE",
"1102 1082 LINE",
"797 1082 LINE",
"567 728 LINE",
"336 1082 LINE",
"33 1082 LINE",
"410 559 LINE",
"14 0 LINE",
"313 0 LINE",
"567 392 LINE",
"819 0 LINE"
);
}
);
width = 1139;
}
);
note = x;
unicode = 0078;
},
{
glyphname = y;
lastChange = "2020-03-13 21:34:11 +0000";
layers = (
{
layerId = "7129FC8E-08C2-4901-BA92-B1D794EB6D8E";
paths = (
{
closed = 1;
nodes = (
"283 -425 LINE",
"477.667 -425 OFFCURVE",
"585.333 -334.333 OFFCURVE",
"700 -57 CURVE",
"1128 1082 LINE",
"834 1082 LINE",
"674 571 LINE",
"609 336 LINE",
"584 241 LINE",
"543.333 391 OFFCURVE",
"509.667 502.333 OFFCURVE",
"483 575 CURVE SMOOTH",
"313 1082 LINE",
"16 1082 LINE",
"444 11 LINE",
"401.062 -104.602 OFFCURVE",
"363.896 -171.468 OFFCURVE",
"302.5 -201 CURVE SMOOTH",
"276.167 -213.667 OFFCURVE",
"243 -220 OFFCURVE",
"203 -220 CURVE SMOOTH",
"173.667 -220 OFFCURVE",
"141.333 -217.333 OFFCURVE",
"106 -212 CURVE",
"106 -412 LINE",
"156.667 -420.667 OFFCURVE",
"215.667 -425 OFFCURVE",
"283 -425 CURVE"
);
}
);
width = 1139;
}
);
note = y;
unicode = 0079;
},
{
glyphname = z;
lastChange = "2020-03-13 21:34:11 +0000";
layers = (
{
layerId = "7129FC8E-08C2-4901-BA92-B1D794EB6D8E";
paths = (
{
closed = 1;
nodes = (
"82 0 LINE",
"950 0 LINE",
"950 205 LINE",
"395 205 LINE",
"901 881 LINE",
"901 1082 LINE",
"123 1082 LINE",
"123 879 LINE",
"591 879 LINE",
"82 199 LINE",
"82 0 LINE"
);
}
);
width = 1024;
}
);
note = z;
unicode = 007A;
},
{
glyphname = braceleft;
lastChange = "2020-03-13 21:34:11 +0000";
layers = (
{
layerId = "7129FC8E-08C2-4901-BA92-B1D794EB6D8E";
paths = (
{
closed = 1;
nodes = (
"557 -425 LINE",
"754 -425 LINE",
"754 -234 LINE",
"696 -234 LINE SMOOTH",
"574.667 -234 OFFCURVE",
"524 -166.333 OFFCURVE",
"524 -25 CURVE SMOOTH",
"524 276 LINE SMOOTH",
"524 400 OFFCURVE",
"443.667 498.667 OFFCURVE",
"317 528 CURVE",
"317 532 LINE",
"439.667 557.333 OFFCURVE",
"524 657.333 OFFCURVE",
"524 784 CURVE SMOOTH",
"524 1085 LINE SMOOTH",
"524 1225 OFFCURVE",
"574.667 1294 OFFCURVE",
"696 1294 CURVE SMOOTH",
"754 1294 LINE",
"754 1484 LINE",
"557 1484 LINE SMOOTH",
"373 1484 OFFCURVE",
"262 1379.667 OFFCURVE",
"262 1185 CURVE SMOOTH",
"262 857 LINE SMOOTH",
"262 706.333 OFFCURVE",
"194.333 632.667 OFFCURVE",
"33 626 CURVE",
"33 431 LINE",
"191.667 428.333 OFFCURVE",
"262 354 OFFCURVE",
"262 202 CURVE SMOOTH",
"262 -126 LINE SMOOTH",
"262 -315.333 OFFCURVE",
"378.333 -425 OFFCURVE",
"557 -425 CURVE"
);
}
);
width = 797;
}
);
note = braceleft;
unicode = 007B;
},
{
glyphname = bar;
lastChange = "2020-03-13 21:34:11 +0000";
layers = (
{
layerId = "7129FC8E-08C2-4901-BA92-B1D794EB6D8E";
paths = (
{
closed = 1;
nodes = (
"156 -455 LINE",
"418 -455 LINE",
"418 1484 LINE",
"156 1484 LINE",
"156 -455 LINE"
);
}
);
width = 573;
}
);
note = bar;
unicode = 007C;
},
{
glyphname = braceright;
lastChange = "2020-03-13 21:34:11 +0000";
layers = (
{
layerId = "7129FC8E-08C2-4901-BA92-B1D794EB6D8E";
paths = (
{
closed = 1;
nodes = (
"43 -234 LINE",
"43 -425 LINE",
"240 -425 LINE SMOOTH",
"420 -425 OFFCURVE",
"535 -314 OFFCURVE",
"535 -126 CURVE SMOOTH",
"535 202 LINE SMOOTH",
"535 350 OFFCURVE",
"604.667 428.333 OFFCURVE",
"766 431 CURVE",
"766 626 LINE",
"604.667 632.667 OFFCURVE",
"535 707.667 OFFCURVE",
"535 857 CURVE SMOOTH",
"535 1185 LINE SMOOTH",
"535 1379.667 OFFCURVE",
"424 1484 OFFCURVE",
"240 1484 CURVE SMOOTH",
"43 1484 LINE",
"43 1294 LINE",
"100 1294 LINE SMOOTH",
"224 1294 OFFCURVE",
"272 1225 OFFCURVE",
"272 1085 CURVE SMOOTH",
"272 784 LINE SMOOTH",
"272 656 OFFCURVE",
"357.667 557.333 OFFCURVE",
"479 532 CURVE",
"479 528 LINE",
"353.667 498.667 OFFCURVE",
"272 398.667 OFFCURVE",
"272 276 CURVE SMOOTH",
"272 -25 LINE SMOOTH",
"272 -166.333 OFFCURVE",
"224 -234 OFFCURVE",
"100 -234 CURVE SMOOTH",
"43 -234 LINE"
);
}
);
width = 797;
}
);
note = braceright;
unicode = 007D;
},
{
glyphname = asciitilde;
lastChange = "2020-03-13 21:34:11 +0000";
layers = (
{
layerId = "7129FC8E-08C2-4901-BA92-B1D794EB6D8E";
paths = (
{
closed = 1;
nodes = (
"852 516 LINE",
"966.667 516 OFFCURVE",
"1033.667 537.333 OFFCURVE",
"1119 596 CURVE",
"1119 815 LINE",
"1043 753.667 OFFCURVE",
"960.333 723 OFFCURVE",
"871 723 CURVE SMOOTH",
"841 723 OFFCURVE",
"809.333 727 OFFCURVE",
"776 735 CURVE SMOOTH",
"742.667 743 OFFCURVE",
"682 762.333 OFFCURVE",
"594 793 CURVE SMOOTH",
"502.667 824.333 OFFCURVE",
"422 840 OFFCURVE",
"352 840 CURVE SMOOTH",
"246.667 840 OFFCURVE",
"156.333 812 OFFCURVE",
"81 756 CURVE",
"81 543 LINE",
"167.667 603 OFFCURVE",
"241.333 631 OFFCURVE",
"336 631 CURVE SMOOTH",
"393.333 631 OFFCURVE",
"467 615.333 OFFCURVE",
"557 584 CURVE SMOOTH",
"657 549.333 OFFCURVE",
"752 516 OFFCURVE",
"852 516 CURVE"
);
}
);
width = 1196;
}
);
note = asciitilde;
unicode = 007E;
},
{
glyphname = dagger;
lastChange = "2020-03-13 21:34:11 +0000";
layers = (
{
layerId = "7129FC8E-08C2-4901-BA92-B1D794EB6D8E";
paths = (
{
closed = 1;
nodes = (
"669 960 LINE",
"1002 933 LINE",
"1002 1137 LINE",
"669 1108 LINE",
"697 1484 LINE",
"442 1484 LINE",
"470 1108 LINE",
"138 1137 LINE",
"138 933 LINE",
"470 960 LINE",
"492 -138 LINE",
"647 -138 LINE",
"669 960 LINE"
);
}
);
width = 1139;
}
);
note = dagger;
unicode = 2020;
},
{
glyphname = degree;
lastChange = "2020-03-13 21:34:11 +0000";
layers = (
{
layerId = "7129FC8E-08C2-4901-BA92-B1D794EB6D8E";
paths = (
{
closed = 1;
nodes = (
"731 1110 LINE",
"731 1283.333 OFFCURVE",
"590 1425 OFFCURVE",
"410 1425 CURVE SMOOTH",
"292.667 1425 OFFCURVE",
"189.167 1366.333 OFFCURVE",
"132.5 1269 CURVE SMOOTH",
"104.167 1220.333 OFFCURVE",
"90 1167.333 OFFCURVE",
"90 1110 CURVE SMOOTH",
"90 932.667 OFFCURVE",
"234 795 OFFCURVE",
"410 795 CURVE SMOOTH",
"588.667 795 OFFCURVE",
"731 936.667 OFFCURVE",
"731 1110 CURVE"
);
},
{
closed = 1;
nodes = (
"573 1110 LINE",
"573 1016.667 OFFCURVE",
"499.333 942 OFFCURVE",
"410 942 CURVE SMOOTH",
"319.333 942 OFFCURVE",
"244 1018 OFFCURVE",
"244 1110 CURVE SMOOTH",
"244 1202 OFFCURVE",
"315.333 1276 OFFCURVE",
"410 1276 CURVE SMOOTH",
"503.333 1276 OFFCURVE",
"573 1203.333 OFFCURVE",
"573 1110 CURVE"
);
}
);
width = 819;
}
);
note = degree;
unicode = 00B0;
},
{
glyphname = cent;
lastChange = "2020-03-13 21:34:11 +0000";
layers = (
{
layerId = "7129FC8E-08C2-4901-BA92-B1D794EB6D8E";
paths = (
{
closed = 1;
nodes = (
"588 340 LINE",
"426.667 340 OFFCURVE",
"334 464 OFFCURVE",
"334 696 CURVE SMOOTH",
"334 914.667 OFFCURVE",
"420.667 1044 OFFCURVE",
"586 1044 CURVE SMOOTH",
"703.333 1044 OFFCURVE",
"781 975.333 OFFCURVE",
"801 854 CURVE",
"1083 868 LINE",
"1045.667 1069.333 OFFCURVE",
"893.333 1199.667 OFFCURVE",
"668 1225 CURVE",
"668 1409 LINE",
"506 1409 LINE",
"506 1225 LINE",
"212.667 1191.667 OFFCURVE",
"51 995.333 OFFCURVE",
"51 686 CURVE SMOOTH",
"51 372.667 OFFCURVE",
"219.333 186 OFFCURVE",
"506 158 CURVE",
"506 -31 LINE",
"668 -31 LINE",
"668 160 LINE",
"905.333 188 OFFCURVE",
"1062.667 333 OFFCURVE",
"1092 537 CURVE",
"809 549 LINE",
"790.333 415.667 OFFCURVE",
"705.333 340 OFFCURVE",
"588 340 CURVE"
);
}
);
width = 1139;
}
);
note = cent;
unicode = 00A2;
},
{
glyphname = sterling;
lastChange = "2020-03-13 21:34:11 +0000";
layers = (
{
layerId = "7129FC8E-08C2-4901-BA92-B1D794EB6D8E";
paths = (
{
closed = 1;
nodes = (
"1118 363 LINE",
"885 402 LINE",
"862.333 276.667 OFFCURVE",
"795.667 209 OFFCURVE",
"657 209 CURVE SMOOTH",
"277 209 LINE",
"410.333 283.667 OFFCURVE",
"459 376.667 OFFCURVE",
"459 514 CURVE SMOOTH",
"459 604 LINE",
"745 604 LINE",
"745 774 LINE",
"459 774 LINE",
"459 999 LINE SMOOTH",
"459 1165.667 OFFCURVE",
"508.667 1239 OFFCURVE",
"630 1239 CURVE SMOOTH",
"718 1239 OFFCURVE",
"771 1194.667 OFFCURVE",
"799 1092 CURVE",
"1032 1139 LINE",
"973.333 1343 OFFCURVE",
"850.333 1430 OFFCURVE",
"625 1430 CURVE SMOOTH",
"342.333 1430 OFFCURVE",
"199 1290 OFFCURVE",
"199 1022 CURVE SMOOTH",
"199 774 LINE",
"21 774 LINE",
"21 604 LINE",
"209 604 LINE",
"209 512 LINE SMOOTH",
"209 372 OFFCURVE",
"168 282.333 OFFCURVE",
"32 205 CURVE",
"32 0 LINE",
"726 0 LINE SMOOTH",
"927.333 0 OFFCURVE",
"1076.667 133.667 OFFCURVE",
"1118 363 CURVE"
);
}
);
width = 1139;
}
);
note = sterling;
unicode = 00A3;
},
{
glyphname = section;
lastChange = "2020-03-13 21:34:11 +0000";
layers = (
{
layerId = "7129FC8E-08C2-4901-BA92-B1D794EB6D8E";
paths = (
{
closed = 1;
nodes = (
"575 1427 LINE",
"276.333 1427 OFFCURVE",
"116 1312.667 OFFCURVE",
"116 1114 CURVE SMOOTH",
"116 1002 OFFCURVE",
"184 906.667 OFFCURVE",
"304 856 CURVE",
"166.667 809.333 OFFCURVE",
"91 724 OFFCURVE",
"91 600 CURVE SMOOTH",
"91 450.667 OFFCURVE",
"193.333 348.333 OFFCURVE",
"468 283 CURVE SMOOTH",
"591.333 253.667 OFFCURVE",
"670.167 231.5 OFFCURVE",
"704.5 216.5 CURVE SMOOTH",
"773.167 186.5 OFFCURVE",
"804 150 OFFCURVE",
"804 86 CURVE SMOOTH",
"804 -20.667 OFFCURVE",
"718.667 -59 OFFCURVE",
"556 -59 CURVE SMOOTH",
"392 -59 OFFCURVE",
"316.667 -10.667 OFFCURVE",
"290 96 CURVE",
"53 59 LINE",
"105 -139.667 OFFCURVE",
"258.667 -229 OFFCURVE",
"556 -229 CURVE SMOOTH",
"866.667 -229 OFFCURVE",
"1040 -107.667 OFFCURVE",
"1040 115 CURVE SMOOTH",
"1040 233 OFFCURVE",
"979.667 318.333 OFFCURVE",
"859 371 CURVE",
"975 407 OFFCURVE",
"1056 510 OFFCURVE",
"1056 634 CURVE SMOOTH",
"1056 750 OFFCURVE",
"997.833 829.333 OFFCURVE",
"890.5 884 CURVE SMOOTH",
"836.833 911.333 OFFCURVE",
"754 937.667 OFFCURVE",
"642 963 CURVE SMOOTH",
"554.667 982.333 OFFCURVE",
"494.5 999.167 OFFCURVE",
"461.5 1013.5 CURVE SMOOTH",
"395.5 1042.167 OFFCURVE",
"358 1078.333 OFFCURVE",
"358 1133 CURVE SMOOTH",
"358 1219.667 OFFCURVE",
"425.667 1257 OFFCURVE",
"575 1257 CURVE SMOOTH",
"695 1257 OFFCURVE",
"774.667 1210.667 OFFCURVE",
"792 1128 CURVE",
"1031 1153 LINE",
"995 1330.333 OFFCURVE",
"833.667 1427 OFFCURVE",
"575 1427 CURVE"
);
},
{
closed = 1;
nodes = (
"818 600 LINE",
"818 512 OFFCURVE",
"753 464.667 OFFCURVE",
"623 458 CURVE",
"532.333 478.667 OFFCURVE",
"470.333 496 OFFCURVE",
"437 510 CURVE SMOOTH",
"370.333 538 OFFCURVE",
"333 572.333 OFFCURVE",
"333 627 CURVE SMOOTH",
"333 713.667 OFFCURVE",
"397.333 764.667 OFFCURVE",
"526 780 CURVE",
"641.333 758 OFFCURVE",
"718.833 734.333 OFFCURVE",
"758.5 709 CURVE SMOOTH",
"798.167 683.667 OFFCURVE",
"818 647.333 OFFCURVE",
"818 600 CURVE"
);
}
);
width = 1139;
}
);
note = section;
unicode = 00A7;
},
{
glyphname = bullet;
lastChange = "2020-03-13 21:34:11 +0000";
layers = (
{
layerId = "7129FC8E-08C2-4901-BA92-B1D794EB6D8E";
paths = (
{
closed = 1;
nodes = (
"651 676 LINE",
"651 838.667 OFFCURVE",
"518.667 969 OFFCURVE",
"356 969 CURVE SMOOTH",
"196 969 OFFCURVE",
"65 838.667 OFFCURVE",
"65 676 CURVE SMOOTH",
"65 513.333 OFFCURVE",
"197.333 381 OFFCURVE",
"356 381 CURVE SMOOTH",
"517.333 381 OFFCURVE",
"651 514.667 OFFCURVE",
"651 676 CURVE"
);
}
);
width = 717;
}
);
note = bullet;
unicode = 2022;
},
{
glyphname = paragraph;
lastChange = "2020-03-13 21:34:11 +0000";
layers = (
{
layerId = "7129FC8E-08C2-4901-BA92-B1D794EB6D8E";
paths = (
{
closed = 1;
nodes = (
"940 1266 LINE",
"1071 1266 LINE",
"1071 1409 LINE",
"442 1409 LINE SMOOTH",
"210 1409 OFFCURVE",
"71 1274.333 OFFCURVE",
"71 1049 CURVE SMOOTH",
"71 822.333 OFFCURVE",
"208.667 694 OFFCURVE",
"434 694 CURVE",
"434 -264 LINE",
"589 -264 LINE",
"589 1266 LINE",
"784 1266 LINE",
"784 -264 LINE",
"940 -264 LINE",
"940 1266 LINE"
);
}
);
width = 1139;
}
);
note = paragraph;
unicode = 00B6;
},
{
glyphname = germandbls;
lastChange = "2020-03-13 21:34:11 +0000";
layers = (
{
layerId = "7129FC8E-08C2-4901-BA92-B1D794EB6D8E";
paths = (
{
closed = 1;
nodes = (
"1193 312 LINE",
"1193 432.667 OFFCURVE",
"1137 534.667 OFFCURVE",
"1025 618 CURVE SMOOTH",
"940.333 680.667 OFFCURVE",
"891.167 719.5 OFFCURVE",
"877.5 734.5 CURVE SMOOTH",
"863.833 749.5 OFFCURVE",
"857 765.333 OFFCURVE",
"857 782 CURVE SMOOTH",
"857 822.211 OFFCURVE",
"921.781 871.325 OFFCURVE",
"969.5 915 CURVE SMOOTH",
"1008.833 951 OFFCURVE",
"1043.5 995.833 OFFCURVE",
"1065.5 1052.5 CURVE SMOOTH",
"1076.5 1080.833 OFFCURVE",
"1082 1113 OFFCURVE",
"1082 1149 CURVE SMOOTH",
"1082 1355.667 OFFCURVE",
"912.667 1484 OFFCURVE",
"638 1484 CURVE SMOOTH",
"318 1484 OFFCURVE",
"143 1319 OFFCURVE",
"143 1007 CURVE SMOOTH",
"143 0 LINE",
"424 0 LINE",
"424 1013 LINE SMOOTH",
"424 1201 OFFCURVE",
"497.667 1281 OFFCURVE",
"635 1281 CURVE SMOOTH",
"752.333 1281 OFFCURVE",
"816 1224.667 OFFCURVE",
"816 1138 CURVE SMOOTH",
"816 1078 OFFCURVE",
"786.333 1030 OFFCURVE",
"705 958 CURVE SMOOTH",
"629 891.333 OFFCURVE",
"593 832 OFFCURVE",
"593 760 CURVE SMOOTH",
"593 658 OFFCURVE",
"649.333 570.667 OFFCURVE",
"762 498 CURVE SMOOTH",
"886 416.667 OFFCURVE",
"931 365.333 OFFCURVE",
"931 296 CURVE SMOOTH",
"931 220 OFFCURVE",
"884 170 OFFCURVE",
"776 170 CURVE SMOOTH",
"713.333 170 OFFCURVE",
"610.667 198.333 OFFCURVE",
"544 229 CURVE",
"544 23 LINE",
"621.333 -5.667 OFFCURVE",
"708.667 -20 OFFCURVE",
"806 -20 CURVE SMOOTH",
"1054 -20 OFFCURVE",
"1193 96 OFFCURVE",
"1193 312 CURVE"
);
}
);
width = 1251;
}
);
note = germandbls;
unicode = 00DF;
},
{
glyphname = registered;
lastChange = "2020-03-13 21:34:11 +0000";
layers = (
{
layerId = "7129FC8E-08C2-4901-BA92-B1D794EB6D8E";
paths = (
{
closed = 1;
nodes = (
"1478 707 LINE",
"1478 965.667 OFFCURVE",
"1342.167 1202.5 OFFCURVE",
"1117.5 1332.5 CURVE SMOOTH",
"1005.167 1397.5 OFFCURVE",
"884.333 1430 OFFCURVE",
"755 1430 CURVE SMOOTH",
"497.667 1430 OFFCURVE",
"258.333 1292 OFFCURVE",
"129 1068 CURVE SMOOTH",
"64.333 956 OFFCURVE",
"32 835.667 OFFCURVE",
"32 707 CURVE SMOOTH",
"32 455 OFFCURVE",
"162.5 218.5 OFFCURVE",
"388.5 84.5 CURVE SMOOTH",
"501.5 17.5 OFFCURVE",
"623.667 -16 OFFCURVE",
"755 -16 CURVE SMOOTH",
"1012.333 -16 OFFCURVE",
"1252.833 120.833 OFFCURVE",
"1381.5 345.5 CURVE SMOOTH",
"1445.833 457.833 OFFCURVE",
"1478 578.333 OFFCURVE",
"1478 707 CURVE"
);
},
{
closed = 1;
nodes = (
"1366 707 LINE",
"1366 489.667 OFFCURVE",
"1250.333 287.333 OFFCURVE",
"1061 178 CURVE SMOOTH",
"966.333 123.333 OFFCURVE",
"864.333 96 OFFCURVE",
"755 96 CURVE SMOOTH",
"536.333 96 OFFCURVE",
"337.167 212.667 OFFCURVE",
"228.5 402 CURVE SMOOTH",
"174.167 496.667 OFFCURVE",
"147 598.333 OFFCURVE",
"147 707 CURVE SMOOTH",
"147 932.333 OFFCURVE",
"271.333 1133 OFFCURVE",
"458 1237 CURVE SMOOTH",
"551.333 1289 OFFCURVE",
"650.333 1315 OFFCURVE",
"755 1315 CURVE SMOOTH",
"972.333 1315 OFFCURVE",
"1174.667 1197.833 OFFCURVE",
"1284 1010.5 CURVE SMOOTH",
"1338.667 916.833 OFFCURVE",
"1366 815.667 OFFCURVE",
"1366 707 CURVE"
);
},
{
closed = 1;
nodes = (
"923 297 LINE",
"1124 297 LINE",
"911 633 LINE",
"1015 666.333 OFFCURVE",
"1085 744.667 OFFCURVE",
"1085 870 CURVE SMOOTH",
"1085 1020.667 OFFCURVE",
"984 1112 OFFCURVE",
"780 1112 CURVE SMOOTH",
"450 1112 LINE",
"450 297 LINE",
"628 297 LINE",
"628 610 LINE",
"745 610 LINE",
"923 297 LINE"
);
},
{
closed = 1;
nodes = (
"905 868 LINE",
"905 790.667 OFFCURVE",
"860 739 OFFCURVE",
"772 739 CURVE SMOOTH",
"628 739 LINE",
"628 985 LINE",
"761 985 LINE SMOOTH",
"853 985 OFFCURVE",
"905 944 OFFCURVE",
"905 868 CURVE"
);
}
);
width = 1509;
}
);
note = registered;
unicode = 00AE;
},
{
glyphname = copyright;
lastChange = "2020-03-13 21:34:11 +0000";
layers = (
{
layerId = "7129FC8E-08C2-4901-BA92-B1D794EB6D8E";
paths = (
{
closed = 1;
nodes = (
"1478 707 LINE",
"1478 965.667 OFFCURVE",
"1342.167 1202.5 OFFCURVE",
"1117.5 1332.5 CURVE SMOOTH",
"1005.167 1397.5 OFFCURVE",
"884.333 1430 OFFCURVE",
"755 1430 CURVE SMOOTH",
"497.667 1430 OFFCURVE",
"258.333 1292 OFFCURVE",
"129 1068 CURVE SMOOTH",
"64.333 956 OFFCURVE",
"32 835.667 OFFCURVE",
"32 707 CURVE SMOOTH",
"32 455 OFFCURVE",
"162.5 218.5 OFFCURVE",
"388.5 84.5 CURVE SMOOTH",
"501.5 17.5 OFFCURVE",
"623.667 -16 OFFCURVE",
"755 -16 CURVE SMOOTH",
"1012.333 -16 OFFCURVE",
"1252.833 120.833 OFFCURVE",
"1381.5 345.5 CURVE SMOOTH",
"1445.833 457.833 OFFCURVE",
"1478 578.333 OFFCURVE",
"1478 707 CURVE"
);
},
{
closed = 1;
nodes = (
"1366 707 LINE",
"1366 489.667 OFFCURVE",
"1250.333 287.333 OFFCURVE",
"1061 178 CURVE SMOOTH",
"966.333 123.333 OFFCURVE",
"864.333 96 OFFCURVE",
"755 96 CURVE SMOOTH",
"536.333 96 OFFCURVE",
"337.167 212.667 OFFCURVE",
"228.5 402 CURVE SMOOTH",
"174.167 496.667 OFFCURVE",
"147 598.333 OFFCURVE",
"147 707 CURVE SMOOTH",
"147 932.333 OFFCURVE",
"271.333 1133 OFFCURVE",
"458 1237 CURVE SMOOTH",
"551.333 1289 OFFCURVE",
"650.333 1315 OFFCURVE",
"755 1315 CURVE SMOOTH",
"972.333 1315 OFFCURVE",
"1174.667 1197.833 OFFCURVE",
"1284 1010.5 CURVE SMOOTH",
"1338.667 916.833 OFFCURVE",
"1366 815.667 OFFCURVE",
"1366 707 CURVE"
);
},
{
closed = 1;
nodes = (
"544 709 LINE",
"544 887.667 OFFCURVE",
"618.667 983 OFFCURVE",
"764 983 CURVE SMOOTH",
"856 983 OFFCURVE",
"921.333 935.333 OFFCURVE",
"956 854 CURVE",
"1112 895 LINE",
"1048 1051 OFFCURVE",
"932.333 1124 OFFCURVE",
"759 1124 CURVE SMOOTH",
"504.333 1124 OFFCURVE",
"364 979.667 OFFCURVE",
"364 709 CURVE SMOOTH",
"364 439.667 OFFCURVE",
"510.667 285 OFFCURVE",
"768 285 CURVE SMOOTH",
"933.333 285 OFFCURVE",
"1046.667 355.333 OFFCURVE",
"1124 522 CURVE",
"964 569 LINE",
"926.667 477 OFFCURVE",
"856 426 OFFCURVE",
"768 426 CURVE SMOOTH",
"626.667 426 OFFCURVE",
"544 529 OFFCURVE",
"544 709 CURVE"
);
}
);
width = 1509;
}
);
note = copyright;
unicode = 00A9;
},
{
glyphname = trademark;
lastChange = "2020-03-13 21:34:11 +0000";
layers = (
{
layerId = "7129FC8E-08C2-4901-BA92-B1D794EB6D8E";
paths = (
{
closed = 1;
nodes = (
"1059 768 LINE",
"1059 1108 LINE SMOOTH",
"1059 1127.333 OFFCURVE",
"1056.667 1184.667 OFFCURVE",
"1052 1280 CURVE",
"1129 1096 LINE",
"1278 768 LINE",
"1409 768 LINE",
"1563 1096 LINE",
"1609 1205 LINE",
"1639 1280 LINE",
"1633.667 1176 OFFCURVE",
"1631 1118.667 OFFCURVE",
"1631 1108 CURVE SMOOTH",
"1631 768 LINE",
"1796 768 LINE",
"1796 1409 LINE",
"1553 1409 LINE",
"1409 1108 LINE",
"1345 948 LINE",
"1316.333 1022 OFFCURVE",
"1294.667 1075.333 OFFCURVE",
"1280 1108 CURVE SMOOTH",
"1141 1409 LINE",
"893 1409 LINE",
"893 768 LINE",
"1059 768 LINE"
);
},
{
closed = 1;
nodes = (
"548 1270 LINE",
"799 1270 LINE",
"799 1409 LINE",
"125 1409 LINE",
"125 1270 LINE",
"368 1270 LINE",
"368 768 LINE",
"548 768 LINE",
"548 1270 LINE"
);
}
);
width = 2048;
}
);
note = trademark;
unicode = 2122;
},
{
glyphname = acute;
lastChange = "2020-03-13 21:34:11 +0000";
layers = (
{
layerId = "7129FC8E-08C2-4901-BA92-B1D794EB6D8E";
paths = (
{
closed = 1;
nodes = (
"87 1183 LINE",
"257 1183 LINE",
"597 1459 LINE",
"597 1502 LINE",
"339 1502 LINE",
"87 1214 LINE",
"87 1183 LINE"
);
}
);
width = 682;
}
);
note = acute;
unicode = 00B4;
},
{
glyphname = dieresis;
lastChange = "2020-03-13 21:34:11 +0000";
layers = (
{
layerId = "7129FC8E-08C2-4901-BA92-B1D794EB6D8E";
paths = (
{
closed = 1;
nodes = (
"450 1199 LINE",
"667 1199 LINE",
"667 1418 LINE",
"450 1418 LINE",
"450 1199 LINE"
);
},
{
closed = 1;
nodes = (
"16 1199 LINE",
"230 1199 LINE",
"230 1418 LINE",
"16 1418 LINE",
"16 1199 LINE"
);
}
);
width = 682;
}
);
note = dieresis;
unicode = 00A8;
},
{
glyphname = notequal;
lastChange = "2020-03-13 21:34:11 +0000";
layers = (
{
layerId = "7129FC8E-08C2-4901-BA92-B1D794EB6D8E";
paths = (
{
closed = 1;
nodes = (
"461 291 LINE",
"1096 291 LINE",
"1096 512 LINE",
"569 512 LINE",
"735 842 LINE",
"1096 842 LINE",
"1096 1065 LINE",
"844 1065 LINE",
"975 1323 LINE",
"764 1323 LINE",
"631 1065 LINE",
"29 1065 LINE",
"29 842 LINE",
"522 842 LINE",
"356 512 LINE",
"29 512 LINE",
"29 291 LINE",
"248 291 LINE",
"119 37 LINE",
"332 37 LINE",
"461 291 LINE"
);
}
);
width = 1124;
}
);
note = notequal;
unicode = 2260;
},
{
glyphname = AE;
lastChange = "2020-03-13 21:34:11 +0000";
layers = (
{
layerId = "7129FC8E-08C2-4901-BA92-B1D794EB6D8E";
paths = (
{
closed = 1;
nodes = (
"931 0 LINE",
"1968 0 LINE",
"1968 227 LINE",
"1226 227 LINE",
"1226 606 LINE",
"1865 606 LINE",
"1865 827 LINE",
"1226 827 LINE",
"1226 1182 LINE",
"1927 1182 LINE",
"1927 1409 LINE",
"704 1409 LINE",
"4 0 LINE",
"309 0 LINE",
"481 360 LINE",
"931 360 LINE",
"931 0 LINE"
);
},
{
closed = 1;
nodes = (
"931 1192 LINE",
"931 582 LINE",
"583 582 LINE",
"741.667 914.667 OFFCURVE",
"837.333 1118 OFFCURVE",
"870 1192 CURVE",
"931 1192 LINE"
);
}
);
width = 2048;
}
);
note = AE;
unicode = 00C6;
},
{
glyphname = Oslash;
lastChange = "2020-03-13 21:34:11 +0000";
layers = (
{
layerId = "7129FC8E-08C2-4901-BA92-B1D794EB6D8E";
paths = (
{
closed = 1;
nodes = (
"147 -73 LINE",
"342 -72 LINE",
"433 57 LINE",
"531.667 5.667 OFFCURVE",
"651.667 -20 OFFCURVE",
"793 -20 CURVE SMOOTH",
"1083.667 -20 OFFCURVE",
"1305 101.333 OFFCURVE",
"1421 324 CURVE SMOOTH",
"1479 435.333 OFFCURVE",
"1508 564.333 OFFCURVE",
"1508 711 CURVE SMOOTH",
"1508 951 OFFCURVE",
"1431.333 1144.667 OFFCURVE",
"1282 1270 CURVE",
"1424 1473 LINE",
"1231 1473 LINE",
"1149 1356 LINE",
"1045 1405.333 OFFCURVE",
"927 1430 OFFCURVE",
"795 1430 CURVE SMOOTH",
"348.333 1430 OFFCURVE",
"84 1163 OFFCURVE",
"84 711 CURVE SMOOTH",
"84 465 OFFCURVE",
"156.333 276.333 OFFCURVE",
"301 145 CURVE",
"147 -73 LINE"
);
},
{
closed = 1;
nodes = (
"1207 711 LINE",
"1207 392.333 OFFCURVE",
"1058.333 211 OFFCURVE",
"793 211 CURVE SMOOTH",
"711.667 211 OFFCURVE",
"640.667 229.333 OFFCURVE",
"580 266 CURVE",
"1121 1038 LINE",
"1178.333 955.333 OFFCURVE",
"1207 846.333 OFFCURVE",
"1207 711 CURVE"
);
},
{
closed = 1;
nodes = (
"381 711 LINE",
"381 1017.667 OFFCURVE",
"531 1198 OFFCURVE",
"795 1198 CURVE SMOOTH",
"873 1198 OFFCURVE",
"942.667 1181 OFFCURVE",
"1004 1147 CURVE",
"465 379 LINE",
"409 463.667 OFFCURVE",
"381 574.333 OFFCURVE",
"381 711 CURVE"
);
}
);
width = 1593;
}
);
note = Oslash;
unicode = 00D8;
},
{
glyphname = infinity;
lastChange = "2020-03-13 21:34:11 +0000";
layers = (
{
layerId = "7129FC8E-08C2-4901-BA92-B1D794EB6D8E";
paths = (
{
closed = 1;
nodes = (
"1389 583 LINE",
"1389 808.333 OFFCURVE",
"1256.667 955 OFFCURVE",
"1054 955 CURVE SMOOTH",
"922.667 955 OFFCURVE",
"814.667 878.333 OFFCURVE",
"730 725 CURVE",
"643.333 895.667 OFFCURVE",
"534.333 964 OFFCURVE",
"397 964 CURVE SMOOTH",
"210.333 964 OFFCURVE",
"72 809 OFFCURVE",
"72 597 CURVE SMOOTH",
"72 375.667 OFFCURVE",
"203.667 226 OFFCURVE",
"397 226 CURVE SMOOTH",
"531.667 226 OFFCURVE",
"642.667 302.333 OFFCURVE",
"730 455 CURVE",
"811.333 295.667 OFFCURVE",
"923.333 216 OFFCURVE",
"1066 216 CURVE SMOOTH",
"1248.667 216 OFFCURVE",
"1389 376.333 OFFCURVE",
"1389 583 CURVE"
);
},
{
closed = 1;
nodes = (
"1042 782 LINE",
"1136.667 782 OFFCURVE",
"1199 702.333 OFFCURVE",
"1199 585 CURVE SMOOTH",
"1199 470.333 OFFCURVE",
"1133 389 OFFCURVE",
"1041 389 CURVE SMOOTH",
"947.667 389 OFFCURVE",
"886.667 459.667 OFFCURVE",
"828 585 CURVE",
"890.667 716.333 OFFCURVE",
"962 782 OFFCURVE",
"1042 782 CURVE"
);
},
{
closed = 1;
nodes = (
"631 595 LINE",
"568.333 461.667 OFFCURVE",
"507.667 400 OFFCURVE",
"429 400 CURVE SMOOTH",
"326.333 400 OFFCURVE",
"262 483 OFFCURVE",
"262 595 CURVE SMOOTH",
"262 711 OFFCURVE",
"333.333 793 OFFCURVE",
"428 793 CURVE SMOOTH",
"508 793 OFFCURVE",
"560.333 745.667 OFFCURVE",
"631 595 CURVE"
);
}
);
width = 1460;
}
);
note = infinity;
unicode = 221E;
},
{
glyphname = plusminus;
lastChange = "2020-03-13 21:34:11 +0000";
layers = (
{
layerId = "7129FC8E-08C2-4901-BA92-B1D794EB6D8E";
paths = (
{
closed = 1;
nodes = (
"674 707 LINE",
"1076 707 LINE",
"1076 930 LINE",
"674 930 LINE",
"674 1270 LINE",
"450 1270 LINE",
"450 930 LINE",
"49 930 LINE",
"49 707 LINE",
"450 707 LINE",
"450 366 LINE",
"674 366 LINE",
"674 707 LINE"
);
},
{
closed = 1;
nodes = (
"49 0 LINE",
"1076 0 LINE",
"1076 223 LINE",
"49 223 LINE",
"49 0 LINE"
);
}
);
width = 1124;
}
);
note = plusminus;
unicode = 00B1;
},
{
glyphname = lessequal;
lastChange = "2020-03-13 21:34:11 +0000";
layers = (
{
layerId = "7129FC8E-08C2-4901-BA92-B1D794EB6D8E";
paths = (
{
closed = 1;
nodes = (
"49 631 LINE",
"1075 285 LINE",
"1075 512 LINE",
"243 791 LINE",
"1075 1071 LINE",
"1075 1298 LINE",
"49 952 LINE",
"49 631 LINE"
);
},
{
closed = 1;
nodes = (
"49 0 LINE",
"1073 0 LINE",
"1073 223 LINE",
"49 223 LINE",
"49 0 LINE"
);
}
);
width = 1124;
}
);
note = lessequal;
unicode = 2264;
},
{
glyphname = greaterequal;
lastChange = "2020-03-13 21:34:11 +0000";
layers = (
{
layerId = "7129FC8E-08C2-4901-BA92-B1D794EB6D8E";
paths = (
{
closed = 1;
nodes = (
"49 285 LINE",
"1075 631 LINE",
"1075 952 LINE",
"49 1298 LINE",
"49 1071 LINE",
"880 791 LINE",
"49 512 LINE",
"49 285 LINE"
);
},
{
closed = 1;
nodes = (
"49 0 LINE",
"1075 0 LINE",
"1075 223 LINE",
"49 223 LINE",
"49 0 LINE"
);
}
);
width = 1124;
}
);
note = greaterequal;
unicode = 2265;
},
{
glyphname = yen;
lastChange = "2020-03-13 21:34:11 +0000";
layers = (
{
layerId = "7129FC8E-08C2-4901-BA92-B1D794EB6D8E";
paths = (
{
closed = 1;
nodes = (
"766 691 LINE",
"1130 1409 LINE",
"841 1409 LINE",
"567 813 LINE",
"297 1409 LINE",
"8 1409 LINE",
"372 691 LINE",
"96 691 LINE",
"96 545 LINE",
"434 545 LINE",
"432 383 LINE",
"96 383 LINE",
"96 236 LINE",
"432 236 LINE",
"432 0 LINE",
"704 0 LINE",
"704 236 LINE",
"1042 236 LINE",
"1042 383 LINE",
"704 383 LINE",
"704 545 LINE",
"1042 545 LINE",
"1042 691 LINE",
"766 691 LINE"
);
}
);
width = 1139;
}
);
note = yen;
unicode = 00A5;
},
{
glyphname = mu1;
lastChange = "2020-03-13 21:34:11 +0000";
layers = (
{
layerId = "7129FC8E-08C2-4901-BA92-B1D794EB6D8E";
paths = (
{
closed = 1;
nodes = (
"789 0 LINE",
"1057 0 LINE",
"1051.667 74.667 OFFCURVE",
"1049 155.333 OFFCURVE",
"1049 242 CURVE SMOOTH",
"1049 1082 LINE",
"768 1082 LINE",
"768 504 LINE SMOOTH",
"768 292 OFFCURVE",
"708.667 193 OFFCURVE",
"590 193 CURVE SMOOTH",
"470 193 OFFCURVE",
"415 277 OFFCURVE",
"415 477 CURVE SMOOTH",
"415 1082 LINE",
"134 1082 LINE",
"134 -426 LINE",
"415 -426 LINE",
"415 -45 LINE SMOOTH",
"415 3 OFFCURVE",
"413.667 41.333 OFFCURVE",
"411 70 CURVE",
"415 70 LINE",
"445.667 14 OFFCURVE",
"501.667 -20 OFFCURVE",
"571 -20 CURVE SMOOTH",
"676.333 -20 OFFCURVE",
"729 29.333 OFFCURVE",
"773 144 CURVE",
"776 144 LINE",
"776 114.667 OFFCURVE",
"780.333 66.667 OFFCURVE",
"789 0 CURVE"
);
}
);
width = 1180;
}
);
note = mu1;
unicode = 00B5;
},
{
glyphname = partialdiff;
lastChange = "2020-03-13 21:34:11 +0000";
layers = (
{
layerId = "7129FC8E-08C2-4901-BA92-B1D794EB6D8E";
paths = (
{
closed = 1;
nodes = (
"945 907 LINE",
"945 1269.667 OFFCURVE",
"799.667 1468 OFFCURVE",
"549 1468 CURVE SMOOTH",
"472.333 1468 OFFCURVE",
"401.667 1449 OFFCURVE",
"337 1411 CURVE",
"292 1206 LINE",
"341.333 1243.333 OFFCURVE",
"430.333 1274 OFFCURVE",
"501 1274 CURVE SMOOTH",
"649 1274 OFFCURVE",
"718 1141.667 OFFCURVE",
"718 911 CURVE SMOOTH",
"718 893.667 OFFCURVE",
"717.667 863.667 OFFCURVE",
"717 821 CURVE",
"713 821 LINE",
"671.667 922.333 OFFCURVE",
"585.333 983 OFFCURVE",
"484 983 CURVE SMOOTH",
"322.667 983 OFFCURVE",
"191.833 881.833 OFFCURVE",
"112.5 682.5 CURVE SMOOTH",
"72.833 582.833 OFFCURVE",
"53 479 OFFCURVE",
"53 371 CURVE SMOOTH",
"53 115 OFFCURVE",
"175.667 -25 OFFCURVE",
"393 -25 CURVE SMOOTH",
"563.667 -25 OFFCURVE",
"699.167 60 OFFCURVE",
"794.5 224 CURVE SMOOTH",
"889.833 388 OFFCURVE",
"945 640.333 OFFCURVE",
"945 907 CURVE"
);
},
{
closed = 1;
nodes = (
"685 645 LINE",
"655.667 382.333 OFFCURVE",
"548.333 170 OFFCURVE",
"423 170 CURVE SMOOTH",
"340.333 170 OFFCURVE",
"290 245.667 OFFCURVE",
"290 375 CURVE SMOOTH",
"290 515 OFFCURVE",
"339 676.5 OFFCURVE",
"411 754.5 CURVE SMOOTH",
"447 793.5 OFFCURVE",
"486.333 813 OFFCURVE",
"529 813 CURVE SMOOTH",
"602.333 813 OFFCURVE",
"665 745 OFFCURVE",
"685 645 CURVE"
);
}
);
width = 1012;
}
);
note = partialdiff;
unicode = 2202;
},
{
glyphname = summation;
lastChange = "2020-03-13 21:34:11 +0000";
layers = (
{
layerId = "7129FC8E-08C2-4901-BA92-B1D794EB6D8E";
paths = (
{
closed = 1;
nodes = (
"134 -455 LINE",
"1348 -455 LINE",
"1348 -227 LINE",
"505 -227 LINE",
"1053 485 LINE",
"525 1182 LINE",
"1291 1182 LINE",
"1291 1409 LINE",
"154 1409 LINE",
"154 1257 LINE",
"740 481 LINE",
"134 -295 LINE",
"134 -455 LINE"
);
}
);
width = 1460;
}
);
note = summation;
unicode = 2211;
},
{
glyphname = product;
lastChange = "2020-03-13 21:34:11 +0000";
layers = (
{
layerId = "7129FC8E-08C2-4901-BA92-B1D794EB6D8E";
paths = (
{
closed = 1;
nodes = (
"1200 -455 LINE",
"1482 -455 LINE",
"1482 1409 LINE",
"204 1409 LINE",
"204 -455 LINE",
"499 -455 LINE",
"499 1165 LINE",
"1200 1165 LINE",
"1200 -455 LINE"
);
}
);
width = 1686;
}
);
note = product;
unicode = 220F;
},
{
glyphname = integral;
lastChange = "2020-03-13 21:34:11 +0000";
layers = (
{
layerId = "7129FC8E-08C2-4901-BA92-B1D794EB6D8E";
paths = (
{
closed = 1;
nodes = (
"26 -455 LINE",
"278 -455 OFFCURVE",
"426 -316.667 OFFCURVE",
"426 -74 CURVE SMOOTH",
"426 1079 LINE SMOOTH",
"426 1204.333 OFFCURVE",
"480.333 1274 OFFCURVE",
"583 1274 CURVE SMOOTH",
"629 1274 OFFCURVE",
"668.667 1265.667 OFFCURVE",
"702 1249 CURVE",
"702 1468 LINE",
"657.333 1480.667 OFFCURVE",
"605.667 1487 OFFCURVE",
"547 1487 CURVE SMOOTH",
"293.667 1487 OFFCURVE",
"145 1346 OFFCURVE",
"145 1106 CURVE SMOOTH",
"145 -45 LINE SMOOTH",
"145 -176.333 OFFCURVE",
"93.333 -242 OFFCURVE",
"-10 -242 CURVE SMOOTH",
"-45.333 -242 OFFCURVE",
"-85 -233.667 OFFCURVE",
"-129 -217 CURVE",
"-129 -434 LINE",
"-102.333 -443.333 OFFCURVE",
"-31.333 -455 OFFCURVE",
"26 -455 CURVE"
);
}
);
width = 561;
}
);
note = integral;
unicode = 222B;
},
{
glyphname = ordfeminine;
lastChange = "2020-03-13 21:34:11 +0000";
layers = (
{
layerId = "7129FC8E-08C2-4901-BA92-B1D794EB6D8E";
paths = (
{
closed = 1;
nodes = (
"257 725 LINE",
"357 725 OFFCURVE",
"431 770.667 OFFCURVE",
"479 862 CURVE",
"482 862 LINE",
"488.667 780.667 OFFCURVE",
"544.333 728 OFFCURVE",
"639 728 CURVE SMOOTH",
"675 728 OFFCURVE",
"714.667 734 OFFCURVE",
"758 746 CURVE",
"758 855 LINE",
"709 850 LINE",
"665 850 OFFCURVE",
"658 883 OFFCURVE",
"658 947 CURVE SMOOTH",
"658 1184 LINE SMOOTH",
"658 1334.667 OFFCURVE",
"555 1419 OFFCURVE",
"371 1419 CURVE SMOOTH",
"203 1419 OFFCURVE",
"94 1346.667 OFFCURVE",
"70 1216 CURVE",
"260 1207 LINE",
"266.667 1269.667 OFFCURVE",
"304 1301 OFFCURVE",
"372 1301 CURVE SMOOTH",
"441.333 1301 OFFCURVE",
"476 1261.333 OFFCURVE",
"476 1182 CURVE SMOOTH",
"476 1140 LINE",
"329 1138 LINE SMOOTH",
"139.667 1134.667 OFFCURVE",
"45 1064.333 OFFCURVE",
"45 927 CURVE SMOOTH",
"45 797.667 OFFCURVE",
"127.667 725 OFFCURVE",
"257 725 CURVE"
);
},
{
closed = 1;
nodes = (
"328 856 LINE",
"265.333 856 OFFCURVE",
"234 884.333 OFFCURVE",
"234 941 CURVE SMOOTH",
"234 1007.667 OFFCURVE",
"266.667 1038 OFFCURVE",
"384 1042 CURVE SMOOTH",
"476 1044 LINE",
"476 1017 LINE SMOOTH",
"476 930.333 OFFCURVE",
"409.333 856 OFFCURVE",
"328 856 CURVE"
);
}
);
width = 758;
}
);
note = ordfeminine;
unicode = 00AA;
},
{
glyphname = ordmasculine;
lastChange = "2020-03-13 21:34:11 +0000";
layers = (
{
layerId = "7129FC8E-08C2-4901-BA92-B1D794EB6D8E";
paths = (
{
closed = 1;
nodes = (
"713 1073 LINE",
"713 1297 OFFCURVE",
"592.333 1419 OFFCURVE",
"379 1419 CURVE SMOOTH",
"168.333 1419 OFFCURVE",
"45 1289 OFFCURVE",
"45 1073 CURVE SMOOTH",
"45 854.333 OFFCURVE",
"172.333 725 OFFCURVE",
"375 725 CURVE SMOOTH",
"587 725 OFFCURVE",
"713 857 OFFCURVE",
"713 1073 CURVE"
);
},
{
closed = 1;
nodes = (
"513 1073 LINE",
"513 930.333 OFFCURVE",
"474 865 OFFCURVE",
"374 865 CURVE SMOOTH",
"284.667 865 OFFCURVE",
"243 931.667 OFFCURVE",
"243 1073 CURVE SMOOTH",
"243 1211.667 OFFCURVE",
"283.667 1276 OFFCURVE",
"381 1276 CURVE SMOOTH",
"478.333 1276 OFFCURVE",
"513 1214.333 OFFCURVE",
"513 1073 CURVE"
);
}
);
width = 748;
}
);
note = ordmasculine;
unicode = 00BA;
},
{
glyphname = Ohm;
lastChange = "2020-03-13 21:34:11 +0000";
layers = (
{
layerId = "7129FC8E-08C2-4901-BA92-B1D794EB6D8E";
paths = (
{
closed = 1;
nodes = (
"787 1430 LINE",
"367 1430 OFFCURVE",
"113 1203.667 OFFCURVE",
"113 829 CURVE SMOOTH",
"113 542.333 OFFCURVE",
"250.333 345 OFFCURVE",
"529 217 CURVE",
"455.667 224.333 OFFCURVE",
"397.667 228 OFFCURVE",
"355 228 CURVE SMOOTH",
"85 228 LINE",
"85 0 LINE",
"721 0 LINE",
"721 309 LINE",
"513 410.333 OFFCURVE",
"408 552.667 OFFCURVE",
"408 774 CURVE SMOOTH",
"408 1044.667 OFFCURVE",
"548 1198 OFFCURVE",
"788 1198 CURVE SMOOTH",
"1029.333 1198 OFFCURVE",
"1168 1043.333 OFFCURVE",
"1168 774 CURVE SMOOTH",
"1168 556.667 OFFCURVE",
"1069.667 413 OFFCURVE",
"859 309 CURVE",
"859 0 LINE",
"1488 0 LINE",
"1488 228 LINE",
"1220 228 LINE SMOOTH",
"1179.333 228 OFFCURVE",
"1122.333 224.333 OFFCURVE",
"1049 217 CURVE",
"1323.667 346.333 OFFCURVE",
"1460 544 OFFCURVE",
"1460 828 CURVE SMOOTH",
"1460 1201.333 OFFCURVE",
"1207 1430 OFFCURVE",
"787 1430 CURVE"
);
}
);
width = 1573;
}
);
note = Ohm;
unicode = 2126;
},
{
glyphname = ae;
lastChange = "2020-03-13 21:34:11 +0000";
layers = (
{
layerId = "7129FC8E-08C2-4901-BA92-B1D794EB6D8E";
paths = (
{
closed = 1;
nodes = (
"1253 -20 LINE",
"1487.667 -20 OFFCURVE",
"1643.333 78 OFFCURVE",
"1720 274 CURVE",
"1455 297 LINE",
"1429 211 OFFCURVE",
"1366.333 168 OFFCURVE",
"1267 168 CURVE SMOOTH",
"1124.333 168 OFFCURVE",
"1042 281.333 OFFCURVE",
"1042 476 CURVE",
"1736 476 LINE",
"1736 495 LINE SMOOTH",
"1736 892.333 OFFCURVE",
"1567.667 1102 OFFCURVE",
"1257 1102 CURVE SMOOTH",
"1118.333 1102 OFFCURVE",
"1005.667 1066.333 OFFCURVE",
"919 995 CURVE",
"841.667 1066.333 OFFCURVE",
"730.667 1102 OFFCURVE",
"586 1102 CURVE SMOOTH",
"308.667 1102 OFFCURVE",
"149.667 990.333 OFFCURVE",
"115 781 CURVE",
"408 767 LINE",
"420 872.333 OFFCURVE",
"464.667 920 OFFCURVE",
"578 920 CURVE SMOOTH",
"695.333 920 OFFCURVE",
"746 855 OFFCURVE",
"746 711 CURVE SMOOTH",
"746 656 LINE",
"506 652 LINE SMOOTH",
"215.333 645.333 OFFCURVE",
"66 527.333 OFFCURVE",
"66 306 CURVE SMOOTH",
"66 100.667 OFFCURVE",
"191.333 -20 OFFCURVE",
"406 -20 CURVE SMOOTH",
"592.667 -20 OFFCURVE",
"730.333 56.333 OFFCURVE",
"819 209 CURVE",
"901.667 56.333 OFFCURVE",
"1046.333 -20 OFFCURVE",
"1253 -20 CURVE"
);
},
{
closed = 1;
nodes = (
"496 176 LINE",
"413.333 176 OFFCURVE",
"359 225.333 OFFCURVE",
"359 328 CURVE SMOOTH",
"359 408 OFFCURVE",
"389.667 454.167 OFFCURVE",
"447 477.5 CURVE SMOOTH",
"475.667 489.167 OFFCURVE",
"524.667 496.333 OFFCURVE",
"594 499 CURVE SMOOTH",
"746 501 LINE",
"746 456 LINE SMOOTH",
"746 360 OFFCURVE",
"700.333 267 OFFCURVE",
"623 215 CURVE SMOOTH",
"584.333 189 OFFCURVE",
"542 176 OFFCURVE",
"496 176 CURVE"
);
},
{
closed = 1;
nodes = (
"1253 925 LINE",
"1377 925 OFFCURVE",
"1453.333 837.667 OFFCURVE",
"1464 663 CURVE",
"1044 663 LINE",
"1048 828.333 OFFCURVE",
"1121 925 OFFCURVE",
"1253 925 CURVE"
);
}
);
width = 1821;
}
);
note = ae;
unicode = 00E6;
},
{
glyphname = oslash;
lastChange = "2020-03-13 21:34:11 +0000";
layers = (
{
layerId = "7129FC8E-08C2-4901-BA92-B1D794EB6D8E";
paths = (
{
closed = 1;
nodes = (
"1171 542 LINE",
"1171 704 OFFCURVE",
"1133.333 832.333 OFFCURVE",
"1058 927 CURVE",
"1242 1133 LINE",
"1058 1133 LINE",
"957 1019 LINE",
"869.667 1074.333 OFFCURVE",
"759.667 1102 OFFCURVE",
"627 1102 CURVE SMOOTH",
"281.667 1102 OFFCURVE",
"80 890 OFFCURVE",
"80 542 CURVE SMOOTH",
"80 384.667 OFFCURVE",
"119.333 257.333 OFFCURVE",
"198 160 CURVE",
"1 -55 LINE",
"184 -55 LINE",
"297 69 LINE",
"385 9.667 OFFCURVE",
"493 -20 OFFCURVE",
"621 -20 CURVE SMOOTH",
"965 -20 OFFCURVE",
"1171 191.333 OFFCURVE",
"1171 542 CURVE"
);
},
{
closed = 1;
nodes = (
"375 542 LINE",
"375 786.667 OFFCURVE",
"460.333 909 OFFCURVE",
"631 909 CURVE SMOOTH",
"703 909 OFFCURVE",
"759 886 OFFCURVE",
"799 840 CURVE",
"392 379 LINE",
"380.667 426.333 OFFCURVE",
"375 480.667 OFFCURVE",
"375 542 CURVE"
);
},
{
closed = 1;
nodes = (
"877 542 LINE",
"877 295.333 OFFCURVE",
"790.667 172 OFFCURVE",
"618 172 CURVE SMOOTH",
"550 172 OFFCURVE",
"495.333 196 OFFCURVE",
"454 244 CURVE",
"861 704 LINE",
"871.667 658.667 OFFCURVE",
"877 604.667 OFFCURVE",
"877 542 CURVE"
);
}
);
width = 1251;
}
);
note = oslash;
unicode = 00F8;
},
{
glyphname = questiondown;
lastChange = "2020-03-13 21:34:11 +0000";
layers = (
{
layerId = "7129FC8E-08C2-4901-BA92-B1D794EB6D8E";
paths = (
{
closed = 1;
nodes = (
"114 56 LINE",
"114 -196 OFFCURVE",
"306 -348 OFFCURVE",
"622 -348 CURVE SMOOTH",
"920.667 -348 OFFCURVE",
"1117 -189.667 OFFCURVE",
"1153 81 CURVE",
"868 93 LINE",
"852 -36.333 OFFCURVE",
"752.667 -122 OFFCURVE",
"618 -122 CURVE SMOOTH",
"476.667 -122 OFFCURVE",
"397 -49.333 OFFCURVE",
"397 68 CURVE SMOOTH",
"397 161.333 OFFCURVE",
"449.333 225 OFFCURVE",
"592 325 CURVE SMOOTH",
"724 415.667 OFFCURVE",
"793 520 OFFCURVE",
"801 656 CURVE",
"534 656 LINE",
"530 576 OFFCURVE",
"486.333 512.333 OFFCURVE",
"397 447 CURVE SMOOTH",
"320 392 LINE SMOOTH",
"161.333 278.667 OFFCURVE",
"114 185.333 OFFCURVE",
"114 56 CURVE"
);
},
{
closed = 1;
nodes = (
"809 1082 LINE",
"520 1082 LINE",
"520 812 LINE",
"809 812 LINE",
"809 1082 LINE"
);
}
);
width = 1251;
}
);
note = questiondown;
unicode = 00BF;
},
{
glyphname = exclamdown;
lastChange = "2020-03-13 21:34:11 +0000";
layers = (
{
layerId = "7129FC8E-08C2-4901-BA92-B1D794EB6D8E";
paths = (
{
closed = 1;
nodes = (
"200 812 LINE",
"488 812 LINE",
"488 1082 LINE",
"200 1082 LINE",
"200 812 LINE"
);
},
{
closed = 1;
nodes = (
"194 -327 LINE",
"488 -327 LINE",
"456 654 LINE",
"226 654 LINE",
"194 -327 LINE"
);
}
);
width = 682;
}
);
note = exclamdown;
unicode = 00A1;
},
{
glyphname = logicalnot;
lastChange = "2020-03-13 21:34:11 +0000";
layers = (
{
layerId = "7129FC8E-08C2-4901-BA92-B1D794EB6D8E";
paths = (
{
closed = 1;
nodes = (
"887 141 LINE",
"1111 141 LINE",
"1111 793 LINE",
"84 793 LINE",
"84 569 LINE",
"887 569 LINE",
"887 141 LINE"
);
}
);
width = 1196;
}
);
note = logicalnot;
unicode = 00AC;
},
{
glyphname = radical;
lastChange = "2020-03-13 21:34:11 +0000";
layers = (
{
layerId = "7129FC8E-08C2-4901-BA92-B1D794EB6D8E";
paths = (
{
closed = 1;
nodes = (
"624 -25 LINE",
"1130 1620 LINE",
"944 1620 LINE",
"532 260 LINE",
"313 895 LINE",
"2 895 LINE",
"2 729 LINE",
"186 729 LINE",
"456 -25 LINE",
"624 -25 LINE"
);
}
);
width = 1124;
}
);
note = radical;
unicode = 221A;
},
{
glyphname = florin;
lastChange = "2020-03-13 21:34:11 +0000";
layers = (
{
layerId = "7129FC8E-08C2-4901-BA92-B1D794EB6D8E";
paths = (
{
closed = 1;
nodes = (
"885 1277 LINE",
"885 1457 LINE",
"839.667 1474.333 OFFCURVE",
"768.667 1484 OFFCURVE",
"702 1484 CURVE SMOOTH",
"492.667 1484 OFFCURVE",
"392 1395 OFFCURVE",
"392 1195 CURVE SMOOTH",
"392 1082 LINE",
"234 1082 LINE",
"234 892 LINE",
"392 892 LINE",
"392 -425 LINE",
"672 -425 LINE",
"672 892 LINE",
"885 892 LINE",
"885 1082 LINE",
"672 1082 LINE",
"672 1167 LINE SMOOTH",
"672 1264.333 OFFCURVE",
"704.333 1294 OFFCURVE",
"779 1294 CURVE SMOOTH",
"805.667 1294 OFFCURVE",
"855.667 1286.333 OFFCURVE",
"885 1277 CURVE"
);
}
);
width = 1139;
}
);
note = florin;
unicode = 0192;
},
{
glyphname = approxequal;
lastChange = "2020-03-13 21:34:11 +0000";
layers = (
{
layerId = "7129FC8E-08C2-4901-BA92-B1D794EB6D8E";
paths = (
{
closed = 1;
nodes = (
"814 756 LINE",
"926 756 OFFCURVE",
"997 776 OFFCURVE",
"1081 836 CURVE",
"1081 1055 LINE",
"1005 993.667 OFFCURVE",
"922.333 963 OFFCURVE",
"833 963 CURVE SMOOTH",
"780.333 963 OFFCURVE",
"713.667 977.333 OFFCURVE",
"633 1006 CURVE SMOOTH",
"538.333 1038 OFFCURVE",
"470.333 1058.167 OFFCURVE",
"429 1066.5 CURVE SMOOTH",
"387.667 1074.833 OFFCURVE",
"349.333 1079 OFFCURVE",
"314 1079 CURVE SMOOTH",
"206.667 1079 OFFCURVE",
"116.333 1051 OFFCURVE",
"43 995 CURVE",
"43 782 LINE",
"136.333 847.333 OFFCURVE",
"208.667 870 OFFCURVE",
"298 870 CURVE SMOOTH",
"357.333 870 OFFCURVE",
"431 854.333 OFFCURVE",
"519 823 CURVE SMOOTH",
"619 788.333 OFFCURVE",
"714 756 OFFCURVE",
"814 756 CURVE"
);
},
{
closed = 1;
nodes = (
"814 274 LINE",
"928.667 274 OFFCURVE",
"995.667 295.333 OFFCURVE",
"1081 354 CURVE",
"1081 573 LINE",
"1005 511.667 OFFCURVE",
"922.333 481 OFFCURVE",
"833 481 CURVE SMOOTH",
"814.333 481 OFFCURVE",
"793.333 483.167 OFFCURVE",
"770 487.5 CURVE SMOOTH",
"746.667 491.833 OFFCURVE",
"701 504.667 OFFCURVE",
"633 526 CURVE SMOOTH",
"531.667 560.667 OFFCURVE",
"424.667 598 OFFCURVE",
"314 598 CURVE SMOOTH",
"208.667 598 OFFCURVE",
"118.333 570 OFFCURVE",
"43 514 CURVE",
"43 301 LINE",
"129.667 361 OFFCURVE",
"203.333 389 OFFCURVE",
"298 389 CURVE SMOOTH",
"359.333 389 OFFCURVE",
"433 374 OFFCURVE",
"519 344 CURVE SMOOTH",
"619 309.333 OFFCURVE",
"714 274 OFFCURVE",
"814 274 CURVE"
);
}
);
width = 1124;
}
);
note = approxequal;
unicode = 2248;
},
{
glyphname = uni2206;
lastChange = "2020-03-13 21:34:11 +0000";
layers = (
{
layerId = "7129FC8E-08C2-4901-BA92-B1D794EB6D8E";
paths = (
{
closed = 1;
nodes = (
"43 0 LINE",
"1209 0 LINE",
"1209 215 LINE",
"808 1409 LINE",
"440 1409 LINE",
"43 215 LINE",
"43 0 LINE"
);
},
{
closed = 1;
nodes = (
"624 1208 LINE",
"626 1198 OFFCURVE",
"723.333 872.333 OFFCURVE",
"916 231 CURVE",
"336 231 LINE",
"543 920 LINE",
"615 1174 LINE",
"624 1208 LINE"
);
}
);
width = 1253;
}
);
note = uni2206;
unicode = 2206;
},
{
glyphname = guillemotleft;
lastChange = "2020-03-13 21:34:11 +0000";
layers = (
{
layerId = "7129FC8E-08C2-4901-BA92-B1D794EB6D8E";
paths = (
{
closed = 1;
nodes = (
"807 141 LINE",
"1047 141 LINE",
"1047 176 LINE",
"791 537 LINE",
"1045 903 LINE",
"1045 940 LINE",
"807 940 LINE",
"551 573 LINE",
"551 502 LINE",
"807 141 LINE"
);
},
{
closed = 1;
nodes = (
"350 141 LINE",
"588 141 LINE",
"588 176 LINE",
"332 537 LINE",
"586 903 LINE",
"586 940 LINE",
"350 940 LINE",
"92 573 LINE",
"92 502 LINE",
"350 141 LINE"
);
}
);
width = 1139;
}
);
note = guillemotleft;
unicode = 00AB;
},
{
glyphname = guillemotright;
lastChange = "2020-03-13 21:34:11 +0000";
layers = (
{
layerId = "7129FC8E-08C2-4901-BA92-B1D794EB6D8E";
paths = (
{
closed = 1;
nodes = (
"93 141 LINE",
"333 141 LINE",
"589 502 LINE",
"589 573 LINE",
"333 940 LINE",
"95 940 LINE",
"95 903 LINE",
"349 537 LINE",
"93 176 LINE",
"93 141 LINE"
);
},
{
closed = 1;
nodes = (
"552 141 LINE",
"790 141 LINE",
"1048 502 LINE",
"1048 573 LINE",
"790 940 LINE",
"554 940 LINE",
"554 903 LINE",
"808 537 LINE",
"552 176 LINE",
"552 141 LINE"
);
}
);
width = 1139;
}
);
note = guillemotright;
unicode = 00BB;
},
{
glyphname = ellipsis;
lastChange = "2020-03-13 21:34:11 +0000";
layers = (
{
layerId = "7129FC8E-08C2-4901-BA92-B1D794EB6D8E";
paths = (
{
closed = 1;
nodes = (
"1528 0 LINE",
"1816 0 LINE",
"1816 305 LINE",
"1528 305 LINE",
"1528 0 LINE"
);
},
{
closed = 1;
nodes = (
"880 0 LINE",
"1166 0 LINE",
"1166 305 LINE",
"880 305 LINE",
"880 0 LINE"
);
},
{
closed = 1;
nodes = (
"225 0 LINE",
"513 0 LINE",
"513 305 LINE",
"225 305 LINE",
"225 0 LINE"
);
}
);
width = 2048;
}
);
note = ellipsis;
unicode = 2026;
},
{
glyphname = OE;
lastChange = "2020-03-13 21:34:11 +0000";
layers = (
{
layerId = "7129FC8E-08C2-4901-BA92-B1D794EB6D8E";
paths = (
{
closed = 1;
nodes = (
"992 0 LINE",
"1968 0 LINE",
"1968 227 LINE",
"1260 227 LINE",
"1260 606 LINE",
"1866 606 LINE",
"1866 827 LINE",
"1260 827 LINE",
"1260 1182 LINE",
"1927 1182 LINE",
"1927 1409 LINE",
"998 1409 LINE",
"910 1416.333 OFFCURVE",
"842.333 1420 OFFCURVE",
"795 1420 CURVE SMOOTH",
"347 1420 OFFCURVE",
"84 1161.667 OFFCURVE",
"84 711 CURVE SMOOTH",
"84 260.333 OFFCURVE",
"347.667 -10 OFFCURVE",
"793 -10 CURVE SMOOTH",
"829 -10 OFFCURVE",
"864.833 -8.667 OFFCURVE",
"900.5 -6 CURVE SMOOTH",
"936.167 -3.333 OFFCURVE",
"966.667 -1.333 OFFCURVE",
"992 0 CURVE"
);
},
{
closed = 1;
nodes = (
"963 1169 LINE",
"963 242 LINE",
"927 228.667 OFFCURVE",
"870.333 222 OFFCURVE",
"793 222 CURVE SMOOTH",
"535.667 222 OFFCURVE",
"381 405.667 OFFCURVE",
"381 711 CURVE SMOOTH",
"381 1015 OFFCURVE",
"528.333 1188 OFFCURVE",
"795 1188 CURVE SMOOTH",
"859.667 1188 OFFCURVE",
"915.667 1181.667 OFFCURVE",
"963 1169 CURVE"
);
}
);
width = 2048;
}
);
note = OE;
unicode = 0152;
},
{
glyphname = oe;
lastChange = "2020-03-13 21:34:11 +0000";
layers = (
{
layerId = "7129FC8E-08C2-4901-BA92-B1D794EB6D8E";
paths = (
{
closed = 1;
nodes = (
"1384 -20 LINE",
"1618.667 -20 OFFCURVE",
"1774.333 78 OFFCURVE",
"1851 274 CURVE",
"1586 297 LINE",
"1560 211 OFFCURVE",
"1497.333 168 OFFCURVE",
"1398 168 CURVE SMOOTH",
"1255.333 168 OFFCURVE",
"1173 281.333 OFFCURVE",
"1173 476 CURVE",
"1867 476 LINE",
"1867 495 LINE SMOOTH",
"1867 892.333 OFFCURVE",
"1698.667 1102 OFFCURVE",
"1388 1102 CURVE SMOOTH",
"1232.667 1102 OFFCURVE",
"1110.333 1051 OFFCURVE",
"1021 949 CURVE",
"929 1051 OFFCURVE",
"797.667 1102 OFFCURVE",
"627 1102 CURVE SMOOTH",
"281.667 1102 OFFCURVE",
"80 890 OFFCURVE",
"80 542 CURVE SMOOTH",
"80 192.667 OFFCURVE",
"283.667 -20 OFFCURVE",
"621 -20 CURVE SMOOTH",
"787.667 -20 OFFCURVE",
"919 33 OFFCURVE",
"1015 139 CURVE",
"1102.333 33 OFFCURVE",
"1225.333 -20 OFFCURVE",
"1384 -20 CURVE"
);
},
{
closed = 1;
nodes = (
"877 542 LINE",
"877 295.333 OFFCURVE",
"790.667 172 OFFCURVE",
"618 172 CURVE SMOOTH",
"460.667 172 OFFCURVE",
"375 300.667 OFFCURVE",
"375 542 CURVE SMOOTH",
"375 786.667 OFFCURVE",
"460.333 909 OFFCURVE",
"631 909 CURVE SMOOTH",
"791 909 OFFCURVE",
"877 799.333 OFFCURVE",
"877 542 CURVE"
);
},
{
closed = 1;
nodes = (
"1384 925 LINE",
"1508 925 OFFCURVE",
"1584.333 837.667 OFFCURVE",
"1595 663 CURVE",
"1175 663 LINE",
"1179 828.333 OFFCURVE",
"1252 925 OFFCURVE",
"1384 925 CURVE"
);
}
);
width = 1933;
}
);
note = oe;
unicode = 0153;
},
{
glyphname = endash;
lastChange = "2020-03-13 21:34:11 +0000";
layers = (
{
layerId = "7129FC8E-08C2-4901-BA92-B1D794EB6D8E";
paths = (
{
closed = 1;
nodes = (
"62 448 LINE",
"1076 448 LINE",
"1076 651 LINE",
"62 651 LINE",
"62 448 LINE"
);
}
);
width = 1139;
}
);
note = endash;
unicode = 2013;
},
{
glyphname = emdash;
lastChange = "2020-03-13 21:34:11 +0000";
layers = (
{
layerId = "7129FC8E-08C2-4901-BA92-B1D794EB6D8E";
paths = (
{
closed = 1;
nodes = (
"0 448 LINE",
"2048 448 LINE",
"2048 651 LINE",
"0 651 LINE",
"0 448 LINE"
);
}
);
width = 2048;
}
);
note = emdash;
unicode = 2014;
},
{
glyphname = quotedblleft;
lastChange = "2020-03-13 21:34:11 +0000";
layers = (
{
layerId = "7129FC8E-08C2-4901-BA92-B1D794EB6D8E";
paths = (
{
closed = 1;
nodes = (
"579 831 LINE",
"868 831 LINE",
"868 1092 LINE",
"741 1092 LINE",
"741 1188 OFFCURVE",
"789.333 1305 OFFCURVE",
"872 1409 CURVE",
"690 1409 LINE",
"614 1306.333 OFFCURVE",
"579 1191.333 OFFCURVE",
"579 1026 CURVE SMOOTH",
"579 831 LINE"
);
},
{
closed = 1;
nodes = (
"151 831 LINE",
"438 831 LINE",
"438 1092 LINE",
"311 1092 LINE",
"311 1188 OFFCURVE",
"359.333 1305 OFFCURVE",
"442 1409 CURVE",
"259 1409 LINE",
"184.333 1306.333 OFFCURVE",
"151 1187.333 OFFCURVE",
"151 1026 CURVE SMOOTH",
"151 831 LINE"
);
}
);
width = 1024;
}
);
note = quotedblleft;
unicode = 201C;
},
{
glyphname = quotedblright;
lastChange = "2020-03-13 21:34:11 +0000";
layers = (
{
layerId = "7129FC8E-08C2-4901-BA92-B1D794EB6D8E";
paths = (
{
closed = 1;
nodes = (
"872 1217 LINE",
"872 1409 LINE",
"585 1409 LINE",
"585 1149 LINE",
"712 1149 LINE",
"712 1049 OFFCURVE",
"667.667 943 OFFCURVE",
"579 831 CURVE",
"763 831 LINE",
"840.333 937.667 OFFCURVE",
"872 1055.667 OFFCURVE",
"872 1217 CURVE"
);
},
{
closed = 1;
nodes = (
"442 1217 LINE",
"442 1409 LINE",
"155 1409 LINE",
"155 1149 LINE",
"282 1149 LINE",
"282 1049 OFFCURVE",
"238.333 943 OFFCURVE",
"151 831 CURVE",
"333 831 LINE",
"411.667 940.333 OFFCURVE",
"442 1050.333 OFFCURVE",
"442 1217 CURVE"
);
}
);
width = 1024;
}
);
note = quotedblright;
unicode = 201D;
},
{
glyphname = quoteleft;
lastChange = "2020-03-13 21:34:11 +0000";
layers = (
{
layerId = "7129FC8E-08C2-4901-BA92-B1D794EB6D8E";
paths = (
{
closed = 1;
nodes = (
"139 831 LINE",
"426 831 LINE",
"426 1092 LINE",
"299 1092 LINE",
"299 1188 OFFCURVE",
"347.333 1305 OFFCURVE",
"430 1409 CURVE",
"247 1409 LINE",
"172.333 1306.333 OFFCURVE",
"139 1187.333 OFFCURVE",
"139 1026 CURVE SMOOTH",
"139 831 LINE"
);
}
);
width = 569;
}
);
note = quoteleft;
unicode = 2018;
},
{
glyphname = quoteright;
lastChange = "2020-03-13 21:34:11 +0000";
layers = (
{
layerId = "7129FC8E-08C2-4901-BA92-B1D794EB6D8E";
paths = (
{
closed = 1;
nodes = (
"430 1214 LINE",
"430 1409 LINE",
"143 1409 LINE",
"143 1149 LINE",
"270 1149 LINE",
"270 1049 OFFCURVE",
"226.333 943 OFFCURVE",
"139 831 CURVE",
"321 831 LINE",
"401 943 OFFCURVE",
"430 1052.667 OFFCURVE",
"430 1214 CURVE"
);
}
);
width = 569;
}
);
note = quoteright;
unicode = 2019;
},
{
glyphname = divide;
lastChange = "2020-03-13 21:34:11 +0000";
layers = (
{
layerId = "7129FC8E-08C2-4901-BA92-B1D794EB6D8E";
paths = (
{
closed = 1;
nodes = (
"442 961 LINE",
"680 961 LINE",
"680 1194 LINE",
"442 1194 LINE",
"442 961 LINE"
);
},
{
closed = 1;
nodes = (
"49 569 LINE",
"1076 569 LINE",
"1076 793 LINE",
"49 793 LINE",
"49 569 LINE"
);
},
{
closed = 1;
nodes = (
"442 170 LINE",
"680 170 LINE",
"680 403 LINE",
"442 403 LINE",
"442 170 LINE"
);
}
);
width = 1124;
}
);
note = divide;
unicode = 00F7;
},
{
glyphname = lozenge;
lastChange = "2020-03-13 21:34:11 +0000";
layers = (
{
layerId = "7129FC8E-08C2-4901-BA92-B1D794EB6D8E";
paths = (
{
closed = 1;
nodes = (
"558 0 LINE",
"1012 723 LINE",
"558 1446 LINE",
"454 1446 LINE",
"3 721 LINE",
"454 0 LINE",
"558 0 LINE"
);
},
{
closed = 1;
nodes = (
"507 1204 LINE",
"796 723 LINE",
"507 229 LINE",
"218 723 LINE",
"507 1204 LINE"
);
}
);
width = 1012;
}
);
note = lozenge;
unicode = 25CA;
},
{
glyphname = fraction;
lastChange = "2020-03-13 21:34:11 +0000";
layers = (
{
layerId = "7129FC8E-08C2-4901-BA92-B1D794EB6D8E";
paths = (
{
closed = 1;
nodes = (
"-176 0 LINE",
"719 1409 LINE",
"518 1409 LINE",
"-377 0 LINE",
"-176 0 LINE"
);
}
);
width = 342;
}
);
note = fraction;
unicode = "2044,2215";
},
{
glyphname = Euro;
lastChange = "2020-03-13 21:34:11 +0000";
layers = (
{
layerId = "7129FC8E-08C2-4901-BA92-B1D794EB6D8E";
paths = (
{
closed = 1;
nodes = (
"658 199 LINE",
"523.333 199 OFFCURVE",
"446.667 302.667 OFFCURVE",
"428 510 CURVE",
"732 510 LINE",
"762 659 LINE",
"422 659 LINE",
"419 710 LINE",
"421 766 LINE",
"724 766 LINE",
"753 915 LINE",
"426 915 LINE",
"446 1120.333 OFFCURVE",
"513 1211 OFFCURVE",
"645 1211 CURVE SMOOTH",
"743.667 1211 OFFCURVE",
"799.667 1153.667 OFFCURVE",
"813 1055 CURVE",
"1093 1071 LINE",
"1054.333 1299 OFFCURVE",
"896.667 1430 OFFCURVE",
"654 1430 CURVE SMOOTH",
"351.333 1430 OFFCURVE",
"179 1258.333 OFFCURVE",
"137 915 CURVE",
"50 915 LINE",
"10 766 LINE",
"127 766 LINE",
"125 710 LINE",
"127 659 LINE",
"50 659 LINE",
"10 510 LINE",
"139 510 LINE",
"177.667 158 OFFCURVE",
"352.667 -20 OFFCURVE",
"654 -20 CURVE SMOOTH",
"906 -20 OFFCURVE",
"1061.667 106.333 OFFCURVE",
"1103 357 CURVE",
"826 373 LINE",
"812.667 263.667 OFFCURVE",
"754 199 OFFCURVE",
"658 199 CURVE"
);
}
);
width = 1139;
}
);
note = Euro;
unicode = 20AC;
},
{
glyphname = guilsinglleft;
lastChange = "2020-03-13 21:34:11 +0000";
layers = (
{
layerId = "7129FC8E-08C2-4901-BA92-B1D794EB6D8E";
paths = (
{
closed = 1;
nodes = (
"350 141 LINE",
"588 141 LINE",
"588 176 LINE",
"332 537 LINE",
"586 903 LINE",
"586 940 LINE",
"350 940 LINE",
"92 573 LINE",
"92 502 LINE",
"350 141 LINE"
);
}
);
width = 682;
}
);
note = guilsinglleft;
unicode = 2039;
},
{
glyphname = guilsinglright;
lastChange = "2020-03-13 21:34:11 +0000";
layers = (
{
layerId = "7129FC8E-08C2-4901-BA92-B1D794EB6D8E";
paths = (
{
closed = 1;
nodes = (
"93 141 LINE",
"333 141 LINE",
"589 502 LINE",
"589 573 LINE",
"333 940 LINE",
"95 940 LINE",
"95 903 LINE",
"349 537 LINE",
"93 176 LINE",
"93 141 LINE"
);
}
);
width = 682;
}
);
note = guilsinglright;
unicode = 203A;
},
{
glyphname = fi;
lastChange = "2020-03-13 21:34:11 +0000";
layers = (
{
layerId = "7129FC8E-08C2-4901-BA92-B1D794EB6D8E";
paths = (
{
closed = 1;
nodes = (
"825 1277 LINE",
"1106 1277 LINE",
"1106 1484 LINE",
"825 1484 LINE",
"825 1277 LINE"
);
},
{
closed = 1;
nodes = (
"825 0 LINE",
"1106 0 LINE",
"1106 1082 LINE",
"825 1082 LINE",
"825 0 LINE"
);
},
{
closed = 1;
nodes = (
"473 892 LINE",
"686 892 LINE",
"686 1082 LINE",
"473 1082 LINE",
"473 1167 LINE SMOOTH",
"473 1263 OFFCURVE",
"508 1296 OFFCURVE",
"604 1296 CURVE SMOOTH",
"631.333 1296 OFFCURVE",
"658.667 1293 OFFCURVE",
"686 1287 CURVE",
"686 1468 LINE",
"620 1478.667 OFFCURVE",
"560.667 1484 OFFCURVE",
"508 1484 CURVE SMOOTH",
"296 1484 OFFCURVE",
"193 1391 OFFCURVE",
"193 1195 CURVE SMOOTH",
"193 1082 LINE",
"35 1082 LINE",
"35 892 LINE",
"193 892 LINE",
"193 0 LINE",
"473 0 LINE",
"473 892 LINE"
);
}
);
width = 1251;
}
);
note = fi;
unicode = "F001,FB01";
},
{
glyphname = fl;
lastChange = "2020-03-13 21:34:11 +0000";
layers = (
{
layerId = "7129FC8E-08C2-4901-BA92-B1D794EB6D8E";
paths = (
{
closed = 1;
nodes = (
"826 0 LINE",
"1106 0 LINE",
"1106 1484 LINE",
"826 1484 LINE",
"826 0 LINE"
);
},
{
closed = 1;
nodes = (
"473 892 LINE",
"686 892 LINE",
"686 1082 LINE",
"473 1082 LINE",
"473 1167 LINE SMOOTH",
"473 1263 OFFCURVE",
"508 1296 OFFCURVE",
"604 1296 CURVE SMOOTH",
"631.333 1296 OFFCURVE",
"658.667 1293 OFFCURVE",
"686 1287 CURVE",
"686 1468 LINE",
"620 1478.667 OFFCURVE",
"560.667 1484 OFFCURVE",
"508 1484 CURVE SMOOTH",
"296 1484 OFFCURVE",
"193 1391 OFFCURVE",
"193 1195 CURVE SMOOTH",
"193 1082 LINE",
"35 1082 LINE",
"35 892 LINE",
"193 892 LINE",
"193 0 LINE",
"473 0 LINE",
"473 892 LINE"
);
}
);
width = 1251;
}
);
note = fl;
unicode = "F002,FB02";
},
{
glyphname = daggerdbl;
lastChange = "2020-03-13 21:34:11 +0000";
layers = (
{
layerId = "7129FC8E-08C2-4901-BA92-B1D794EB6D8E";
paths = (
{
closed = 1;
nodes = (
"478 980 LINE",
"504 670 LINE",
"478 363 LINE",
"136 390 LINE",
"136 186 LINE",
"478 215 LINE",
"462 -141 LINE",
"677 -141 LINE",
"661 215 LINE",
"1001 186 LINE",
"1001 390 LINE",
"661 363 LINE",
"635 670 LINE",
"661 980 LINE",
"1002 953 LINE",
"1002 1157 LINE",
"661 1128 LINE",
"677 1484 LINE",
"462 1484 LINE",
"478 1128 LINE",
"137 1157 LINE",
"137 953 LINE",
"478 980 LINE"
);
}
);
width = 1139;
}
);
note = daggerdbl;
unicode = 2021;
},
{
glyphname = periodcentered;
lastChange = "2020-03-13 21:34:11 +0000";
layers = (
{
layerId = "7129FC8E-08C2-4901-BA92-B1D794EB6D8E";
paths = (
{
closed = 1;
nodes = (
"141 531 LINE",
"429 531 LINE",
"429 836 LINE",
"141 836 LINE",
"141 531 LINE"
);
}
);
width = 569;
}
);
note = periodcentered;
unicode = 2219;
},
{
glyphname = quotesinglbase;
lastChange = "2020-03-13 21:34:11 +0000";
layers = (
{
layerId = "7129FC8E-08C2-4901-BA92-B1D794EB6D8E";
paths = (
{
closed = 1;
nodes = (
"431 66 LINE",
"431 260 LINE",
"143 260 LINE",
"143 0 LINE",
"272 0 LINE",
"272 -97.333 OFFCURVE",
"222 -215.667 OFFCURVE",
"138 -317 CURVE",
"323 -317 LINE",
"399 -211.667 OFFCURVE",
"431 -94 OFFCURVE",
"431 66 CURVE"
);
}
);
width = 569;
}
);
note = quotesinglbase;
unicode = 201A;
},
{
glyphname = quotedblbase;
lastChange = "2020-03-13 21:34:11 +0000";
layers = (
{
layerId = "7129FC8E-08C2-4901-BA92-B1D794EB6D8E";
paths = (
{
closed = 1;
nodes = (
"872 66 LINE",
"872 260 LINE",
"585 260 LINE",
"585 0 LINE",
"712 0 LINE",
"712 -101.333 OFFCURVE",
"657.667 -222.333 OFFCURVE",
"579 -317 CURVE",
"763 -317 LINE",
"839 -213 OFFCURVE",
"872 -94 OFFCURVE",
"872 66 CURVE"
);
},
{
closed = 1;
nodes = (
"442 66 LINE",
"442 260 LINE",
"155 260 LINE",
"155 0 LINE",
"282 0 LINE",
"282 -96 OFFCURVE",
"233.667 -213 OFFCURVE",
"151 -317 CURVE",
"333 -317 LINE",
"411.667 -210.333 OFFCURVE",
"442 -99.333 OFFCURVE",
"442 66 CURVE"
);
}
);
width = 1024;
}
);
note = quotedblbase;
unicode = 201E;
},
{
glyphname = perthousand;
lastChange = "2020-03-13 21:34:11 +0000";
layers = (
{
layerId = "7129FC8E-08C2-4901-BA92-B1D794EB6D8E";
paths = (
{
closed = 1;
nodes = (
"382 0 LINE",
"1196 1409 LINE",
"997 1409 LINE",
"185 0 LINE",
"382 0 LINE"
);
},
{
closed = 1;
nodes = (
"331 1419 LINE",
"132.333 1419 OFFCURVE",
"41 1303.667 OFFCURVE",
"41 1061 CURVE SMOOTH",
"41 826.333 OFFCURVE",
"139 702 OFFCURVE",
"327 702 CURVE SMOOTH",
"516.333 702 OFFCURVE",
"616 831.667 OFFCURVE",
"616 1061 CURVE SMOOTH",
"616 1299.667 OFFCURVE",
"521 1419 OFFCURVE",
"331 1419 CURVE"
);
},
{
closed = 1;
nodes = (
"440 1061 LINE",
"440 976.333 OFFCURVE",
"431.333 916.167 OFFCURVE",
"414 880.5 CURVE SMOOTH",
"396.667 844.833 OFFCURVE",
"368.333 827 OFFCURVE",
"329 827 CURVE SMOOTH",
"287.667 827 OFFCURVE",
"258.5 845.333 OFFCURVE",
"241.5 882 CURVE SMOOTH",
"224.5 918.667 OFFCURVE",
"216 978.333 OFFCURVE",
"216 1061 CURVE SMOOTH",
"216 1147.667 OFFCURVE",
"224.667 1208.333 OFFCURVE",
"242 1243 CURVE SMOOTH",
"259.333 1277.667 OFFCURVE",
"289 1295 OFFCURVE",
"331 1295 CURVE SMOOTH",
"371 1295 OFFCURVE",
"399.167 1276.667 OFFCURVE",
"415.5 1240 CURVE SMOOTH",
"431.833 1203.333 OFFCURVE",
"440 1143.667 OFFCURVE",
"440 1061 CURVE"
);
},
{
closed = 1;
nodes = (
"1057 714 LINE",
"858.333 714 OFFCURVE",
"767 598.667 OFFCURVE",
"767 356 CURVE SMOOTH",
"767 121.333 OFFCURVE",
"865 -3 OFFCURVE",
"1053 -3 CURVE SMOOTH",
"1242.333 -3 OFFCURVE",
"1342 126.667 OFFCURVE",
"1342 356 CURVE SMOOTH",
"1342 594.667 OFFCURVE",
"1247 714 OFFCURVE",
"1057 714 CURVE"
);
},
{
closed = 1;
nodes = (
"1166 356 LINE",
"1166 271.333 OFFCURVE",
"1157.333 211.167 OFFCURVE",
"1140 175.5 CURVE SMOOTH",
"1122.667 139.833 OFFCURVE",
"1094.333 122 OFFCURVE",
"1055 122 CURVE SMOOTH",
"1013 122 OFFCURVE",
"983.5 140.333 OFFCURVE",
"966.5 177 CURVE SMOOTH",
"949.5 213.667 OFFCURVE",
"941 273.333 OFFCURVE",
"941 356 CURVE SMOOTH",
"941 524 OFFCURVE",
"970.333 590 OFFCURVE",
"1057 590 CURVE SMOOTH",
"1097 590 OFFCURVE",
"1125.167 571.667 OFFCURVE",
"1141.5 535 CURVE SMOOTH",
"1157.833 498.333 OFFCURVE",
"1166 438.667 OFFCURVE",
"1166 356 CURVE"
);
},
{
closed = 1;
nodes = (
"1722 714 LINE",
"1523.333 714 OFFCURVE",
"1432 598.667 OFFCURVE",
"1432 356 CURVE SMOOTH",
"1432 121.333 OFFCURVE",
"1530 -3 OFFCURVE",
"1718 -3 CURVE SMOOTH",
"1907.333 -3 OFFCURVE",
"2007 122.667 OFFCURVE",
"2007 356 CURVE SMOOTH",
"2007 594.667 OFFCURVE",
"1912 714 OFFCURVE",
"1722 714 CURVE"
);
},
{
closed = 1;
nodes = (
"1831 356 LINE",
"1831 271.333 OFFCURVE",
"1822.333 211.167 OFFCURVE",
"1805 175.5 CURVE SMOOTH",
"1787.667 139.833 OFFCURVE",
"1759.333 122 OFFCURVE",
"1720 122 CURVE SMOOTH",
"1678.667 122 OFFCURVE",
"1649.5 140.333 OFFCURVE",
"1632.5 177 CURVE SMOOTH",
"1615.5 213.667 OFFCURVE",
"1607 273.333 OFFCURVE",
"1607 356 CURVE SMOOTH",
"1607 442.667 OFFCURVE",
"1615.667 503.333 OFFCURVE",
"1633 538 CURVE SMOOTH",
"1650.333 572.667 OFFCURVE",
"1680 590 OFFCURVE",
"1722 590 CURVE SMOOTH",
"1762 590 OFFCURVE",
"1790.167 571.667 OFFCURVE",
"1806.5 535 CURVE SMOOTH",
"1822.833 498.333 OFFCURVE",
"1831 438.667 OFFCURVE",
"1831 356 CURVE"
);
}
);
width = 2048;
}
);
note = perthousand;
unicode = 2030;
},
{
glyphname = dotlessi;
lastChange = "2020-03-13 21:34:11 +0000";
layers = (
{
layerId = "7129FC8E-08C2-4901-BA92-B1D794EB6D8E";
paths = (
{
closed = 1;
nodes = (
"145 0 LINE",
"426 0 LINE",
"426 1082 LINE",
"145 1082 LINE",
"145 0 LINE"
);
}
);
width = 569;
}
);
note = dotlessi;
unicode = 0131;
},
{
glyphname = circumflex;
lastChange = "2020-03-13 21:34:11 +0000";
layers = (
{
layerId = "7129FC8E-08C2-4901-BA92-B1D794EB6D8E";
paths = (
{
closed = 1;
nodes = (
"737 1211 LINE",
"487 1529 LINE",
"258 1529 LINE",
"0 1211 LINE",
"0 1183 LINE",
"160 1183 LINE",
"371 1375 LINE",
"375 1375 LINE",
"578 1183 LINE",
"737 1183 LINE",
"737 1211 LINE"
);
}
);
width = 682;
}
);
note = circumflex;
unicode = 02C6;
},
{
glyphname = tilde;
lastChange = "2020-03-13 21:34:11 +0000";
layers = (
{
layerId = "7129FC8E-08C2-4901-BA92-B1D794EB6D8E";
paths = (
{
closed = 1;
nodes = (
"543 1183 LINE",
"680.333 1183 OFFCURVE",
"756.667 1266.667 OFFCURVE",
"766 1476 CURVE",
"631 1476 LINE",
"612.333 1377.333 OFFCURVE",
"585.333 1353 OFFCURVE",
"532 1353 CURVE SMOOTH",
"451.049 1353 OFFCURVE",
"322.263 1476 OFFCURVE",
"211 1476 CURVE SMOOTH",
"109.667 1476 OFFCURVE",
"51.167 1427.833 OFFCURVE",
"18.5 1352.5 CURVE SMOOTH",
"2.167 1314.833 OFFCURVE",
"-8.667 1258.333 OFFCURVE",
"-14 1183 CURVE",
"123 1183 LINE",
"141.667 1285.667 OFFCURVE",
"166.333 1306 OFFCURVE",
"221 1306 CURVE SMOOTH",
"305.608 1306 OFFCURVE",
"432.778 1183 OFFCURVE",
"543 1183 CURVE"
);
}
);
width = 682;
}
);
note = tilde;
unicode = 02DC;
},
{
glyphname = macron;
lastChange = "2020-03-13 21:34:11 +0000";
layers = (
{
layerId = "7129FC8E-08C2-4901-BA92-B1D794EB6D8E";
paths = (
{
closed = 1;
nodes = (
"36 1371 LINE",
"36 1203 LINE",
"648 1203 LINE",
"648 1371 LINE",
"36 1371 LINE"
);
}
);
width = 682;
}
);
note = macron;
unicode = 02C9;
},
{
glyphname = breve;
lastChange = "2020-03-13 21:34:11 +0000";
layers = (
{
layerId = "7129FC8E-08C2-4901-BA92-B1D794EB6D8E";
paths = (
{
closed = 1;
nodes = (
"295 1183 LINE",
"499 1183 OFFCURVE",
"627 1308.667 OFFCURVE",
"651 1506 CURVE",
"487 1506 LINE",
"468.333 1400.667 OFFCURVE",
"391.667 1340 OFFCURVE",
"297 1340 CURVE SMOOTH",
"202.333 1340 OFFCURVE",
"127.333 1403.333 OFFCURVE",
"106 1506 CURVE",
"-57 1506 LINE",
"-42.333 1318 OFFCURVE",
"93.667 1183 OFFCURVE",
"295 1183 CURVE"
);
}
);
width = 682;
}
);
note = breve;
unicode = 02D8;
},
{
glyphname = dotaccent;
lastChange = "2020-03-13 21:34:11 +0000";
layers = (
{
layerId = "7129FC8E-08C2-4901-BA92-B1D794EB6D8E";
paths = (
{
closed = 1;
nodes = (
"200 1277 LINE",
"481 1277 LINE",
"481 1484 LINE",
"200 1484 LINE",
"200 1277 LINE"
);
}
);
width = 682;
}
);
note = dotaccent;
unicode = 02D9;
},
{
glyphname = ring;
lastChange = "2020-03-13 21:34:11 +0000";
layers = (
{
layerId = "7129FC8E-08C2-4901-BA92-B1D794EB6D8E";
paths = (
{
closed = 1;
nodes = (
"547 1390 LINE",
"547 1530 OFFCURVE",
"433 1644 OFFCURVE",
"293 1644 CURVE SMOOTH",
"153 1644 OFFCURVE",
"39 1530 OFFCURVE",
"39 1390 CURVE SMOOTH",
"39 1250 OFFCURVE",
"150.333 1136 OFFCURVE",
"293 1136 CURVE SMOOTH",
"435.667 1136 OFFCURVE",
"547 1250 OFFCURVE",
"547 1390 CURVE"
);
},
{
closed = 1;
nodes = (
"420 1390 LINE",
"420 1318 OFFCURVE",
"363.667 1262 OFFCURVE",
"293 1262 CURVE SMOOTH",
"225 1262 OFFCURVE",
"168 1315.333 OFFCURVE",
"168 1390 CURVE SMOOTH",
"168 1460.667 OFFCURVE",
"225 1515 OFFCURVE",
"293 1515 CURVE SMOOTH",
"365 1515 OFFCURVE",
"420 1458 OFFCURVE",
"420 1390 CURVE"
);
}
);
width = 682;
}
);
note = ring;
unicode = 02DA;
},
{
glyphname = cedilla;
lastChange = "2020-03-13 21:34:11 +0000";
layers = (
{
layerId = "7129FC8E-08C2-4901-BA92-B1D794EB6D8E";
paths = (
{
closed = 1;
nodes = (
"500 -235 LINE",
"500 -147 OFFCURVE",
"440.333 -88.667 OFFCURVE",
"315 -82 CURVE",
"348 0 LINE",
"205 0 LINE",
"143 -172 LINE",
"152.333 -170.667 OFFCURVE",
"169.667 -170 OFFCURVE",
"195 -170 CURVE SMOOTH",
"283 -170 OFFCURVE",
"317 -192.333 OFFCURVE",
"317 -239 CURVE SMOOTH",
"317 -285 OFFCURVE",
"271.333 -308 OFFCURVE",
"180 -308 CURVE SMOOTH",
"147.333 -308 OFFCURVE",
"119.333 -305.667 OFFCURVE",
"96 -301 CURVE",
"96 -419 LINE",
"133.333 -423 OFFCURVE",
"167 -425 OFFCURVE",
"197 -425 CURVE SMOOTH",
"393 -425 OFFCURVE",
"500 -360.333 OFFCURVE",
"500 -235 CURVE"
);
}
);
width = 682;
}
);
note = cedilla;
unicode = 00B8;
},
{
glyphname = hungarumlaut;
lastChange = "2020-03-13 21:34:11 +0000";
layers = (
{
layerId = "7129FC8E-08C2-4901-BA92-B1D794EB6D8E";
paths = (
{
closed = 1;
nodes = (
"50 1184 LINE",
"368 1441 LINE",
"368 1484 LINE",
"133 1484 LINE",
"-92 1218 LINE",
"-92 1184 LINE",
"50 1184 LINE"
);
},
{
closed = 1;
nodes = (
"456 1184 LINE",
"774 1441 LINE",
"774 1484 LINE",
"539 1484 LINE",
"314 1218 LINE",
"314 1184 LINE",
"456 1184 LINE"
);
}
);
width = 682;
}
);
note = hungarumlaut;
unicode = 02DD;
},
{
glyphname = ogonek;
lastChange = "2020-03-13 21:34:11 +0000";
layers = (
{
layerId = "7129FC8E-08C2-4901-BA92-B1D794EB6D8E";
paths = (
{
closed = 1;
nodes = (
"313 -425 LINE",
"371.667 -425 OFFCURVE",
"422 -414 OFFCURVE",
"464 -392 CURVE",
"464 -255 LINE",
"425.333 -273 OFFCURVE",
"388 -282 OFFCURVE",
"352 -282 CURVE SMOOTH",
"292 -282 OFFCURVE",
"258 -245 OFFCURVE",
"258 -189 CURVE SMOOTH",
"258 -118.333 OFFCURVE",
"303 -35 OFFCURVE",
"387 21 CURVE",
"234 21 LINE",
"139.333 -28.333 OFFCURVE",
"76 -125 OFFCURVE",
"76 -225 CURVE SMOOTH",
"76 -347.667 OFFCURVE",
"165 -425 OFFCURVE",
"313 -425 CURVE"
);
}
);
width = 682;
}
);
note = ogonek;
unicode = 02DB;
},
{
glyphname = caron;
lastChange = "2020-03-13 21:34:11 +0000";
layers = (
{
layerId = "7129FC8E-08C2-4901-BA92-B1D794EB6D8E";
paths = (
{
closed = 1;
nodes = (
"487 1183 LINE",
"737 1500 LINE",
"737 1529 LINE",
"578 1529 LINE",
"375 1336 LINE",
"371 1336 LINE",
"160 1529 LINE",
"0 1529 LINE",
"0 1500 LINE",
"258 1183 LINE",
"487 1183 LINE"
);
}
);
width = 682;
}
);
note = caron;
unicode = 02C7;
},
{
glyphname = Lslash;
lastChange = "2020-03-13 21:34:11 +0000";
layers = (
{
layerId = "7129FC8E-08C2-4901-BA92-B1D794EB6D8E";
paths = (
{
closed = 1;
nodes = (
"137 0 LINE",
"1188 0 LINE",
"1188 231 LINE",
"432 231 LINE",
"432 627 LINE",
"739 774 LINE",
"739 997 LINE",
"432 850 LINE",
"432 1409 LINE",
"137 1409 LINE",
"137 709 LINE",
"0 643 LINE",
"0 418 LINE",
"137 483 LINE",
"137 0 LINE"
);
}
);
width = 1251;
}
);
note = Lslash;
unicode = 0141;
},
{
glyphname = lslash;
lastChange = "2020-03-13 21:34:11 +0000";
layers = (
{
layerId = "7129FC8E-08C2-4901-BA92-B1D794EB6D8E";
paths = (
{
closed = 1;
nodes = (
"424 717 LINE",
"553 793 LINE",
"553 1006 LINE",
"424 932 LINE",
"424 1484 LINE",
"143 1484 LINE",
"143 776 LINE",
"18 707 LINE",
"18 492 LINE",
"143 561 LINE",
"143 0 LINE",
"424 0 LINE",
"424 717 LINE"
);
}
);
width = 569;
}
);
note = lslash;
unicode = 0142;
},
{
glyphname = brokenbar;
lastChange = "2020-03-13 21:34:11 +0000";
layers = (
{
layerId = "7129FC8E-08C2-4901-BA92-B1D794EB6D8E";
paths = (
{
closed = 1;
nodes = (
"156 676 LINE",
"418 676 LINE",
"418 1454 LINE",
"156 1454 LINE",
"156 676 LINE"
);
},
{
closed = 1;
nodes = (
"156 -455 LINE",
"418 -455 LINE",
"418 324 LINE",
"156 324 LINE",
"156 -455 LINE"
);
}
);
width = 573;
}
);
note = brokenbar;
unicode = 00A6;
},
{
glyphname = Eth;
lastChange = "2020-03-13 21:34:11 +0000";
layers = (
{
layerId = "7129FC8E-08C2-4901-BA92-B1D794EB6D8E";
paths = (
{
closed = 1;
nodes = (
"1393 715 LINE",
"1393 1161.667 OFFCURVE",
"1121.667 1409 OFFCURVE",
"647 1409 CURVE SMOOTH",
"137 1409 LINE",
"137 813 LINE",
"8 813 LINE",
"8 594 LINE",
"137 594 LINE",
"137 0 LINE",
"707 0 LINE SMOOTH",
"976.333 0 OFFCURVE",
"1193.5 117.833 OFFCURVE",
"1307.5 334.5 CURVE SMOOTH",
"1364.5 442.833 OFFCURVE",
"1393 569.667 OFFCURVE",
"1393 715 CURVE"
);
},
{
closed = 1;
nodes = (
"1096 715 LINE",
"1096 415 OFFCURVE",
"936.667 231 OFFCURVE",
"682 231 CURVE SMOOTH",
"432 231 LINE",
"432 594 LINE",
"788 594 LINE",
"788 813 LINE",
"432 813 LINE",
"432 1178 LINE",
"641 1178 LINE SMOOTH",
"935.667 1178 OFFCURVE",
"1096 1015 OFFCURVE",
"1096 715 CURVE"
);
}
);
width = 1479;
}
);
note = Eth;
unicode = 00D0;
},
{
glyphname = eth;
lastChange = "2020-03-13 21:34:11 +0000";
layers = (
{
layerId = "7129FC8E-08C2-4901-BA92-B1D794EB6D8E";
paths = (
{
closed = 1;
nodes = (
"856 1266 LINE",
"977 1315 LINE",
"977 1503 LINE",
"709 1390 LINE",
"666.333 1420.667 OFFCURVE",
"613 1452 OFFCURVE",
"549 1484 CURVE",
"256 1484 LINE",
"369.333 1414 OFFCURVE",
"455.333 1355.333 OFFCURVE",
"514 1308 CURVE",
"348 1238 LINE",
"348 1054 LINE",
"640 1176 LINE",
"697.333 1110 OFFCURVE",
"747.333 1031.667 OFFCURVE",
"790 941 CURVE",
"751.333 962.333 OFFCURVE",
"697 973 OFFCURVE",
"627 973 CURVE SMOOTH",
"283 973 OFFCURVE",
"80 788.333 OFFCURVE",
"80 479 CURVE SMOOTH",
"80 171 OFFCURVE",
"288.333 -18 OFFCURVE",
"623 -18 CURVE SMOOTH",
"968.333 -18 OFFCURVE",
"1171 189 OFFCURVE",
"1171 537 CURVE SMOOTH",
"1171 541 LINE SMOOTH",
"1171 811 OFFCURVE",
"1066 1052.667 OFFCURVE",
"856 1266 CURVE"
);
},
{
closed = 1;
nodes = (
"877 477 LINE",
"877 262.333 OFFCURVE",
"784.667 172 OFFCURVE",
"618 172 CURVE SMOOTH",
"459.333 172 OFFCURVE",
"375 279.667 OFFCURVE",
"375 477 CURVE SMOOTH",
"375 679 OFFCURVE",
"460.333 780 OFFCURVE",
"631 780 CURVE SMOOTH",
"791 780 OFFCURVE",
"877 690.333 OFFCURVE",
"877 477 CURVE"
);
}
);
width = 1251;
}
);
note = eth;
unicode = 00F0;
},
{
glyphname = Thorn;
lastChange = "2020-03-13 21:34:11 +0000";
layers = (
{
layerId = "7129FC8E-08C2-4901-BA92-B1D794EB6D8E";
paths = (
{
closed = 1;
nodes = (
"1296 737 LINE",
"1296 1019.667 OFFCURVE",
"1108.667 1176 OFFCURVE",
"770 1176 CURVE SMOOTH",
"432 1176 LINE",
"432 1409 LINE",
"137 1409 LINE",
"137 0 LINE",
"432 0 LINE",
"432 283 LINE",
"782 283 LINE SMOOTH",
"995.333 283 OFFCURVE",
"1154.833 362.667 OFFCURVE",
"1235.5 500 CURVE SMOOTH",
"1275.833 568.667 OFFCURVE",
"1296 647.667 OFFCURVE",
"1296 737 CURVE"
);
},
{
closed = 1;
nodes = (
"999 733 LINE",
"999 581 OFFCURVE",
"906.333 492 OFFCURVE",
"745 492 CURVE SMOOTH",
"432 492 LINE",
"432 967 LINE",
"737 967 LINE SMOOTH",
"911.667 967 OFFCURVE",
"999 879.667 OFFCURVE",
"999 733 CURVE"
);
}
);
width = 1366;
}
);
note = Thorn;
unicode = 00DE;
},
{
glyphname = thorn;
lastChange = "2020-03-13 21:34:11 +0000";
layers = (
{
layerId = "7129FC8E-08C2-4901-BA92-B1D794EB6D8E";
paths = (
{
closed = 1;
nodes = (
"143 1484 LINE",
"143 -425 LINE",
"424 -425 LINE",
"424 -10 LINE SMOOTH",
"424 91.333 OFFCURVE",
"422 152 OFFCURVE",
"418 172 CURVE",
"424 172 LINE",
"484 48 OFFCURVE",
"600 -20 OFFCURVE",
"752 -20 CURVE SMOOTH",
"1016 -20 OFFCURVE",
"1167 177.333 OFFCURVE",
"1167 520 CURVE SMOOTH",
"1167 856 OFFCURVE",
"1024.667 1053 OFFCURVE",
"770 1053 CURVE SMOOTH",
"602.667 1053 OFFCURVE",
"487.333 986.667 OFFCURVE",
"424 854 CURVE",
"420 854 LINE",
"424 1022 LINE",
"424 1484 LINE",
"143 1484 LINE"
);
},
{
closed = 1;
nodes = (
"874 520 LINE",
"874 288 OFFCURVE",
"799 172 OFFCURVE",
"649 172 CURVE SMOOTH",
"502.333 172 OFFCURVE",
"420 294.667 OFFCURVE",
"420 512 CURVE SMOOTH",
"420 729.333 OFFCURVE",
"500.333 858 OFFCURVE",
"651 858 CURVE SMOOTH",
"800.333 858 OFFCURVE",
"874 749.333 OFFCURVE",
"874 520 CURVE"
);
}
);
width = 1251;
}
);
note = thorn;
unicode = 00FE;
},
{
glyphname = minus;
lastChange = "2020-03-13 21:34:11 +0000";
layers = (
{
layerId = "7129FC8E-08C2-4901-BA92-B1D794EB6D8E";
paths = (
{
closed = 1;
nodes = (
"85 569 LINE",
"1112 569 LINE",
"1112 793 LINE",
"85 793 LINE",
"85 569 LINE"
);
}
);
width = 1196;
}
);
note = minus;
unicode = 2212;
},
{
glyphname = multiply;
lastChange = "2020-03-13 21:34:11 +0000";
layers = (
{
layerId = "7129FC8E-08C2-4901-BA92-B1D794EB6D8E";
paths = (
{
closed = 1;
nodes = (
"86 326 LINE",
"244 168 LINE",
"600 526 LINE",
"952 172 LINE",
"1110 332 LINE",
"758 682 LINE",
"1110 1036 LINE",
"952 1194 LINE",
"600 842 LINE",
"248 1192 LINE",
"90 1036 LINE",
"442 684 LINE",
"86 326 LINE"
);
}
);
width = 1196;
}
);
note = multiply;
unicode = 00D7;
},
{
glyphname = onesuperior;
lastChange = "2020-03-13 21:34:11 +0000";
layers = (
{
layerId = "7129FC8E-08C2-4901-BA92-B1D794EB6D8E";
paths = (
{
closed = 1;
nodes = (
"82 694 LINE",
"618 694 LINE",
"618 815 LINE",
"448 815 LINE",
"448 1414 LINE",
"273 1414 LINE",
"93 1297 LINE",
"93 1175 LINE",
"266 1283 LINE",
"266 815 LINE",
"82 815 LINE",
"82 694 LINE"
);
}
);
width = 682;
}
);
note = onesuperior;
unicode = 00B9;
},
{
glyphname = twosuperior;
lastChange = "2020-03-13 21:34:11 +0000";
layers = (
{
layerId = "7129FC8E-08C2-4901-BA92-B1D794EB6D8E";
paths = (
{
closed = 1;
nodes = (
"53 694 LINE",
"639 694 LINE",
"639 832 LINE",
"277 832 LINE",
"287.667 854 OFFCURVE",
"305.833 875.333 OFFCURVE",
"331.5 896 CURVE SMOOTH",
"357.167 916.667 OFFCURVE",
"404.333 949 OFFCURVE",
"473 993 CURVE SMOOTH",
"575 1058.333 OFFCURVE",
"626 1132.667 OFFCURVE",
"626 1216 CURVE SMOOTH",
"626 1348 OFFCURVE",
"521.667 1426 OFFCURVE",
"347 1426 CURVE SMOOTH",
"181.667 1426 OFFCURVE",
"75.333 1338 OFFCURVE",
"58 1206 CURVE",
"252 1201 LINE",
"258.667 1266.333 OFFCURVE",
"290.333 1299 OFFCURVE",
"347 1299 CURVE SMOOTH",
"401 1299 OFFCURVE",
"428 1268.667 OFFCURVE",
"428 1208 CURVE SMOOTH",
"428 1182 OFFCURVE",
"417.333 1156.833 OFFCURVE",
"396 1132.5 CURVE SMOOTH",
"374.667 1108.167 OFFCURVE",
"335 1077.333 OFFCURVE",
"277 1040 CURVE SMOOTH",
"155.667 961.333 OFFCURVE",
"89.667 896.333 OFFCURVE",
"51 815 CURVE",
"53 694 LINE"
);
}
);
width = 682;
}
);
note = twosuperior;
unicode = 00B2;
},
{
glyphname = threesuperior;
lastChange = "2020-03-13 21:34:11 +0000";
layers = (
{
layerId = "7129FC8E-08C2-4901-BA92-B1D794EB6D8E";
paths = (
{
closed = 1;
nodes = (
"638 895 LINE",
"638 987 OFFCURVE",
"577.667 1053 OFFCURVE",
"467 1065 CURVE",
"467 1067 LINE",
"572.333 1088.333 OFFCURVE",
"619 1152.667 OFFCURVE",
"619 1238 CURVE SMOOTH",
"619 1351.333 OFFCURVE",
"518.667 1426 OFFCURVE",
"348 1426 CURVE SMOOTH",
"181.333 1426 OFFCURVE",
"73.667 1347.333 OFFCURVE",
"59 1222 CURVE",
"245 1210 LINE",
"251.667 1269.333 OFFCURVE",
"284.333 1299 OFFCURVE",
"343 1299 CURVE SMOOTH",
"400.333 1299 OFFCURVE",
"432 1268 OFFCURVE",
"432 1216 CURVE SMOOTH",
"432 1158.667 OFFCURVE",
"389 1126 OFFCURVE",
"305 1126 CURVE SMOOTH",
"254 1126 LINE",
"254 1000 LINE",
"310 1000 LINE SMOOTH",
"402.667 1000 OFFCURVE",
"449 969 OFFCURVE",
"449 907 CURVE SMOOTH",
"449 843 OFFCURVE",
"415 811 OFFCURVE",
"347 811 CURVE SMOOTH",
"277.667 811 OFFCURVE",
"239.667 842 OFFCURVE",
"233 904 CURVE",
"44 892 LINE",
"61.333 753.333 OFFCURVE",
"170 684 OFFCURVE",
"350 684 CURVE SMOOTH",
"534 684 OFFCURVE",
"638 763 OFFCURVE",
"638 895 CURVE"
);
}
);
width = 682;
}
);
note = threesuperior;
unicode = 00B3;
},
{
glyphname = franc;
lastChange = "2020-03-13 21:34:11 +0000";
layers = (
{
layerId = "7129FC8E-08C2-4901-BA92-B1D794EB6D8E";
paths = (
{
closed = 1;
nodes = (
"422 1201 LINE",
"1092 1201 LINE",
"1092 1409 LINE",
"137 1409 LINE",
"137 407 LINE",
"7 407 LINE",
"7 258 LINE",
"137 258 LINE",
"137 0 LINE",
"422 0 LINE",
"422 258 LINE",
"736 258 LINE",
"736 407 LINE",
"422 407 LINE",
"422 597 LINE",
"1059 597 LINE",
"1059 805 LINE",
"422 805 LINE",
"422 1201 LINE"
);
}
);
width = 1139;
}
);
note = franc;
unicode = 20A3;
},
{
glyphname = dcroat;
lastChange = "2020-03-13 21:34:11 +0000";
layers = (
{
layerId = "7129FC8E-08C2-4901-BA92-B1D794EB6D8E";
paths = (
{
closed = 1;
nodes = (
"827 1345 LINE",
"541 1345 LINE",
"541 1175 LINE",
"827 1175 LINE",
"827 1049 LINE",
"829 871 LINE",
"827 871 LINE",
"767 997.667 OFFCURVE",
"653.333 1062 OFFCURVE",
"500 1062 CURVE SMOOTH",
"233.333 1062 OFFCURVE",
"84 867.667 OFFCURVE",
"84 521 CURVE SMOOTH",
"84 177 OFFCURVE",
"228.333 -20 OFFCURVE",
"479 -20 CURVE SMOOTH",
"649.667 -20 OFFCURVE",
"765.333 45.333 OFFCURVE",
"826 176 CURVE",
"830 176 LINE",
"830 122.667 OFFCURVE",
"839.667 20 OFFCURVE",
"845 0 CURVE",
"1117 0 LINE",
"1111.667 90.667 OFFCURVE",
"1109 169.333 OFFCURVE",
"1109 236 CURVE SMOOTH",
"1109 1175 LINE",
"1241 1175 LINE",
"1241 1345 LINE",
"1109 1345 LINE",
"1109 1484 LINE",
"827 1484 LINE",
"827 1345 LINE"
);
},
{
closed = 1;
nodes = (
"831 529 LINE",
"831 302.333 OFFCURVE",
"748.667 172 OFFCURVE",
"598 172 CURVE SMOOTH",
"450.667 172 OFFCURVE",
"377 288.667 OFFCURVE",
"377 522 CURVE SMOOTH",
"377 764.667 OFFCURVE",
"449.333 874 OFFCURVE",
"600 874 CURVE SMOOTH",
"753.333 874 OFFCURVE",
"831 751.667 OFFCURVE",
"831 529 CURVE"
);
}
);
width = 1251;
}
);
note = dcroat;
unicode = 0111;
},
{
glyphname = overscore;
lastChange = "2020-03-13 21:34:11 +0000";
layers = (
{
layerId = "7129FC8E-08C2-4901-BA92-B1D794EB6D8E";
paths = (
{
closed = 1;
nodes = (
"1148 1452 LINE",
"1148 1546 LINE",
"-17 1546 LINE",
"-17 1452 LINE",
"1148 1452 LINE"
);
}
);
width = 1131;
}
);
note = overscore;
unicode = 00AF;
},
{
glyphname = middot;
lastChange = "2020-03-13 21:34:11 +0000";
layers = (
{
layerId = "7129FC8E-08C2-4901-BA92-B1D794EB6D8E";
paths = (
{
closed = 1;
nodes = (
"141 531 LINE",
"429 531 LINE",
"429 836 LINE",
"141 836 LINE",
"141 531 LINE"
);
}
);
width = 682;
}
);
note = middot;
unicode = 00B7;
},
{
glyphname = Gamma;
lastChange = "2020-03-13 21:34:11 +0000";
layers = (
{
layerId = "7129FC8E-08C2-4901-BA92-B1D794EB6D8E";
paths = (
{
closed = 1;
nodes = (
"1198 1409 LINE",
"137 1409 LINE",
"137 1 LINE",
"432 1 LINE",
"432 1181 LINE",
"1198 1181 LINE",
"1198 1409 LINE"
);
}
);
width = 1231;
}
);
note = Gamma;
unicode = 0393;
},
{
glyphname = Theta;
lastChange = "2020-03-13 21:34:11 +0000";
layers = (
{
layerId = "7129FC8E-08C2-4901-BA92-B1D794EB6D8E";
paths = (
{
closed = 1;
nodes = (
"502 827 LINE",
"502 599 LINE",
"1089 599 LINE",
"1089 827 LINE",
"502 827 LINE"
);
},
{
closed = 1;
nodes = (
"1507 711 LINE",
"1507 1157.667 OFFCURVE",
"1241.667 1430 OFFCURVE",
"795 1430 CURVE SMOOTH",
"348.333 1430 OFFCURVE",
"84 1163 OFFCURVE",
"84 711 CURVE SMOOTH",
"84 257.667 OFFCURVE",
"350.333 -20 OFFCURVE",
"793 -20 CURVE SMOOTH",
"1081 -20 OFFCURVE",
"1304 101.333 OFFCURVE",
"1420 324 CURVE SMOOTH",
"1478 435.333 OFFCURVE",
"1507 564.333 OFFCURVE",
"1507 711 CURVE"
);
},
{
closed = 1;
nodes = (
"1206 711 LINE",
"1206 392.333 OFFCURVE",
"1057 212 OFFCURVE",
"793 212 CURVE SMOOTH",
"538.333 212 OFFCURVE",
"381 401.667 OFFCURVE",
"381 711 CURVE SMOOTH",
"381 1017.667 OFFCURVE",
"531 1198 OFFCURVE",
"795 1198 CURVE SMOOTH",
"1055 1198 OFFCURVE",
"1206 1015 OFFCURVE",
"1206 711 CURVE"
);
}
);
width = 1593;
}
);
note = Theta;
unicode = 0398;
},
{
glyphname = Phi;
lastChange = "2020-03-13 21:34:11 +0000";
layers = (
{
layerId = "7129FC8E-08C2-4901-BA92-B1D794EB6D8E";
paths = (
{
closed = 1;
nodes = (
"1322 730 LINE",
"1322 515.333 OFFCURVE",
"1208.667 397 OFFCURVE",
"1006 397 CURVE SMOOTH",
"980 397 LINE",
"980 1052 LINE",
"999 1052 LINE SMOOTH",
"1219 1052 OFFCURVE",
"1322 932.667 OFFCURVE",
"1322 730 CURVE"
);
},
{
closed = 1;
nodes = (
"702 -11 LINE",
"980 -11 LINE",
"980 188 LINE",
"1034 188 LINE SMOOTH",
"1272.667 188 OFFCURVE",
"1455.667 283.667 OFFCURVE",
"1549 449 CURVE SMOOTH",
"1595.667 531.667 OFFCURVE",
"1619 626.667 OFFCURVE",
"1619 734 CURVE SMOOTH",
"1619 1068.667 OFFCURVE",
"1403.333 1261 OFFCURVE",
"1022 1261 CURVE SMOOTH",
"980 1261 LINE",
"980 1419 LINE",
"702 1419 LINE",
"702 1261 LINE",
"660 1261 LINE SMOOTH",
"277.333 1261 OFFCURVE",
"63 1068.667 OFFCURVE",
"63 734 CURVE SMOOTH",
"63 520.667 OFFCURVE",
"158.667 347.833 OFFCURVE",
"336 256.5 CURVE SMOOTH",
"424.667 210.833 OFFCURVE",
"528.667 188 OFFCURVE",
"648 188 CURVE SMOOTH",
"702 188 LINE",
"702 -11 LINE"
);
},
{
closed = 1;
nodes = (
"360 730 LINE",
"360 932.667 OFFCURVE",
"463 1052 OFFCURVE",
"683 1052 CURVE SMOOTH",
"702 1052 LINE",
"702 397 LINE",
"676 397 LINE SMOOTH",
"472 397 OFFCURVE",
"360 516.667 OFFCURVE",
"360 730 CURVE"
);
}
);
width = 1681;
}
);
note = Phi;
unicode = 03A6;
},
{
glyphname = alpha;
lastChange = "2020-03-13 21:34:11 +0000";
layers = (
{
layerId = "7129FC8E-08C2-4901-BA92-B1D794EB6D8E";
paths = (
{
closed = 1;
nodes = (
"860 237 LINE",
"864 237 LINE",
"878.667 159 OFFCURVE",
"902.333 80 OFFCURVE",
"935 0 CURVE",
"1205 0 LINE",
"1135.667 164.667 OFFCURVE",
"1090.333 350 OFFCURVE",
"1069 556 CURVE",
"1085 709.333 OFFCURVE",
"1171.333 960.667 OFFCURVE",
"1238 1082 CURVE",
"973 1082 LINE",
"939.667 1008 OFFCURVE",
"914.667 929.667 OFFCURVE",
"898 847 CURVE",
"895 847 LINE",
"831 1009.667 OFFCURVE",
"701.667 1102 OFFCURVE",
"527 1102 CURVE SMOOTH",
"233.667 1102 OFFCURVE",
"80 914.667 OFFCURVE",
"80 536 CURVE SMOOTH",
"80 161.333 OFFCURVE",
"218.333 -20 OFFCURVE",
"501 -20 CURVE SMOOTH",
"667.667 -20 OFFCURVE",
"777.333 57 OFFCURVE",
"860 237 CURVE"
);
},
{
closed = 1;
nodes = (
"375 539 LINE",
"375 793.667 OFFCURVE",
"428 908 OFFCURVE",
"564 908 CURVE SMOOTH",
"681.333 908 OFFCURVE",
"761.667 779.333 OFFCURVE",
"791 542 CURVE",
"767 319.333 OFFCURVE",
"674.667 173 OFFCURVE",
"556 173 CURVE SMOOTH",
"492 173 OFFCURVE",
"445.833 201.333 OFFCURVE",
"417.5 258 CURVE SMOOTH",
"389.167 314.667 OFFCURVE",
"375 408.333 OFFCURVE",
"375 539 CURVE"
);
}
);
width = 1259;
}
);
note = alpha;
unicode = 03B1;
},
{
glyphname = delta;
lastChange = "2020-03-13 21:34:11 +0000";
layers = (
{
layerId = "7129FC8E-08C2-4901-BA92-B1D794EB6D8E";
paths = (
{
closed = 1;
nodes = (
"866 487 LINE",
"866 280.333 OFFCURVE",
"777.333 176 OFFCURVE",
"612 176 CURVE SMOOTH",
"462.667 176 OFFCURVE",
"376 287.667 OFFCURVE",
"376 481 CURVE SMOOTH",
"376 690.333 OFFCURVE",
"479 836.333 OFFCURVE",
"667 903 CURVE",
"811 759 OFFCURVE",
"866 633.667 OFFCURVE",
"866 487 CURVE"
);
},
{
closed = 1;
nodes = (
"734 1294 LINE",
"1092 1294 LINE",
"1092 1484 LINE",
"239 1484 LINE",
"239 1337 LINE",
"551 1023 LINE",
"241 916.333 OFFCURVE",
"86 735.667 OFFCURVE",
"86 481 CURVE SMOOTH",
"86 166.333 OFFCURVE",
"281 -20 OFFCURVE",
"617 -20 CURVE SMOOTH",
"835.667 -20 OFFCURVE",
"1005.5 67.833 OFFCURVE",
"1091.5 220.5 CURVE SMOOTH",
"1134.5 296.833 OFFCURVE",
"1156 384.333 OFFCURVE",
"1156 483 CURVE SMOOTH",
"1156 687 OFFCURVE",
"1084.667 849.333 OFFCURVE",
"910 1008 CURVE SMOOTH",
"587 1301 LINE",
"734 1294 LINE"
);
}
);
width = 1242;
}
);
note = delta;
unicode = 03B4;
},
{
glyphname = epsilon;
lastChange = "2020-03-13 21:34:11 +0000";
layers = (
{
layerId = "7129FC8E-08C2-4901-BA92-B1D794EB6D8E";
paths = (
{
closed = 1;
nodes = (
"526 168 LINE",
"426 168 OFFCURVE",
"366 218 OFFCURVE",
"366 314 CURVE SMOOTH",
"366 396.667 OFFCURVE",
"411.167 440 OFFCURVE",
"494.5 460 CURVE SMOOTH",
"536.167 470 OFFCURVE",
"606.333 475 OFFCURVE",
"705 475 CURVE",
"705 652 LINE",
"580.333 652 OFFCURVE",
"494.5 664.167 OFFCURVE",
"447.5 688.5 CURVE SMOOTH",
"400.5 712.833 OFFCURVE",
"377 750.333 OFFCURVE",
"377 801 CURVE SMOOTH",
"377 877 OFFCURVE",
"437 923 OFFCURVE",
"549 923 CURVE SMOOTH",
"641 923 OFFCURVE",
"705 886 OFFCURVE",
"761 810 CURVE",
"923 933 LINE",
"828.333 1057 OFFCURVE",
"715.667 1102 OFFCURVE",
"533 1102 CURVE SMOOTH",
"277 1102 OFFCURVE",
"110 989.333 OFFCURVE",
"110 812 CURVE SMOOTH",
"110 670.667 OFFCURVE",
"206.333 576 OFFCURVE",
"365 560 CURVE",
"365 558 LINE",
"190.333 543.333 OFFCURVE",
"77 447.667 OFFCURVE",
"77 297 CURVE SMOOTH",
"77 95.667 OFFCURVE",
"231.667 -20 OFFCURVE",
"497 -20 CURVE SMOOTH",
"630.333 -20 OFFCURVE",
"727.167 8.333 OFFCURVE",
"806.5 55 CURVE SMOOTH",
"846.167 78.333 OFFCURVE",
"890.333 115 OFFCURVE",
"939 165 CURVE",
"796 305 LINE",
"708 213.667 OFFCURVE",
"618 168 OFFCURVE",
"526 168 CURVE"
);
}
);
width = 972;
}
);
note = epsilon;
unicode = 03B5;
},
{
glyphname = sigma;
lastChange = "2020-03-13 21:34:11 +0000";
layers = (
{
layerId = "7129FC8E-08C2-4901-BA92-B1D794EB6D8E";
paths = (
{
closed = 1;
nodes = (
"1170 458 LINE",
"1170 603.333 OFFCURVE",
"1119.333 743.333 OFFCURVE",
"1002 894 CURVE",
"1002 898 LINE",
"1166 892 LINE",
"1361 892 LINE",
"1361 1082 LINE",
"719 1082 LINE SMOOTH",
"309.667 1082 OFFCURVE",
"80 877.333 OFFCURVE",
"80 524 CURVE SMOOTH",
"80 169.333 OFFCURVE",
"277.333 -20 OFFCURVE",
"628 -20 CURVE SMOOTH",
"969.333 -20 OFFCURVE",
"1170 159.333 OFFCURVE",
"1170 458 CURVE"
);
},
{
closed = 1;
nodes = (
"876 492 LINE",
"876 284 OFFCURVE",
"786.333 172 OFFCURVE",
"621 172 CURVE SMOOTH",
"457 172 OFFCURVE",
"375 289.333 OFFCURVE",
"375 524 CURVE SMOOTH",
"375 753.333 OFFCURVE",
"501.333 892 OFFCURVE",
"700 892 CURVE SMOOTH",
"774 892 LINE",
"842 769.333 OFFCURVE",
"876 636 OFFCURVE",
"876 492 CURVE"
);
}
);
width = 1401;
}
);
note = sigma;
unicode = 03C3;
},
{
glyphname = tau;
lastChange = "2020-03-13 21:34:11 +0000";
layers = (
{
layerId = "7129FC8E-08C2-4901-BA92-B1D794EB6D8E";
paths = (
{
closed = 1;
nodes = (
"270 892 LINE",
"297 892 LINE",
"297 251 LINE SMOOTH",
"297 69.667 OFFCURVE",
"396.667 -21 OFFCURVE",
"596 -21 CURVE SMOOTH",
"654.667 -21 OFFCURVE",
"747 -6.333 OFFCURVE",
"795 7 CURVE",
"771 185 LINE",
"742.333 179.667 OFFCURVE",
"715.333 177 OFFCURVE",
"690 177 CURVE SMOOTH",
"604.667 177 OFFCURVE",
"575 220 OFFCURVE",
"575 312 CURVE SMOOTH",
"575 892 LINE",
"880 892 LINE",
"880 1082 LINE",
"201 1082 LINE SMOOTH",
"131.667 1082 OFFCURVE",
"50 1069 OFFCURVE",
"18 1053 CURVE",
"18 855 LINE",
"47.333 872.333 OFFCURVE",
"160.667 892 OFFCURVE",
"270 892 CURVE"
);
}
);
width = 914;
}
);
note = tau;
unicode = 03C4;
},
{
glyphname = phi;
lastChange = "2020-03-13 21:34:11 +0000";
layers = (
{
layerId = "7129FC8E-08C2-4901-BA92-B1D794EB6D8E";
paths = (
{
closed = 1;
nodes = (
"1386 565 LINE",
"1386 893 OFFCURVE",
"1221.667 1104 OFFCURVE",
"967 1104 CURVE SMOOTH",
"719 1104 OFFCURVE",
"607 966 OFFCURVE",
"607 702 CURVE SMOOTH",
"607 167 LINE",
"441.667 179 OFFCURVE",
"355 309.333 OFFCURVE",
"355 544 CURVE SMOOTH",
"355 754.667 OFFCURVE",
"426 895 OFFCURVE",
"550 927 CURVE",
"529 1106 LINE",
"218.333 1054 OFFCURVE",
"80 873.333 OFFCURVE",
"80 544 CURVE SMOOTH",
"80 188 OFFCURVE",
"264.333 -5.333 OFFCURVE",
"607 -20 CURVE",
"607 -425 LINE",
"845 -425 LINE",
"845 -18 LINE",
"1194.333 -0.667 OFFCURVE",
"1386 201 OFFCURVE",
"1386 565 CURVE"
);
},
{
closed = 1;
nodes = (
"1111 567 LINE",
"1111 307 OFFCURVE",
"1015.667 174 OFFCURVE",
"845 166 CURVE",
"845 699 LINE SMOOTH",
"845 853 OFFCURVE",
"886 930 OFFCURVE",
"968 930 CURVE SMOOTH",
"1063.333 930 OFFCURVE",
"1111 809 OFFCURVE",
"1111 567 CURVE"
);
}
);
width = 1465;
}
);
note = phi;
unicode = 03C6;
},
{
glyphname = nsuperior;
lastChange = "2020-03-13 21:34:11 +0000";
layers = (
{
layerId = "7129FC8E-08C2-4901-BA92-B1D794EB6D8E";
paths = (
{
closed = 1;
nodes = (
"531 519 LINE",
"710 519 LINE",
"710 952 LINE SMOOTH",
"710 1113.333 OFFCURVE",
"639.667 1181 OFFCURVE",
"493 1181 CURVE SMOOTH",
"394.333 1181 OFFCURVE",
"331.667 1144.667 OFFCURVE",
"285 1058 CURVE",
"282 1058 LINE",
"280.434 1094.8 OFFCURVE",
"275.562 1164.315 OFFCURVE",
"274 1169 CURVE",
"108 1169 LINE",
"112 1030 LINE",
"112 519 LINE",
"290 519 LINE",
"290 870 LINE SMOOTH",
"290 991.333 OFFCURVE",
"342.333 1057 OFFCURVE",
"425 1057 CURVE SMOOTH",
"505 1057 OFFCURVE",
"531 1019 OFFCURVE",
"531 903 CURVE SMOOTH",
"531 519 LINE"
);
}
);
width = 811;
}
);
note = nsuperior;
unicode = 207F;
},
{
glyphname = peseta;
lastChange = "2020-03-13 21:34:11 +0000";
layers = (
{
layerId = "7129FC8E-08C2-4901-BA92-B1D794EB6D8E";
paths = (
{
closed = 1;
nodes = (
"1427 8 LINE",
"1427 166 LINE",
"1401.667 156.667 OFFCURVE",
"1377 152 OFFCURVE",
"1353 152 CURVE SMOOTH",
"1285 152 OFFCURVE",
"1262 186 OFFCURVE",
"1262 278 CURVE SMOOTH",
"1262 647 LINE",
"1409 647 LINE",
"1409 813 LINE",
"1262 813 LINE",
"1262 1055 LINE",
"1137 1055 LINE",
"1049 813 LINE",
"963 813 LINE",
"983.667 867 OFFCURVE",
"994 924.333 OFFCURVE",
"994 985 CURVE SMOOTH",
"994 1254.333 OFFCURVE",
"804 1409 OFFCURVE",
"472 1409 CURVE SMOOTH",
"158 1409 LINE",
"158 0 LINE",
"399 0 LINE",
"399 549 LINE",
"509 549 LINE SMOOTH",
"711.667 549 OFFCURVE",
"863.333 626.667 OFFCURVE",
"938 760 CURVE",
"938 647 LINE",
"1042 647 LINE",
"1042 229 LINE SMOOTH",
"1042 65 OFFCURVE",
"1113.333 -16 OFFCURVE",
"1280 -16 CURVE SMOOTH",
"1328.667 -16 OFFCURVE",
"1377.667 -8 OFFCURVE",
"1427 8 CURVE"
);
},
{
closed = 1;
nodes = (
"2171 241 LINE",
"2171 337 OFFCURVE",
"2122.5 405 OFFCURVE",
"2040.5 449 CURVE SMOOTH",
"1999.5 471 OFFCURVE",
"1920 494 OFFCURVE",
"1802 518 CURVE SMOOTH",
"1754 527.333 OFFCURVE",
"1720.333 537.667 OFFCURVE",
"1701 549 CURVE SMOOTH",
"1681.667 560.333 OFFCURVE",
"1672 575 OFFCURVE",
"1672 593 CURVE SMOOTH",
"1672 641 OFFCURVE",
"1716 656 OFFCURVE",
"1808 656 CURVE SMOOTH",
"1892 656 OFFCURVE",
"1941 620 OFFCURVE",
"1953 556 CURVE",
"2154 573 LINE",
"2123.333 738.333 OFFCURVE",
"2004.667 824 OFFCURVE",
"1806 824 CURVE SMOOTH",
"1578 824 OFFCURVE",
"1457 741.333 OFFCURVE",
"1457 588 CURVE SMOOTH",
"1457 502.667 OFFCURVE",
"1492 447.667 OFFCURVE",
"1544 409 CURVE SMOOTH",
"1596 370.333 OFFCURVE",
"1657 351 OFFCURVE",
"1821 319 CURVE SMOOTH",
"1871 309 OFFCURVE",
"1906.833 297 OFFCURVE",
"1928.5 283 CURVE SMOOTH",
"1950.167 269 OFFCURVE",
"1961 250.667 OFFCURVE",
"1961 228 CURVE SMOOTH",
"1961 200 OFFCURVE",
"1949 179.5 OFFCURVE",
"1925 166.5 CURVE SMOOTH",
"1901 153.5 OFFCURVE",
"1858 147 OFFCURVE",
"1796 147 CURVE SMOOTH",
"1690.667 147 OFFCURVE",
"1633 174.667 OFFCURVE",
"1613 256 CURVE",
"1414 230 LINE",
"1454 56.667 OFFCURVE",
"1566 -20 OFFCURVE",
"1798 -20 CURVE SMOOTH",
"2036.667 -20 OFFCURVE",
"2171 71.667 OFFCURVE",
"2171 241 CURVE"
);
},
{
closed = 1;
nodes = (
"752 983 LINE",
"752 813.667 OFFCURVE",
"672.667 740 OFFCURVE",
"482 740 CURVE SMOOTH",
"399 740 LINE",
"399 1216 LINE",
"474 1216 LINE SMOOTH",
"668.667 1216 OFFCURVE",
"752 1145.667 OFFCURVE",
"752 983 CURVE"
);
}
);
width = 2240;
}
);
note = peseta;
unicode = 20A7;
},
{
glyphname = arrowleft;
lastChange = "2020-03-13 21:34:11 +0000";
layers = (
{
layerId = "7129FC8E-08C2-4901-BA92-B1D794EB6D8E";
paths = (
{
closed = 1;
nodes = (
"641 497 LINE",
"1630 497 LINE",
"1630 583 LINE",
"641 583 LINE",
"679 627.667 OFFCURVE",
"718.667 693.333 OFFCURVE",
"760 780 CURVE",
"688 780 LINE",
"603.333 680.667 OFFCURVE",
"513.333 606.667 OFFCURVE",
"418 558 CURVE",
"418 522 LINE",
"513.333 473.333 OFFCURVE",
"603.333 399.333 OFFCURVE",
"688 300 CURVE",
"760 300 LINE",
"718.667 386.667 OFFCURVE",
"679 452.333 OFFCURVE",
"641 497 CURVE"
);
}
);
width = 2048;
}
);
note = arrowleft;
unicode = 2190;
},
{
glyphname = arrowup;
lastChange = "2020-03-13 21:34:11 +0000";
layers = (
{
layerId = "7129FC8E-08C2-4901-BA92-B1D794EB6D8E";
paths = (
{
closed = 1;
nodes = (
"469 928 LINE",
"469 -61 LINE",
"555 -61 LINE",
"555 928 LINE",
"599.667 890 OFFCURVE",
"665.333 850.333 OFFCURVE",
"752 809 CURVE",
"752 881 LINE",
"652.667 965.667 OFFCURVE",
"578.667 1055.667 OFFCURVE",
"530 1151 CURVE",
"494 1151 LINE",
"445.333 1055.667 OFFCURVE",
"371.333 965.667 OFFCURVE",
"272 881 CURVE",
"272 809 LINE",
"358.667 850.333 OFFCURVE",
"424.333 890 OFFCURVE",
"469 928 CURVE"
);
}
);
width = 1024;
}
);
note = arrowup;
unicode = 2191;
},
{
glyphname = arrowright;
lastChange = "2020-03-13 21:34:11 +0000";
layers = (
{
layerId = "7129FC8E-08C2-4901-BA92-B1D794EB6D8E";
paths = (
{
closed = 1;
nodes = (
"1407 583 LINE",
"418 583 LINE",
"418 497 LINE",
"1407 497 LINE",
"1369 452.333 OFFCURVE",
"1329.333 386.667 OFFCURVE",
"1288 300 CURVE",
"1360 300 LINE",
"1444.667 399.333 OFFCURVE",
"1534.667 473.333 OFFCURVE",
"1630 522 CURVE",
"1630 558 LINE",
"1534.667 606.667 OFFCURVE",
"1444.667 680.667 OFFCURVE",
"1360 780 CURVE",
"1288 780 LINE",
"1329.333 693.333 OFFCURVE",
"1369 627.667 OFFCURVE",
"1407 583 CURVE"
);
}
);
width = 2048;
}
);
note = arrowright;
unicode = 2192;
},
{
glyphname = arrowdown;
lastChange = "2020-03-13 21:34:11 +0000";
layers = (
{
layerId = "7129FC8E-08C2-4901-BA92-B1D794EB6D8E";
paths = (
{
closed = 1;
nodes = (
"555 162 LINE",
"555 1151 LINE",
"469 1151 LINE",
"469 162 LINE",
"424.333 200 OFFCURVE",
"358.667 239.667 OFFCURVE",
"272 281 CURVE",
"272 209 LINE",
"371.333 124.333 OFFCURVE",
"445.333 34.333 OFFCURVE",
"494 -61 CURVE",
"530 -61 LINE",
"578.667 34.333 OFFCURVE",
"652.667 124.333 OFFCURVE",
"752 209 CURVE",
"752 281 LINE",
"665.333 239.667 OFFCURVE",
"599.667 200 OFFCURVE",
"555 162 CURVE"
);
}
);
width = 1024;
}
);
note = arrowdown;
unicode = 2193;
},
{
glyphname = arrowboth;
lastChange = "2020-03-13 21:34:11 +0000";
layers = (
{
layerId = "7129FC8E-08C2-4901-BA92-B1D794EB6D8E";
paths = (
{
closed = 1;
nodes = (
"641 497 LINE",
"1407 497 LINE",
"1369 452.333 OFFCURVE",
"1329.333 386.667 OFFCURVE",
"1288 300 CURVE",
"1360 300 LINE",
"1444.667 399.333 OFFCURVE",
"1534.667 473.333 OFFCURVE",
"1630 522 CURVE",
"1630 558 LINE",
"1534.667 606.667 OFFCURVE",
"1444.667 680.667 OFFCURVE",
"1360 780 CURVE",
"1288 780 LINE",
"1329.333 693.333 OFFCURVE",
"1369 627.667 OFFCURVE",
"1407 583 CURVE",
"641 583 LINE",
"679 627.667 OFFCURVE",
"718.667 693.333 OFFCURVE",
"760 780 CURVE",
"688 780 LINE",
"603.333 680.667 OFFCURVE",
"513.333 606.667 OFFCURVE",
"418 558 CURVE",
"418 522 LINE",
"513.333 473.333 OFFCURVE",
"603.333 399.333 OFFCURVE",
"688 300 CURVE",
"760 300 LINE",
"718.667 386.667 OFFCURVE",
"679 452.333 OFFCURVE",
"641 497 CURVE"
);
}
);
width = 2048;
}
);
note = arrowboth;
unicode = 2194;
},
{
glyphname = arrowupdn;
lastChange = "2020-03-13 21:34:11 +0000";
layers = (
{
layerId = "7129FC8E-08C2-4901-BA92-B1D794EB6D8E";
paths = (
{
closed = 1;
nodes = (
"469 928 LINE",
"469 162 LINE",
"424.333 200 OFFCURVE",
"358.667 239.667 OFFCURVE",
"272 281 CURVE",
"272 209 LINE",
"371.333 124.333 OFFCURVE",
"445.333 34.333 OFFCURVE",
"494 -61 CURVE",
"530 -61 LINE",
"578.667 34.333 OFFCURVE",
"652.667 124.333 OFFCURVE",
"752 209 CURVE",
"752 281 LINE",
"665.333 239.667 OFFCURVE",
"599.667 200 OFFCURVE",
"555 162 CURVE",
"555 928 LINE",
"599.667 890 OFFCURVE",
"665.333 850.333 OFFCURVE",
"752 809 CURVE",
"752 881 LINE",
"652.667 965.667 OFFCURVE",
"578.667 1055.667 OFFCURVE",
"530 1151 CURVE",
"494 1151 LINE",
"445.333 1055.667 OFFCURVE",
"371.333 965.667 OFFCURVE",
"272 881 CURVE",
"272 809 LINE",
"358.667 850.333 OFFCURVE",
"424.333 890 OFFCURVE",
"469 928 CURVE"
);
}
);
width = 1024;
}
);
note = arrowupdn;
unicode = 2195;
},
{
glyphname = arrowupdnbse;
lastChange = "2020-03-13 21:34:11 +0000";
layers = (
{
layerId = "7129FC8E-08C2-4901-BA92-B1D794EB6D8E";
paths = (
{
closed = 1;
nodes = (
"272 -104 LINE",
"272 -184 LINE",
"752 -184 LINE",
"752 -104 LINE",
"272 -104 LINE"
);
},
{
closed = 1;
nodes = (
"469 928 LINE",
"469 162 LINE",
"424.333 200 OFFCURVE",
"358.667 239.667 OFFCURVE",
"272 281 CURVE",
"272 209 LINE",
"371.333 124.333 OFFCURVE",
"445.333 34.333 OFFCURVE",
"494 -61 CURVE",
"530 -61 LINE",
"578.667 34.333 OFFCURVE",
"652.667 124.333 OFFCURVE",
"752 209 CURVE",
"752 281 LINE",
"665.333 239.667 OFFCURVE",
"599.667 200 OFFCURVE",
"555 162 CURVE",
"555 928 LINE",
"599.667 890 OFFCURVE",
"665.333 850.333 OFFCURVE",
"752 809 CURVE",
"752 881 LINE",
"652.667 965.667 OFFCURVE",
"578.667 1055.667 OFFCURVE",
"530 1151 CURVE",
"494 1151 LINE",
"445.333 1055.667 OFFCURVE",
"371.333 965.667 OFFCURVE",
"272 881 CURVE",
"272 809 LINE",
"358.667 850.333 OFFCURVE",
"424.333 890 OFFCURVE",
"469 928 CURVE"
);
}
);
width = 1024;
}
);
note = arrowupdnbse;
unicode = 21A8;
},
{
glyphname = orthogonal;
lastChange = "2020-03-13 21:34:11 +0000";
layers = (
{
layerId = "7129FC8E-08C2-4901-BA92-B1D794EB6D8E";
paths = (
{
closed = 1;
nodes = (
"408 1223 LINE",
"408 0 LINE",
"1632 0 LINE",
"1632 94 LINE",
"502 94 LINE",
"502 1223 LINE",
"408 1223 LINE"
);
}
);
width = 2005;
}
);
note = orthogonal;
unicode = 221F;
},
{
glyphname = intersection;
lastChange = "2020-03-13 21:34:11 +0000";
layers = (
{
layerId = "7129FC8E-08C2-4901-BA92-B1D794EB6D8E";
paths = (
{
closed = 1;
nodes = (
"281 -2 LINE",
"384 -2 LINE",
"384 510 LINE SMOOTH",
"384 768.667 OFFCURVE",
"522 930 OFFCURVE",
"738 930 CURVE SMOOTH",
"951.333 930 OFFCURVE",
"1094 765.333 OFFCURVE",
"1094 512 CURVE SMOOTH",
"1094 -2 LINE",
"1197 -2 LINE",
"1197 510 LINE SMOOTH",
"1197 707.333 OFFCURVE",
"1113.167 878 OFFCURVE",
"972.5 966 CURVE SMOOTH",
"902.167 1010 OFFCURVE",
"823.333 1032 OFFCURVE",
"736 1032 CURVE SMOOTH",
"562.667 1032 OFFCURVE",
"416.333 938.833 OFFCURVE",
"339 779.5 CURVE SMOOTH",
"300.333 699.833 OFFCURVE",
"281 610 OFFCURVE",
"281 510 CURVE SMOOTH",
"281 -2 LINE"
);
}
);
width = 1479;
}
);
note = intersection;
unicode = 2229;
},
{
glyphname = equivalence;
lastChange = "2020-03-13 21:34:11 +0000";
layers = (
{
layerId = "7129FC8E-08C2-4901-BA92-B1D794EB6D8E";
paths = (
{
closed = 1;
nodes = (
"100 956 LINE",
"1095 956 LINE",
"1095 1104 LINE",
"100 1104 LINE",
"100 956 LINE"
);
},
{
closed = 1;
nodes = (
"100 244 LINE",
"1095 244 LINE",
"1095 392 LINE",
"100 392 LINE",
"100 244 LINE"
);
},
{
closed = 1;
nodes = (
"100 600 LINE",
"1095 600 LINE",
"1095 748 LINE",
"100 748 LINE",
"100 600 LINE"
);
}
);
width = 1195;
}
);
note = equivalence;
unicode = 2261;
},
{
glyphname = house;
lastChange = "2020-03-13 21:34:11 +0000";
layers = (
{
layerId = "7129FC8E-08C2-4901-BA92-B1D794EB6D8E";
paths = (
{
closed = 1;
nodes = (
"157 0 LINE",
"1079 0 LINE",
"1079 635 LINE",
"618 1153 LINE",
"157 635 LINE",
"157 0 LINE"
);
},
{
closed = 1;
nodes = (
"237 82 LINE",
"237 600 LINE",
"618 1026 LINE",
"999 600 LINE",
"999 82 LINE",
"237 82 LINE"
);
}
);
width = 1237;
}
);
note = house;
unicode = 2302;
},
{
glyphname = revlogicalnot;
lastChange = "2020-03-13 21:34:11 +0000";
layers = (
{
layerId = "7129FC8E-08C2-4901-BA92-B1D794EB6D8E";
paths = (
{
closed = 1;
nodes = (
"100 180 LINE",
"245 180 LINE",
"245 608 LINE",
"1095 608 LINE",
"1095 754 LINE",
"100 754 LINE",
"100 180 LINE"
);
}
);
width = 1196;
}
);
note = revlogicalnot;
unicode = 2310;
},
{
glyphname = integraltp;
lastChange = "2020-03-13 21:34:11 +0000";
layers = (
{
layerId = "7129FC8E-08C2-4901-BA92-B1D794EB6D8E";
paths = (
{
closed = 1;
nodes = (
"693 -614 LINE",
"693 1423 LINE SMOOTH",
"693 1493 OFFCURVE",
"695 1539.667 OFFCURVE",
"699 1563 CURVE SMOOTH",
"705 1589 OFFCURVE",
"720 1602 OFFCURVE",
"744 1602 CURVE SMOOTH",
"754.667 1602 OFFCURVE",
"771 1589 OFFCURVE",
"793 1563 CURVE SMOOTH",
"818.333 1535 OFFCURVE",
"836.333 1518.333 OFFCURVE",
"847 1513 CURVE",
"855.667 1506.333 OFFCURVE",
"870 1503 OFFCURVE",
"890 1503 CURVE SMOOTH",
"939.333 1503 OFFCURVE",
"978 1541.667 OFFCURVE",
"978 1595 CURVE SMOOTH",
"978 1659 OFFCURVE",
"924 1706 OFFCURVE",
"840 1706 CURVE SMOOTH",
"672 1706 OFFCURVE",
"546 1525.333 OFFCURVE",
"546 1264 CURVE SMOOTH",
"546 -614 LINE",
"693 -614 LINE"
);
}
);
width = 1237;
}
);
note = integraltp;
unicode = 2320;
},
{
glyphname = integralbt;
lastChange = "2020-03-13 21:34:11 +0000";
layers = (
{
layerId = "7129FC8E-08C2-4901-BA92-B1D794EB6D8E";
paths = (
{
closed = 1;
nodes = (
"546 1706 LINE",
"546 -334 LINE SMOOTH",
"546 -418.667 OFFCURVE",
"542.167 -469.5 OFFCURVE",
"534.5 -486.5 CURVE SMOOTH",
"526.833 -503.5 OFFCURVE",
"513.333 -512 OFFCURVE",
"494 -512 CURVE SMOOTH",
"483.333 -512 OFFCURVE",
"467.667 -499.667 OFFCURVE",
"447 -475 CURVE SMOOTH",
"426.333 -447.667 OFFCURVE",
"412.667 -432.667 OFFCURVE",
"406 -430 CURVE",
"388.667 -419.333 OFFCURVE",
"369 -414 OFFCURVE",
"347 -414 CURVE SMOOTH",
"299 -414 OFFCURVE",
"261 -454 OFFCURVE",
"261 -506 CURVE SMOOTH",
"261 -568.667 OFFCURVE",
"319.333 -614 OFFCURVE",
"398 -614 CURVE SMOOTH",
"574 -614 OFFCURVE",
"693 -434 OFFCURVE",
"693 -174 CURVE SMOOTH",
"693 1706 LINE",
"546 1706 LINE"
);
}
);
width = 1237;
}
);
note = integralbt;
unicode = 2321;
},
{
glyphname = uni2500;
lastChange = "2020-03-13 21:34:11 +0000";
layers = (
{
layerId = "7129FC8E-08C2-4901-BA92-B1D794EB6D8E";
paths = (
{
closed = 1;
nodes = (
"-10 549 LINE",
"1461 549 LINE",
"1461 694 LINE",
"-10 694 LINE",
"-10 549 LINE"
);
}
);
width = 1451;
}
);
note = uni2500;
unicode = 2500;
},
{
glyphname = uni2502;
lastChange = "2020-03-13 21:34:11 +0000";
layers = (
{
layerId = "7129FC8E-08C2-4901-BA92-B1D794EB6D8E";
paths = (
{
closed = 1;
nodes = (
"472 1864 LINE",
"472 -621 LINE",
"617 -621 LINE",
"617 1864 LINE",
"472 1864 LINE"
);
}
);
width = 1280;
}
);
note = uni2502;
unicode = 2502;
},
{
glyphname = uni250C;
lastChange = "2020-03-13 21:34:11 +0000";
layers = (
{
layerId = "7129FC8E-08C2-4901-BA92-B1D794EB6D8E";
paths = (
{
closed = 1;
nodes = (
"653 694 LINE",
"653 -621 LINE",
"798 -621 LINE",
"798 549 LINE",
"1461 549 LINE",
"1461 694 LINE",
"653 694 LINE"
);
}
);
width = 1451;
}
);
note = uni250C;
unicode = 250C;
},
{
glyphname = uni2510;
lastChange = "2020-03-13 21:34:11 +0000";
layers = (
{
layerId = "7129FC8E-08C2-4901-BA92-B1D794EB6D8E";
paths = (
{
closed = 1;
nodes = (
"-10 549 LINE",
"653 549 LINE",
"653 -621 LINE",
"798 -621 LINE",
"798 694 LINE",
"-10 694 LINE",
"-10 549 LINE"
);
}
);
width = 1451;
}
);
note = uni2510;
unicode = 2510;
},
{
glyphname = uni2514;
lastChange = "2020-03-13 21:34:11 +0000";
layers = (
{
layerId = "7129FC8E-08C2-4901-BA92-B1D794EB6D8E";
paths = (
{
closed = 1;
nodes = (
"653 1864 LINE",
"653 549 LINE",
"1461 549 LINE",
"1461 694 LINE",
"798 694 LINE",
"798 1864 LINE",
"653 1864 LINE"
);
}
);
width = 1451;
}
);
note = uni2514;
unicode = 2514;
},
{
glyphname = uni2518;
lastChange = "2020-03-13 21:34:11 +0000";
layers = (
{
layerId = "7129FC8E-08C2-4901-BA92-B1D794EB6D8E";
paths = (
{
closed = 1;
nodes = (
"-10 549 LINE",
"798 549 LINE",
"798 1864 LINE",
"653 1864 LINE",
"653 694 LINE",
"-10 694 LINE",
"-10 549 LINE"
);
}
);
width = 1451;
}
);
note = uni2518;
unicode = 2518;
},
{
glyphname = uni251C;
lastChange = "2020-03-13 21:34:11 +0000";
layers = (
{
layerId = "7129FC8E-08C2-4901-BA92-B1D794EB6D8E";
paths = (
{
closed = 1;
nodes = (
"653 1864 LINE",
"653 -621 LINE",
"798 -621 LINE",
"798 549 LINE",
"1461 549 LINE",
"1461 694 LINE",
"798 694 LINE",
"798 1864 LINE",
"653 1864 LINE"
);
}
);
width = 1451;
}
);
note = uni251C;
unicode = 251C;
},
{
glyphname = uni2524;
lastChange = "2020-03-13 21:34:11 +0000";
layers = (
{
layerId = "7129FC8E-08C2-4901-BA92-B1D794EB6D8E";
paths = (
{
closed = 1;
nodes = (
"-10 549 LINE",
"653 549 LINE",
"653 -621 LINE",
"798 -621 LINE",
"798 1864 LINE",
"653 1864 LINE",
"653 694 LINE",
"-10 694 LINE",
"-10 549 LINE"
);
}
);
width = 1451;
}
);
note = uni2524;
unicode = 2524;
},
{
glyphname = uni252C;
lastChange = "2020-03-13 21:34:11 +0000";
layers = (
{
layerId = "7129FC8E-08C2-4901-BA92-B1D794EB6D8E";
paths = (
{
closed = 1;
nodes = (
"-10 549 LINE",
"653 549 LINE",
"653 -621 LINE",
"798 -621 LINE",
"798 549 LINE",
"1461 549 LINE",
"1461 694 LINE",
"-10 694 LINE",
"-10 549 LINE"
);
}
);
width = 1451;
}
);
note = uni252C;
unicode = 252C;
},
{
glyphname = uni2534;
lastChange = "2020-03-13 21:34:11 +0000";
layers = (
{
layerId = "7129FC8E-08C2-4901-BA92-B1D794EB6D8E";
paths = (
{
closed = 1;
nodes = (
"-10 549 LINE",
"1461 549 LINE",
"1461 694 LINE",
"798 694 LINE",
"798 1864 LINE",
"653 1864 LINE",
"653 694 LINE",
"-10 694 LINE",
"-10 549 LINE"
);
}
);
width = 1451;
}
);
note = uni2534;
unicode = 2534;
},
{
glyphname = uni253C;
lastChange = "2020-03-13 21:34:11 +0000";
layers = (
{
layerId = "7129FC8E-08C2-4901-BA92-B1D794EB6D8E";
paths = (
{
closed = 1;
nodes = (
"-10 549 LINE",
"653 549 LINE",
"653 -621 LINE",
"798 -621 LINE",
"798 549 LINE",
"1461 549 LINE",
"1461 694 LINE",
"798 694 LINE",
"798 1864 LINE",
"653 1864 LINE",
"653 694 LINE",
"-10 694 LINE",
"-10 549 LINE"
);
}
);
width = 1451;
}
);
note = uni253C;
unicode = 253C;
},
{
glyphname = uni2550;
lastChange = "2020-03-13 21:34:11 +0000";
layers = (
{
layerId = "7129FC8E-08C2-4901-BA92-B1D794EB6D8E";
paths = (
{
closed = 1;
nodes = (
"-10 729 LINE",
"1461 729 LINE",
"1461 874 LINE",
"-10 874 LINE",
"-10 729 LINE"
);
},
{
closed = 1;
nodes = (
"-10 369 LINE",
"1461 369 LINE",
"1461 514 LINE",
"-10 514 LINE",
"-10 369 LINE"
);
}
);
width = 1451;
}
);
note = uni2550;
unicode = 2550;
},
{
glyphname = uni2551;
lastChange = "2020-03-13 21:34:11 +0000";
layers = (
{
layerId = "7129FC8E-08C2-4901-BA92-B1D794EB6D8E";
paths = (
{
closed = 1;
nodes = (
"473 1864 LINE",
"473 -621 LINE",
"618 -621 LINE",
"618 1864 LINE",
"473 1864 LINE"
);
},
{
closed = 1;
nodes = (
"833 1864 LINE",
"833 -621 LINE",
"978 -621 LINE",
"978 1864 LINE",
"833 1864 LINE"
);
}
);
width = 1451;
}
);
note = uni2551;
unicode = 2551;
},
{
glyphname = uni2552;
lastChange = "2020-03-13 21:34:11 +0000";
layers = (
{
layerId = "7129FC8E-08C2-4901-BA92-B1D794EB6D8E";
paths = (
{
closed = 1;
nodes = (
"653 874 LINE",
"653 -621 LINE",
"798 -621 LINE",
"798 369 LINE",
"1461 369 LINE",
"1461 514 LINE",
"798 514 LINE",
"798 729 LINE",
"1461 729 LINE",
"1461 874 LINE",
"653 874 LINE"
);
}
);
width = 1451;
}
);
note = uni2552;
unicode = 2552;
},
{
glyphname = uni2553;
lastChange = "2020-03-13 21:34:11 +0000";
layers = (
{
layerId = "7129FC8E-08C2-4901-BA92-B1D794EB6D8E";
paths = (
{
closed = 1;
nodes = (
"1461 694 LINE",
"473 694 LINE",
"473 -621 LINE",
"618 -621 LINE",
"618 549 LINE",
"833 549 LINE",
"833 -621 LINE",
"978 -621 LINE",
"978 549 LINE",
"1461 549 LINE",
"1461 694 LINE"
);
}
);
width = 1451;
}
);
note = uni2553;
unicode = 2553;
},
{
glyphname = uni2554;
lastChange = "2020-03-13 21:34:11 +0000";
layers = (
{
layerId = "7129FC8E-08C2-4901-BA92-B1D794EB6D8E";
paths = (
{
closed = 1;
nodes = (
"473 874 LINE",
"473 -621 LINE",
"618 -621 LINE",
"618 729 LINE",
"1461 729 LINE",
"1461 874 LINE",
"473 874 LINE"
);
},
{
closed = 1;
nodes = (
"833 514 LINE",
"833 -621 LINE",
"978 -621 LINE",
"978 369 LINE",
"1461 369 LINE",
"1461 514 LINE",
"833 514 LINE"
);
}
);
width = 1451;
}
);
note = uni2554;
unicode = 2554;
},
{
glyphname = uni2555;
lastChange = "2020-03-13 21:34:11 +0000";
layers = (
{
layerId = "7129FC8E-08C2-4901-BA92-B1D794EB6D8E";
paths = (
{
closed = 1;
nodes = (
"-10 369 LINE",
"653 369 LINE",
"653 -621 LINE",
"798 -621 LINE",
"798 874 LINE",
"-10 874 LINE",
"-10 729 LINE",
"653 729 LINE",
"653 514 LINE",
"-10 514 LINE",
"-10 369 LINE"
);
}
);
width = 1451;
}
);
note = uni2555;
unicode = 2555;
},
{
glyphname = uni2556;
lastChange = "2020-03-13 21:34:11 +0000";
layers = (
{
layerId = "7129FC8E-08C2-4901-BA92-B1D794EB6D8E";
paths = (
{
closed = 1;
nodes = (
"-10 549 LINE",
"473 549 LINE",
"473 -621 LINE",
"618 -621 LINE",
"618 549 LINE",
"833 549 LINE",
"833 -621 LINE",
"978 -621 LINE",
"978 694 LINE",
"-10 694 LINE",
"-10 549 LINE"
);
}
);
width = 1451;
}
);
note = uni2556;
unicode = 2556;
},
{
glyphname = uni2557;
lastChange = "2020-03-13 21:34:11 +0000";
layers = (
{
layerId = "7129FC8E-08C2-4901-BA92-B1D794EB6D8E";
paths = (
{
closed = 1;
nodes = (
"978 874 LINE",
"-10 874 LINE",
"-10 729 LINE",
"833 729 LINE",
"833 -621 LINE",
"978 -621 LINE",
"978 874 LINE"
);
},
{
closed = 1;
nodes = (
"618 -621 LINE",
"618 514 LINE",
"-10 514 LINE",
"-10 369 LINE",
"473 369 LINE",
"473 -621 LINE",
"618 -621 LINE"
);
}
);
width = 1451;
}
);
note = uni2557;
unicode = 2557;
},
{
glyphname = uni2558;
lastChange = "2020-03-13 21:34:11 +0000";
layers = (
{
layerId = "7129FC8E-08C2-4901-BA92-B1D794EB6D8E";
paths = (
{
closed = 1;
nodes = (
"653 1864 LINE",
"653 369 LINE",
"1461 369 LINE",
"1461 514 LINE",
"798 514 LINE",
"798 729 LINE",
"1461 729 LINE",
"1461 874 LINE",
"798 874 LINE",
"798 1864 LINE",
"653 1864 LINE"
);
}
);
width = 1451;
}
);
note = uni2558;
unicode = 2558;
},
{
glyphname = uni2559;
lastChange = "2020-03-13 21:34:11 +0000";
layers = (
{
layerId = "7129FC8E-08C2-4901-BA92-B1D794EB6D8E";
paths = (
{
closed = 1;
nodes = (
"833 1864 LINE",
"833 694 LINE",
"618 694 LINE",
"618 1864 LINE",
"473 1864 LINE",
"473 549 LINE",
"1461 549 LINE",
"1461 694 LINE",
"978 694 LINE",
"978 1864 LINE",
"833 1864 LINE"
);
}
);
width = 1451;
}
);
note = uni2559;
unicode = 2559;
},
{
glyphname = uni255A;
lastChange = "2020-03-13 21:34:11 +0000";
layers = (
{
layerId = "7129FC8E-08C2-4901-BA92-B1D794EB6D8E";
paths = (
{
closed = 1;
nodes = (
"473 1864 LINE",
"473 369 LINE",
"1461 369 LINE",
"1461 514 LINE",
"618 514 LINE",
"618 1864 LINE",
"473 1864 LINE"
);
},
{
closed = 1;
nodes = (
"833 1864 LINE",
"833 729 LINE",
"1461 729 LINE",
"1461 874 LINE",
"978 874 LINE",
"978 1864 LINE",
"833 1864 LINE"
);
}
);
width = 1451;
}
);
note = uni255A;
unicode = 255A;
},
{
glyphname = uni255B;
lastChange = "2020-03-13 21:34:11 +0000";
layers = (
{
layerId = "7129FC8E-08C2-4901-BA92-B1D794EB6D8E";
paths = (
{
closed = 1;
nodes = (
"-10 369 LINE",
"798 369 LINE",
"798 1864 LINE",
"653 1864 LINE",
"653 874 LINE",
"-10 874 LINE",
"-10 729 LINE",
"653 729 LINE",
"653 514 LINE",
"-10 514 LINE",
"-10 369 LINE"
);
}
);
width = 1451;
}
);
note = uni255B;
unicode = 255B;
},
{
glyphname = uni255C;
lastChange = "2020-03-13 21:34:11 +0000";
layers = (
{
layerId = "7129FC8E-08C2-4901-BA92-B1D794EB6D8E";
paths = (
{
closed = 1;
nodes = (
"978 549 LINE",
"978 1864 LINE",
"833 1864 LINE",
"833 694 LINE",
"618 694 LINE",
"618 1864 LINE",
"473 1864 LINE",
"473 694 LINE",
"-10 694 LINE",
"-10 549 LINE",
"978 549 LINE"
);
}
);
width = 1451;
}
);
note = uni255C;
unicode = 255C;
},
{
glyphname = uni255D;
lastChange = "2020-03-13 21:34:11 +0000";
layers = (
{
layerId = "7129FC8E-08C2-4901-BA92-B1D794EB6D8E";
paths = (
{
closed = 1;
nodes = (
"978 369 LINE",
"978 1864 LINE",
"833 1864 LINE",
"833 514 LINE",
"-10 514 LINE",
"-10 369 LINE",
"978 369 LINE"
);
},
{
closed = 1;
nodes = (
"473 1864 LINE",
"473 874 LINE",
"-10 874 LINE",
"-10 729 LINE",
"618 729 LINE",
"618 1864 LINE",
"473 1864 LINE"
);
}
);
width = 1451;
}
);
note = uni255D;
unicode = 255D;
},
{
glyphname = uni255E;
lastChange = "2020-03-13 21:34:11 +0000";
layers = (
{
layerId = "7129FC8E-08C2-4901-BA92-B1D794EB6D8E";
paths = (
{
closed = 1;
nodes = (
"653 1864 LINE",
"653 -621 LINE",
"798 -621 LINE",
"798 369 LINE",
"1461 369 LINE",
"1461 514 LINE",
"798 514 LINE",
"798 729 LINE",
"1461 729 LINE",
"1461 874 LINE",
"798 874 LINE",
"798 1864 LINE",
"653 1864 LINE"
);
}
);
width = 1451;
}
);
note = uni255E;
unicode = 255E;
},
{
glyphname = uni255F;
lastChange = "2020-03-13 21:34:11 +0000";
layers = (
{
layerId = "7129FC8E-08C2-4901-BA92-B1D794EB6D8E";
paths = (
{
closed = 1;
nodes = (
"833 1864 LINE",
"833 -621 LINE",
"978 -621 LINE",
"978 549 LINE",
"1461 549 LINE",
"1461 694 LINE",
"978 694 LINE",
"978 1864 LINE",
"833 1864 LINE"
);
},
{
closed = 1;
nodes = (
"473 1864 LINE",
"473 -621 LINE",
"618 -621 LINE",
"618 1864 LINE",
"473 1864 LINE"
);
}
);
width = 1451;
}
);
note = uni255F;
unicode = 255F;
},
{
glyphname = uni2560;
lastChange = "2020-03-13 21:34:11 +0000";
layers = (
{
layerId = "7129FC8E-08C2-4901-BA92-B1D794EB6D8E";
paths = (
{
closed = 1;
nodes = (
"618 -621 LINE",
"618 1864 LINE",
"473 1864 LINE",
"473 -621 LINE",
"618 -621 LINE"
);
},
{
closed = 1;
nodes = (
"833 514 LINE",
"833 -621 LINE",
"978 -621 LINE",
"978 369 LINE",
"1461 369 LINE",
"1461 514 LINE",
"833 514 LINE"
);
},
{
closed = 1;
nodes = (
"833 1864 LINE",
"833 729 LINE",
"1461 729 LINE",
"1461 874 LINE",
"978 874 LINE",
"978 1864 LINE",
"833 1864 LINE"
);
}
);
width = 1451;
}
);
note = uni2560;
unicode = 2560;
},
{
glyphname = uni2561;
lastChange = "2020-03-13 21:34:11 +0000";
layers = (
{
layerId = "7129FC8E-08C2-4901-BA92-B1D794EB6D8E";
paths = (
{
closed = 1;
nodes = (
"-10 369 LINE",
"653 369 LINE",
"653 -621 LINE",
"798 -621 LINE",
"798 1864 LINE",
"653 1864 LINE",
"653 874 LINE",
"-10 874 LINE",
"-10 729 LINE",
"653 729 LINE",
"653 514 LINE",
"-10 514 LINE",
"-10 369 LINE"
);
}
);
width = 1451;
}
);
note = uni2561;
unicode = 2561;
},
{
glyphname = uni2562;
lastChange = "2020-03-13 21:34:11 +0000";
layers = (
{
layerId = "7129FC8E-08C2-4901-BA92-B1D794EB6D8E";
paths = (
{
closed = 1;
nodes = (
"-10 549 LINE",
"473 549 LINE",
"473 -621 LINE",
"618 -621 LINE",
"618 1864 LINE",
"473 1864 LINE",
"473 694 LINE",
"-10 694 LINE",
"-10 549 LINE"
);
},
{
closed = 1;
nodes = (
"833 1864 LINE",
"833 -621 LINE",
"978 -621 LINE",
"978 1864 LINE",
"833 1864 LINE"
);
}
);
width = 1451;
}
);
note = uni2562;
unicode = 2562;
},
{
glyphname = uni2563;
lastChange = "2020-03-13 21:34:11 +0000";
layers = (
{
layerId = "7129FC8E-08C2-4901-BA92-B1D794EB6D8E";
paths = (
{
closed = 1;
nodes = (
"833 1864 LINE",
"833 -621 LINE",
"978 -621 LINE",
"978 1864 LINE",
"833 1864 LINE"
);
},
{
closed = 1;
nodes = (
"473 1864 LINE",
"473 874 LINE",
"-10 874 LINE",
"-10 729 LINE",
"618 729 LINE",
"618 1864 LINE",
"473 1864 LINE"
);
},
{
closed = 1;
nodes = (
"618 -621 LINE",
"618 514 LINE",
"-10 514 LINE",
"-10 369 LINE",
"473 369 LINE",
"473 -621 LINE",
"618 -621 LINE"
);
}
);
width = 1451;
}
);
note = uni2563;
unicode = 2563;
},
{
glyphname = uni2564;
lastChange = "2020-03-13 21:34:11 +0000";
layers = (
{
layerId = "7129FC8E-08C2-4901-BA92-B1D794EB6D8E";
paths = (
{
closed = 1;
nodes = (
"-10 369 LINE",
"653 369 LINE",
"653 -621 LINE",
"798 -621 LINE",
"798 369 LINE",
"1461 369 LINE",
"1461 514 LINE",
"-10 514 LINE",
"-10 369 LINE"
);
},
{
closed = 1;
nodes = (
"-10 729 LINE",
"1461 729 LINE",
"1461 874 LINE",
"-10 874 LINE",
"-10 729 LINE"
);
}
);
width = 1451;
}
);
note = uni2564;
unicode = 2564;
},
{
glyphname = uni2565;
lastChange = "2020-03-13 21:34:11 +0000";
layers = (
{
layerId = "7129FC8E-08C2-4901-BA92-B1D794EB6D8E";
paths = (
{
closed = 1;
nodes = (
"-10 549 LINE",
"473 549 LINE",
"473 -621 LINE",
"618 -621 LINE",
"618 549 LINE",
"833 549 LINE",
"833 -621 LINE",
"978 -621 LINE",
"978 549 LINE",
"1461 549 LINE",
"1461 694 LINE",
"-10 694 LINE",
"-10 549 LINE"
);
}
);
width = 1451;
}
);
note = uni2565;
unicode = 2565;
},
{
glyphname = uni2566;
lastChange = "2020-03-13 21:34:11 +0000";
layers = (
{
layerId = "7129FC8E-08C2-4901-BA92-B1D794EB6D8E";
paths = (
{
closed = 1;
nodes = (
"618 -621 LINE",
"618 514 LINE",
"-10 514 LINE",
"-10 369 LINE",
"473 369 LINE",
"473 -621 LINE",
"618 -621 LINE"
);
},
{
closed = 1;
nodes = (
"833 514 LINE",
"833 -621 LINE",
"978 -621 LINE",
"978 369 LINE",
"1461 369 LINE",
"1461 514 LINE",
"833 514 LINE"
);
},
{
closed = 1;
nodes = (
"1461 874 LINE",
"-10 874 LINE",
"-10 729 LINE",
"1461 729 LINE",
"1461 874 LINE"
);
}
);
width = 1451;
}
);
note = uni2566;
unicode = 2566;
},
{
glyphname = uni2567;
lastChange = "2020-03-13 21:34:11 +0000";
layers = (
{
layerId = "7129FC8E-08C2-4901-BA92-B1D794EB6D8E";
paths = (
{
closed = 1;
nodes = (
"-10 729 LINE",
"1461 729 LINE",
"1461 874 LINE",
"798 874 LINE",
"798 1864 LINE",
"653 1864 LINE",
"653 874 LINE",
"-10 874 LINE",
"-10 729 LINE"
);
},
{
closed = 1;
nodes = (
"-10 369 LINE",
"1461 369 LINE",
"1461 514 LINE",
"-10 514 LINE",
"-10 369 LINE"
);
}
);
width = 1451;
}
);
note = uni2567;
unicode = 2567;
},
{
glyphname = uni2568;
lastChange = "2020-03-13 21:34:11 +0000";
layers = (
{
layerId = "7129FC8E-08C2-4901-BA92-B1D794EB6D8E";
paths = (
{
closed = 1;
nodes = (
"-10 549 LINE",
"1461 549 LINE",
"1461 694 LINE",
"978 694 LINE",
"978 1864 LINE",
"833 1864 LINE",
"833 694 LINE",
"618 694 LINE",
"618 1864 LINE",
"473 1864 LINE",
"473 694 LINE",
"-10 694 LINE",
"-10 549 LINE"
);
}
);
width = 1451;
}
);
note = uni2568;
unicode = 2568;
},
{
glyphname = uni2569;
lastChange = "2020-03-13 21:34:11 +0000";
layers = (
{
layerId = "7129FC8E-08C2-4901-BA92-B1D794EB6D8E";
paths = (
{
closed = 1;
nodes = (
"833 1864 LINE",
"833 729 LINE",
"1461 729 LINE",
"1461 874 LINE",
"978 874 LINE",
"978 1864 LINE",
"833 1864 LINE"
);
},
{
closed = 1;
nodes = (
"473 1864 LINE",
"473 874 LINE",
"-10 874 LINE",
"-10 729 LINE",
"618 729 LINE",
"618 1864 LINE",
"473 1864 LINE"
);
},
{
closed = 1;
nodes = (
"-10 369 LINE",
"1461 369 LINE",
"1461 514 LINE",
"-10 514 LINE",
"-10 369 LINE"
);
}
);
width = 1451;
}
);
note = uni2569;
unicode = 2569;
},
{
glyphname = uni256A;
lastChange = "2020-03-13 21:34:11 +0000";
layers = (
{
layerId = "7129FC8E-08C2-4901-BA92-B1D794EB6D8E";
paths = (
{
closed = 1;
nodes = (
"-10 369 LINE",
"653 369 LINE",
"653 -621 LINE",
"798 -621 LINE",
"798 369 LINE",
"1461 369 LINE",
"1461 514 LINE",
"798 514 LINE",
"798 729 LINE",
"1461 729 LINE",
"1461 874 LINE",
"798 874 LINE",
"798 1864 LINE",
"653 1864 LINE",
"653 874 LINE",
"-10 874 LINE",
"-10 729 LINE",
"653 729 LINE",
"653 514 LINE",
"-10 514 LINE",
"-10 369 LINE"
);
}
);
width = 1451;
}
);
note = uni256A;
unicode = 256A;
},
{
glyphname = uni256B;
lastChange = "2020-03-13 21:34:11 +0000";
layers = (
{
layerId = "7129FC8E-08C2-4901-BA92-B1D794EB6D8E";
paths = (
{
closed = 1;
nodes = (
"833 1864 LINE",
"833 694 LINE",
"618 694 LINE",
"618 1864 LINE",
"473 1864 LINE",
"473 694 LINE",
"-10 694 LINE",
"-10 549 LINE",
"473 549 LINE",
"473 -621 LINE",
"618 -621 LINE",
"618 549 LINE",
"833 549 LINE",
"833 -621 LINE",
"978 -621 LINE",
"978 549 LINE",
"1461 549 LINE",
"1461 694 LINE",
"978 694 LINE",
"978 1864 LINE",
"833 1864 LINE"
);
}
);
width = 1451;
}
);
note = uni256B;
unicode = 256B;
},
{
glyphname = uni256C;
lastChange = "2020-03-13 21:34:11 +0000";
layers = (
{
layerId = "7129FC8E-08C2-4901-BA92-B1D794EB6D8E";
paths = (
{
closed = 1;
nodes = (
"833 1864 LINE",
"833 729 LINE",
"1461 729 LINE",
"1461 874 LINE",
"978 874 LINE",
"978 1864 LINE",
"833 1864 LINE"
);
},
{
closed = 1;
nodes = (
"618 -621 LINE",
"618 514 LINE",
"-10 514 LINE",
"-10 369 LINE",
"473 369 LINE",
"473 -621 LINE",
"618 -621 LINE"
);
},
{
closed = 1;
nodes = (
"833 514 LINE",
"833 -621 LINE",
"978 -621 LINE",
"978 369 LINE",
"1461 369 LINE",
"1461 514 LINE",
"833 514 LINE"
);
},
{
closed = 1;
nodes = (
"473 1864 LINE",
"473 874 LINE",
"-10 874 LINE",
"-10 729 LINE",
"618 729 LINE",
"618 1864 LINE",
"473 1864 LINE"
);
}
);
width = 1451;
}
);
note = uni256C;
unicode = 256C;
},
{
glyphname = upblock;
lastChange = "2020-03-13 21:34:11 +0000";
layers = (
{
layerId = "7129FC8E-08C2-4901-BA92-B1D794EB6D8E";
paths = (
{
closed = 1;
nodes = (
"1451 621 LINE",
"1451 1864 LINE",
"0 1864 LINE",
"0 621 LINE",
"1451 621 LINE"
);
}
);
width = 1451;
}
);
note = upblock;
unicode = 2580;
},
{
glyphname = dnblock;
lastChange = "2020-03-13 21:34:11 +0000";
layers = (
{
layerId = "7129FC8E-08C2-4901-BA92-B1D794EB6D8E";
paths = (
{
closed = 1;
nodes = (
"1451 -621 LINE",
"1451 621 LINE",
"0 621 LINE",
"0 -621 LINE",
"1451 -621 LINE"
);
}
);
width = 1451;
}
);
note = dnblock;
unicode = 2584;
},
{
glyphname = block;
lastChange = "2020-03-13 21:34:11 +0000";
layers = (
{
layerId = "7129FC8E-08C2-4901-BA92-B1D794EB6D8E";
paths = (
{
closed = 1;
nodes = (
"1451 -621 LINE",
"1451 1864 LINE",
"0 1864 LINE",
"0 -621 LINE",
"1451 -621 LINE"
);
}
);
width = 1451;
}
);
note = block;
unicode = 2588;
},
{
glyphname = lfblock;
lastChange = "2020-03-13 21:34:11 +0000";
layers = (
{
layerId = "7129FC8E-08C2-4901-BA92-B1D794EB6D8E";
paths = (
{
closed = 1;
nodes = (
"726 -621 LINE",
"726 1864 LINE",
"0 1864 LINE",
"0 -621 LINE",
"726 -621 LINE"
);
}
);
width = 1451;
}
);
note = lfblock;
unicode = 258C;
},
{
glyphname = rtblock;
lastChange = "2020-03-13 21:34:11 +0000";
layers = (
{
layerId = "7129FC8E-08C2-4901-BA92-B1D794EB6D8E";
paths = (
{
closed = 1;
nodes = (
"1451 -621 LINE",
"1451 1864 LINE",
"725 1864 LINE",
"725 -621 LINE",
"1451 -621 LINE"
);
}
);
width = 1451;
}
);
note = rtblock;
unicode = 2590;
},
{
glyphname = ltshade;
lastChange = "2020-03-13 21:34:11 +0000";
layers = (
{
layerId = "7129FC8E-08C2-4901-BA92-B1D794EB6D8E";
paths = (
{
closed = 1;
nodes = (
"103 1314 LINE",
"103 1216 LINE",
"207 1216 LINE",
"207 1314 LINE",
"103 1314 LINE"
);
},
{
closed = 1;
nodes = (
"517 1314 LINE",
"517 1216 LINE",
"621 1216 LINE",
"621 1314 LINE",
"517 1314 LINE"
);
},
{
closed = 1;
nodes = (
"933 1314 LINE",
"933 1216 LINE",
"1036 1216 LINE",
"1036 1314 LINE",
"933 1314 LINE"
);
},
{
closed = 1;
nodes = (
"310 1119 LINE",
"310 1023 LINE",
"414 1023 LINE",
"414 1119 LINE",
"310 1119 LINE"
);
},
{
closed = 1;
nodes = (
"725 1119 LINE",
"725 1023 LINE",
"829 1023 LINE",
"829 1119 LINE",
"725 1119 LINE"
);
},
{
closed = 1;
nodes = (
"1140 1119 LINE",
"1140 1023 LINE",
"1244 1023 LINE",
"1244 1119 LINE",
"1140 1119 LINE"
);
},
{
closed = 1;
nodes = (
"933 927 LINE",
"933 831 LINE",
"1036 831 LINE",
"1036 927 LINE",
"933 927 LINE"
);
},
{
closed = 1;
nodes = (
"517 927 LINE",
"517 831 LINE",
"621 831 LINE",
"621 927 LINE",
"517 927 LINE"
);
},
{
closed = 1;
nodes = (
"103 927 LINE",
"103 831 LINE",
"207 831 LINE",
"207 927 LINE",
"103 927 LINE"
);
},
{
closed = 1;
nodes = (
"1140 732 LINE",
"1140 636 LINE",
"1244 636 LINE",
"1244 732 LINE",
"1140 732 LINE"
);
},
{
closed = 1;
nodes = (
"725 732 LINE",
"725 636 LINE",
"829 636 LINE",
"829 732 LINE",
"725 732 LINE"
);
},
{
closed = 1;
nodes = (
"310 732 LINE",
"310 636 LINE",
"414 636 LINE",
"414 732 LINE",
"310 732 LINE"
);
},
{
closed = 1;
nodes = (
"103 540 LINE",
"103 444 LINE",
"207 444 LINE",
"207 540 LINE",
"103 540 LINE"
);
},
{
closed = 1;
nodes = (
"517 540 LINE",
"517 444 LINE",
"621 444 LINE",
"621 540 LINE",
"517 540 LINE"
);
},
{
closed = 1;
nodes = (
"933 540 LINE",
"933 444 LINE",
"1036 444 LINE",
"1036 540 LINE",
"933 540 LINE"
);
},
{
closed = 1;
nodes = (
"1140 345 LINE",
"1140 249 LINE",
"1244 249 LINE",
"1244 345 LINE",
"1140 345 LINE"
);
},
{
closed = 1;
nodes = (
"725 345 LINE",
"725 249 LINE",
"829 249 LINE",
"829 345 LINE",
"725 345 LINE"
);
},
{
closed = 1;
nodes = (
"310 345 LINE",
"310 249 LINE",
"414 249 LINE",
"414 345 LINE",
"310 345 LINE"
);
},
{
closed = 1;
nodes = (
"103 153 LINE",
"103 56 LINE",
"207 56 LINE",
"207 153 LINE",
"103 153 LINE"
);
},
{
closed = 1;
nodes = (
"517 153 LINE",
"517 56 LINE",
"621 56 LINE",
"621 153 LINE",
"517 153 LINE"
);
},
{
closed = 1;
nodes = (
"933 153 LINE",
"933 56 LINE",
"1036 56 LINE",
"1036 153 LINE",
"933 153 LINE"
);
},
{
closed = 1;
nodes = (
"310 -42 LINE",
"310 -136 LINE",
"414 -136 LINE",
"414 -42 LINE",
"310 -42 LINE"
);
},
{
closed = 1;
nodes = (
"725 -42 LINE",
"725 -136 LINE",
"829 -136 LINE",
"829 -42 LINE",
"725 -42 LINE"
);
},
{
closed = 1;
nodes = (
"1140 -42 LINE",
"1140 -136 LINE",
"1244 -136 LINE",
"1244 -42 LINE",
"1140 -42 LINE"
);
},
{
closed = 1;
nodes = (
"933 -234 LINE",
"933 -331 LINE",
"1036 -331 LINE",
"1036 -234 LINE",
"933 -234 LINE"
);
},
{
closed = 1;
nodes = (
"517 -234 LINE",
"517 -331 LINE",
"621 -331 LINE",
"621 -234 LINE",
"517 -234 LINE"
);
},
{
closed = 1;
nodes = (
"103 -234 LINE",
"103 -331 LINE",
"207 -331 LINE",
"207 -234 LINE",
"103 -234 LINE"
);
},
{
closed = 1;
nodes = (
"310 -427 LINE",
"310 -523 LINE",
"414 -523 LINE",
"414 -427 LINE",
"310 -427 LINE"
);
},
{
closed = 1;
nodes = (
"725 -427 LINE",
"725 -523 LINE",
"829 -523 LINE",
"829 -427 LINE",
"725 -427 LINE"
);
},
{
closed = 1;
nodes = (
"1140 -427 LINE",
"1140 -523 LINE",
"1244 -523 LINE",
"1244 -427 LINE",
"1140 -427 LINE"
);
},
{
closed = 1;
nodes = (
"310 1506 LINE",
"310 1408 LINE",
"414 1408 LINE",
"414 1506 LINE",
"310 1506 LINE"
);
},
{
closed = 1;
nodes = (
"725 1506 LINE",
"725 1408 LINE",
"829 1408 LINE",
"829 1506 LINE",
"725 1506 LINE"
);
},
{
closed = 1;
nodes = (
"1140 1506 LINE",
"1140 1408 LINE",
"1244 1408 LINE",
"1244 1506 LINE",
"1140 1506 LINE"
);
},
{
closed = 1;
nodes = (
"103 1699 LINE",
"103 1603 LINE",
"207 1603 LINE",
"207 1699 LINE",
"103 1699 LINE"
);
},
{
closed = 1;
nodes = (
"517 1699 LINE",
"517 1603 LINE",
"621 1603 LINE",
"621 1699 LINE",
"517 1699 LINE"
);
},
{
closed = 1;
nodes = (
"933 1699 LINE",
"933 1603 LINE",
"1036 1603 LINE",
"1036 1699 LINE",
"933 1699 LINE"
);
},
{
closed = 1;
nodes = (
"1347 1314 LINE",
"1347 1216 LINE",
"1451 1216 LINE",
"1451 1314 LINE",
"1347 1314 LINE"
);
},
{
closed = 1;
nodes = (
"1347 927 LINE",
"1347 831 LINE",
"1451 831 LINE",
"1451 927 LINE",
"1347 927 LINE"
);
},
{
closed = 1;
nodes = (
"1347 540 LINE",
"1347 444 LINE",
"1451 444 LINE",
"1451 540 LINE",
"1347 540 LINE"
);
},
{
closed = 1;
nodes = (
"1347 153 LINE",
"1347 56 LINE",
"1451 56 LINE",
"1451 153 LINE",
"1347 153 LINE"
);
},
{
closed = 1;
nodes = (
"1347 -234 LINE",
"1347 -331 LINE",
"1451 -331 LINE",
"1451 -234 LINE",
"1347 -234 LINE"
);
},
{
closed = 1;
nodes = (
"1347 1699 LINE",
"1347 1603 LINE",
"1451 1603 LINE",
"1451 1699 LINE",
"1347 1699 LINE"
);
}
);
width = 1451;
}
);
note = ltshade;
unicode = 2591;
},
{
glyphname = shade;
lastChange = "2020-03-13 21:34:11 +0000";
layers = (
{
layerId = "7129FC8E-08C2-4901-BA92-B1D794EB6D8E";
paths = (
{
closed = 1;
nodes = (
"103 1314 LINE",
"103 1216 LINE",
"207 1216 LINE",
"207 1314 LINE",
"103 1314 LINE"
);
},
{
closed = 1;
nodes = (
"310 1314 LINE",
"310 1216 LINE",
"414 1216 LINE",
"414 1314 LINE",
"310 1314 LINE"
);
},
{
closed = 1;
nodes = (
"517 1314 LINE",
"517 1216 LINE",
"621 1216 LINE",
"621 1314 LINE",
"517 1314 LINE"
);
},
{
closed = 1;
nodes = (
"725 1314 LINE",
"725 1216 LINE",
"829 1216 LINE",
"829 1314 LINE",
"725 1314 LINE"
);
},
{
closed = 1;
nodes = (
"933 1314 LINE",
"933 1216 LINE",
"1037 1216 LINE",
"1037 1314 LINE",
"933 1314 LINE"
);
},
{
closed = 1;
nodes = (
"1140 1314 LINE",
"1140 1216 LINE",
"1244 1216 LINE",
"1244 1314 LINE",
"1140 1314 LINE"
);
},
{
closed = 1;
nodes = (
"0 1119 LINE",
"0 1023 LINE",
"103 1023 LINE",
"103 1119 LINE",
"0 1119 LINE"
);
},
{
closed = 1;
nodes = (
"207 1119 LINE",
"207 1023 LINE",
"310 1023 LINE",
"310 1119 LINE",
"207 1119 LINE"
);
},
{
closed = 1;
nodes = (
"414 1119 LINE",
"414 1023 LINE",
"517 1023 LINE",
"517 1119 LINE",
"414 1119 LINE"
);
},
{
closed = 1;
nodes = (
"621 1119 LINE",
"621 1023 LINE",
"725 1023 LINE",
"725 1119 LINE",
"621 1119 LINE"
);
},
{
closed = 1;
nodes = (
"829 1119 LINE",
"829 1023 LINE",
"933 1023 LINE",
"933 1119 LINE",
"829 1119 LINE"
);
},
{
closed = 1;
nodes = (
"1037 1119 LINE",
"1037 1023 LINE",
"1140 1023 LINE",
"1140 1119 LINE",
"1037 1119 LINE"
);
},
{
closed = 1;
nodes = (
"103 927 LINE",
"103 831 LINE",
"207 831 LINE",
"207 927 LINE",
"103 927 LINE"
);
},
{
closed = 1;
nodes = (
"310 927 LINE",
"310 831 LINE",
"414 831 LINE",
"414 927 LINE",
"310 927 LINE"
);
},
{
closed = 1;
nodes = (
"517 927 LINE",
"517 831 LINE",
"621 831 LINE",
"621 927 LINE",
"517 927 LINE"
);
},
{
closed = 1;
nodes = (
"725 927 LINE",
"725 831 LINE",
"829 831 LINE",
"829 927 LINE",
"725 927 LINE"
);
},
{
closed = 1;
nodes = (
"933 927 LINE",
"933 831 LINE",
"1037 831 LINE",
"1037 927 LINE",
"933 927 LINE"
);
},
{
closed = 1;
nodes = (
"1140 927 LINE",
"1140 831 LINE",
"1244 831 LINE",
"1244 927 LINE",
"1140 927 LINE"
);
},
{
closed = 1;
nodes = (
"0 732 LINE",
"0 636 LINE",
"103 636 LINE",
"103 732 LINE",
"0 732 LINE"
);
},
{
closed = 1;
nodes = (
"207 732 LINE",
"207 636 LINE",
"310 636 LINE",
"310 732 LINE",
"207 732 LINE"
);
},
{
closed = 1;
nodes = (
"414 732 LINE",
"414 636 LINE",
"517 636 LINE",
"517 732 LINE",
"414 732 LINE"
);
},
{
closed = 1;
nodes = (
"621 732 LINE",
"621 636 LINE",
"725 636 LINE",
"725 732 LINE",
"621 732 LINE"
);
},
{
closed = 1;
nodes = (
"829 732 LINE",
"829 636 LINE",
"933 636 LINE",
"933 732 LINE",
"829 732 LINE"
);
},
{
closed = 1;
nodes = (
"1037 732 LINE",
"1037 636 LINE",
"1140 636 LINE",
"1140 732 LINE",
"1037 732 LINE"
);
},
{
closed = 1;
nodes = (
"103 540 LINE",
"103 444 LINE",
"207 444 LINE",
"207 540 LINE",
"103 540 LINE"
);
},
{
closed = 1;
nodes = (
"310 540 LINE",
"310 444 LINE",
"414 444 LINE",
"414 540 LINE",
"310 540 LINE"
);
},
{
closed = 1;
nodes = (
"517 540 LINE",
"517 444 LINE",
"621 444 LINE",
"621 540 LINE",
"517 540 LINE"
);
},
{
closed = 1;
nodes = (
"725 540 LINE",
"725 444 LINE",
"829 444 LINE",
"829 540 LINE",
"725 540 LINE"
);
},
{
closed = 1;
nodes = (
"933 540 LINE",
"933 444 LINE",
"1037 444 LINE",
"1037 540 LINE",
"933 540 LINE"
);
},
{
closed = 1;
nodes = (
"1140 540 LINE",
"1140 444 LINE",
"1244 444 LINE",
"1244 540 LINE",
"1140 540 LINE"
);
},
{
closed = 1;
nodes = (
"0 345 LINE",
"0 249 LINE",
"103 249 LINE",
"103 345 LINE",
"0 345 LINE"
);
},
{
closed = 1;
nodes = (
"414 345 LINE",
"414 249 LINE",
"517 249 LINE",
"517 345 LINE",
"414 345 LINE"
);
},
{
closed = 1;
nodes = (
"621 345 LINE",
"621 249 LINE",
"725 249 LINE",
"725 345 LINE",
"621 345 LINE"
);
},
{
closed = 1;
nodes = (
"829 345 LINE",
"829 249 LINE",
"933 249 LINE",
"933 345 LINE",
"829 345 LINE"
);
},
{
closed = 1;
nodes = (
"1037 345 LINE",
"1037 249 LINE",
"1140 249 LINE",
"1140 345 LINE",
"1037 345 LINE"
);
},
{
closed = 1;
nodes = (
"207 345 LINE",
"207 249 LINE",
"310 249 LINE",
"310 345 LINE",
"207 345 LINE"
);
},
{
closed = 1;
nodes = (
"1140 153 LINE",
"1140 56 LINE",
"1244 56 LINE",
"1244 153 LINE",
"1140 153 LINE"
);
},
{
closed = 1;
nodes = (
"933 153 LINE",
"933 56 LINE",
"1037 56 LINE",
"1037 153 LINE",
"933 153 LINE"
);
},
{
closed = 1;
nodes = (
"725 153 LINE",
"725 56 LINE",
"829 56 LINE",
"829 153 LINE",
"725 153 LINE"
);
},
{
closed = 1;
nodes = (
"517 153 LINE",
"517 56 LINE",
"621 56 LINE",
"621 153 LINE",
"517 153 LINE"
);
},
{
closed = 1;
nodes = (
"310 153 LINE",
"310 56 LINE",
"414 56 LINE",
"414 153 LINE",
"310 153 LINE"
);
},
{
closed = 1;
nodes = (
"103 153 LINE",
"103 56 LINE",
"207 56 LINE",
"207 153 LINE",
"103 153 LINE"
);
},
{
closed = 1;
nodes = (
"0 -42 LINE",
"0 -136 LINE",
"103 -136 LINE",
"103 -42 LINE",
"0 -42 LINE"
);
},
{
closed = 1;
nodes = (
"207 -42 LINE",
"207 -136 LINE",
"310 -136 LINE",
"310 -42 LINE",
"207 -42 LINE"
);
},
{
closed = 1;
nodes = (
"414 -42 LINE",
"414 -136 LINE",
"517 -136 LINE",
"517 -42 LINE",
"414 -42 LINE"
);
},
{
closed = 1;
nodes = (
"621 -42 LINE",
"621 -136 LINE",
"725 -136 LINE",
"725 -42 LINE",
"621 -42 LINE"
);
},
{
closed = 1;
nodes = (
"829 -42 LINE",
"829 -136 LINE",
"933 -136 LINE",
"933 -42 LINE",
"829 -42 LINE"
);
},
{
closed = 1;
nodes = (
"1037 -42 LINE",
"1037 -136 LINE",
"1140 -136 LINE",
"1140 -42 LINE",
"1037 -42 LINE"
);
},
{
closed = 1;
nodes = (
"1140 -234 LINE",
"1140 -331 LINE",
"1244 -331 LINE",
"1244 -234 LINE",
"1140 -234 LINE"
);
},
{
closed = 1;
nodes = (
"933 -234 LINE",
"933 -331 LINE",
"1037 -331 LINE",
"1037 -234 LINE",
"933 -234 LINE"
);
},
{
closed = 1;
nodes = (
"725 -234 LINE",
"725 -331 LINE",
"829 -331 LINE",
"829 -234 LINE",
"725 -234 LINE"
);
},
{
closed = 1;
nodes = (
"517 -234 LINE",
"517 -331 LINE",
"621 -331 LINE",
"621 -234 LINE",
"517 -234 LINE"
);
},
{
closed = 1;
nodes = (
"310 -234 LINE",
"310 -331 LINE",
"414 -331 LINE",
"414 -234 LINE",
"310 -234 LINE"
);
},
{
closed = 1;
nodes = (
"103 -234 LINE",
"103 -331 LINE",
"207 -331 LINE",
"207 -234 LINE",
"103 -234 LINE"
);
},
{
closed = 1;
nodes = (
"0 -427 LINE",
"0 -523 LINE",
"103 -523 LINE",
"103 -427 LINE",
"0 -427 LINE"
);
},
{
closed = 1;
nodes = (
"207 -427 LINE",
"207 -523 LINE",
"310 -523 LINE",
"310 -427 LINE",
"207 -427 LINE"
);
},
{
closed = 1;
nodes = (
"414 -427 LINE",
"414 -523 LINE",
"517 -523 LINE",
"517 -427 LINE",
"414 -427 LINE"
);
},
{
closed = 1;
nodes = (
"621 -427 LINE",
"621 -523 LINE",
"725 -523 LINE",
"725 -427 LINE",
"621 -427 LINE"
);
},
{
closed = 1;
nodes = (
"829 -427 LINE",
"829 -523 LINE",
"933 -523 LINE",
"933 -427 LINE",
"829 -427 LINE"
);
},
{
closed = 1;
nodes = (
"1037 -427 LINE",
"1037 -523 LINE",
"1140 -523 LINE",
"1140 -427 LINE",
"1037 -427 LINE"
);
},
{
closed = 1;
nodes = (
"0 1506 LINE",
"0 1408 LINE",
"103 1408 LINE",
"103 1506 LINE",
"0 1506 LINE"
);
},
{
closed = 1;
nodes = (
"207 1506 LINE",
"207 1408 LINE",
"310 1408 LINE",
"310 1506 LINE",
"207 1506 LINE"
);
},
{
closed = 1;
nodes = (
"414 1506 LINE",
"414 1408 LINE",
"517 1408 LINE",
"517 1506 LINE",
"414 1506 LINE"
);
},
{
closed = 1;
nodes = (
"621 1506 LINE",
"621 1408 LINE",
"725 1408 LINE",
"725 1506 LINE",
"621 1506 LINE"
);
},
{
closed = 1;
nodes = (
"829 1506 LINE",
"829 1408 LINE",
"933 1408 LINE",
"933 1506 LINE",
"829 1506 LINE"
);
},
{
closed = 1;
nodes = (
"1037 1506 LINE",
"1037 1408 LINE",
"1140 1408 LINE",
"1140 1506 LINE",
"1037 1506 LINE"
);
},
{
closed = 1;
nodes = (
"103 1699 LINE",
"103 1603 LINE",
"207 1603 LINE",
"207 1699 LINE",
"103 1699 LINE"
);
},
{
closed = 1;
nodes = (
"310 1699 LINE",
"310 1603 LINE",
"414 1603 LINE",
"414 1699 LINE",
"310 1699 LINE"
);
},
{
closed = 1;
nodes = (
"517 1699 LINE",
"517 1603 LINE",
"621 1603 LINE",
"621 1699 LINE",
"517 1699 LINE"
);
},
{
closed = 1;
nodes = (
"725 1699 LINE",
"725 1603 LINE",
"829 1603 LINE",
"829 1699 LINE",
"725 1699 LINE"
);
},
{
closed = 1;
nodes = (
"933 1699 LINE",
"933 1603 LINE",
"1037 1603 LINE",
"1037 1699 LINE",
"933 1699 LINE"
);
},
{
closed = 1;
nodes = (
"1140 1699 LINE",
"1140 1603 LINE",
"1244 1603 LINE",
"1244 1699 LINE",
"1140 1699 LINE"
);
},
{
closed = 1;
nodes = (
"1347 1314 LINE",
"1347 1216 LINE",
"1451 1216 LINE",
"1451 1314 LINE",
"1347 1314 LINE"
);
},
{
closed = 1;
nodes = (
"1244 1119 LINE",
"1244 1023 LINE",
"1347 1023 LINE",
"1347 1119 LINE",
"1244 1119 LINE"
);
},
{
closed = 1;
nodes = (
"1347 927 LINE",
"1347 831 LINE",
"1451 831 LINE",
"1451 927 LINE",
"1347 927 LINE"
);
},
{
closed = 1;
nodes = (
"1244 732 LINE",
"1244 636 LINE",
"1347 636 LINE",
"1347 732 LINE",
"1244 732 LINE"
);
},
{
closed = 1;
nodes = (
"1347 540 LINE",
"1347 444 LINE",
"1451 444 LINE",
"1451 540 LINE",
"1347 540 LINE"
);
},
{
closed = 1;
nodes = (
"1244 345 LINE",
"1244 249 LINE",
"1347 249 LINE",
"1347 345 LINE",
"1244 345 LINE"
);
},
{
closed = 1;
nodes = (
"1347 153 LINE",
"1347 56 LINE",
"1451 56 LINE",
"1451 153 LINE",
"1347 153 LINE"
);
},
{
closed = 1;
nodes = (
"1244 -42 LINE",
"1244 -136 LINE",
"1347 -136 LINE",
"1347 -42 LINE",
"1244 -42 LINE"
);
},
{
closed = 1;
nodes = (
"1347 -234 LINE",
"1347 -331 LINE",
"1451 -331 LINE",
"1451 -234 LINE",
"1347 -234 LINE"
);
},
{
closed = 1;
nodes = (
"1244 -427 LINE",
"1244 -523 LINE",
"1347 -523 LINE",
"1347 -427 LINE",
"1244 -427 LINE"
);
},
{
closed = 1;
nodes = (
"1244 1506 LINE",
"1244 1408 LINE",
"1347 1408 LINE",
"1347 1506 LINE",
"1244 1506 LINE"
);
},
{
closed = 1;
nodes = (
"1347 1699 LINE",
"1347 1603 LINE",
"1451 1603 LINE",
"1451 1699 LINE",
"1347 1699 LINE"
);
}
);
width = 1451;
}
);
note = shade;
unicode = 2592;
},
